/* XPM */
static char *_1d[] = {
/* columns rows colors chars-per-pixel */
"16 16 4 1 ",
"  c None",
". c #EF6D4A",
"X c #EC6E4C",
"o c #CE7962",
/* pixels */
"     XXXXXX     ",
"   XXXXXXXXXX   ",
"  XXXXXXXXXXXX  ",
" XXXXXXXXXXXXX. ",
" XXXXXXXXXXXXX. ",
"XXXXXXXXXXXXXX.o",
"XXXXXXXXXXXXXX.o",
"XXXXXXXXXXXXXX.o",
"XXXXXXXXXXXXXX.o",
"XXXXXXXXXXXXXX.o",
"XXXXXXXXXXXXXX.o",
" XXXXXXXXXXXXX. ",
" XXXXXXXXXXXXX. ",
"  XXXXXXXXXXXX  ",
"   XXXXXXXXXX   ",
"     XXXXXX     "
};
