/* XPM */
static char *_1d[] = {
/* columns rows colors chars-per-pixel */
"16 16 10 1 ",
"  c None",
". c #C1593E",
"X c #C05A3E",
"o c #D96647",
"O c #DA6646",
"+ c #EC6E4C",
"@ c #F0704D",
"# c #F3714E",
"$ c #F7734F",
"% c #FA7550",
/* pixels */
"                ",
"                ",
"                ",
"                ",
"       .X.      ",
"     %####$     ",
"     #++++@o    ",
"    .#++++#o    ",
"    .#+++++o    ",
"    .#++++#o    ",
"     $#@@##     ",
"      oooo      ",
"                ",
"                ",
"                ",
"                "
};
