/* XPM */
static char *_1n[] = {
/* columns rows colors chars-per-pixel */
"16 16 3 1 ",
"  c None",
". c #484849",
"X c #48484A",
/* pixels */
"     XXXXXX     ",
"   XXXXXXXXXX   ",
"  XXXXXXXXXXXX  ",
" XXXXXXXXXXXXXX ",
" XXXXXXXXXXXXXX ",
"XXXXXXXXXXXXXXXX",
"XXXXXXXXXXXXXXXX",
"XXXXXXXXXXXXXXXX",
"XXXXXXXXXXXXXXX.",
"XXXXXXXXXXXXXXX.",
"XXXXXXXXXXXXXXX.",
" XXXXXXXXXXXXXX ",
" XXXXXXXXXXXXXX ",
"  XXXXXXXXXXXX  ",
"   XXXXXXXXXX   ",
"     XXXXXX     "
};
