/* XPM */
static char *_2d[] = {
/* columns rows colors chars-per-pixel */
"23 15 50 1 ",
"  c None",
". c #E8623E",
"X c #EB623E",
"o c #EC643F",
"O c #ED643F",
"+ c #EB6540",
"@ c #EA6845",
"# c #EA6846",
"$ c #EA6A47",
"% c #EE6945",
"& c #ED6946",
"* c #EA6B48",
"= c #EB6B48",
"- c #EE6D4A",
"; c #EF6E4B",
": c #EC6E4C",
"> c #EC6F4D",
", c #EE6E4C",
"< c #F67553",
"1 c #F67E5D",
"2 c #CC7A64",
"3 c #F88262",
"4 c #F88A6C",
"5 c #EE977F",
"6 c #EBB2A1",
"7 c #F7B6A4",
"8 c #FFBAA4",
"9 c #FFC0AC",
"0 c #FFCBBB",
"q c #FFD2C2",
"w c #FFDACC",
"e c #FFEAE2",
"r c #F4EFEC",
"t c #F2F0EE",
"y c #FBF0EB",
"u c #FEF1EC",
"i c #EFF8F9",
"p c #F2F2F1",
"a c #F0F3F3",
"s c #F1F3F3",
"d c #F2F3F2",
"f c #F1F4F3",
"g c #F1F4F4",
"h c #F1F6F6",
"j c #F2F9F9",
"k c #F3FAFA",
"l c #F2FAFB",
"z c #F2FBFC",
"x c #F3FCFD",
"c c #F1FCFE",
/* pixels */
"               >:::    ",
"             >:>::::>  ",
"       pppk .>:::::::; ",
"      pppppy4@>::::::: ",
"     ppppppiw%oo$>:::;2",
"     ppppppau5671@>:::2",
"    pppppppppgkce3%::;2",
"  ppppppppppppppx8.:::2",
" pppppppppppppppk8>%*>2",
"ppppppppppppppppptp0<+ ",
"pppppppppppppppppfpcq  ",
"ppppppppppppppppppppg  ",
"ppppppppppppppppppppp  ",
" pppppppppppppppppppp  ",
"  pppppppppppppppppp   "
};
