/* XPM */
static char *_2d[] = {
/* columns rows colors chars-per-pixel */
"16 16 29 1 ",
"  c None",
". c #7E7E7D",
"X c #EC6743",
"o c #EB6844",
"O c #EC6A47",
"+ c #ED6E4C",
"@ c #F26B47",
"# c #F66F4A",
"$ c #F2724F",
"% c #F6734F",
"& c #F7734F",
"* c #EE876A",
"= c #EFAB98",
"- c #EFB6A6",
"; c #F6B9A8",
": c #F1DBD4",
"> c #EEEEED",
", c #F1E7E2",
"< c #F2ECE9",
"1 c #F3F2F0",
"2 c #F2F2F1",
"3 c #F2F3F3",
"4 c #F2F4F3",
"5 c #F4F4F3",
"6 c #F2F7F8",
"7 c #F2F9FA",
"8 c #FAFAF9",
"9 c #FEFEFD",
"0 c white",
/* pixels */
"                ",
"                ",
"                ",
"                ",
"                ",
"         #&&    ",
"     227-oO+$   ",
"     222<:=X$   ",
"   >522227,*@   ",
"   >52222252;   ",
"   899999999    ",
"     ......     ",
"                ",
"                ",
"                ",
"                "
};
