/* XPM */
static char *_2n[] = {
/* columns rows colors chars-per-pixel */
"16 16 25 1 ",
"  c None",
". c #3E3E41",
"X c #404042",
"o c #424244",
"O c #434345",
"+ c #464648",
"@ c #48484A",
"# c #4A4A4C",
"$ c #4B4B4D",
"% c #676769",
"& c #7E7E7D",
"* c #969797",
"= c #A4A4A5",
"- c gray65",
"; c LightGray",
": c #E3E3E2",
"> c #EAEAE9",
", c #EEEEED",
"< c #F2F2F1",
"1 c #F4F4F3",
"2 c #F9F9F8",
"3 c #FAFAF9",
"4 c #FBFBFA",
"5 c #FEFEFD",
"6 c white",
/* pixels */
"                ",
"                ",
"                ",
"                ",
"                ",
"         +$#    ",
"     <<2=XO@#   ",
"     <<1>;*.#   ",
"   ,1<<<14:%O   ",
"   ,1<<<<<1<=   ",
"   255555555    ",
"     &&&&&&     ",
"                ",
"                ",
"                ",
"                "
};
