/* XPM */
static char *_2n[] = {
/* columns rows colors chars-per-pixel */
"23 15 40 1 ",
"  c None",
". c #37373A",
"X c #39393B",
"o c #3B3B3D",
"O c #3C3C3E",
"+ c #404042",
"@ c #424244",
"# c #424245",
"$ c #434345",
"% c #484849",
"& c #48484A",
"* c #49494B",
"= c #565658",
"- c #606062",
"; c #666668",
": c #717173",
"> c #7D7D7E",
", c #9C9C9D",
"< c #A7A7A8",
"1 c #B5B5B6",
"2 c #BBBBBD",
"3 c gray78",
"4 c LightGray",
"5 c #DADADB",
"6 c #EEEEED",
"7 c #EEEEEE",
"8 c #EFEFEF",
"9 c #F1F1F0",
"0 c #F2F2F1",
"q c #F2F3F1",
"w c gray95",
"e c #F3F3F2",
"r c #F4F4F3",
"t c gray96",
"y c #F6F6F5",
"u c #F9F9F8",
"i c #FAFAF9",
"p c #FCFCFB",
"a c #FDFEFC",
"s c #FEFEFD",
/* pixels */
"               *&&&    ",
"             *&*&&&&*  ",
"       000p .*&&&&&&&& ",
"      000000:+**&&&*&& ",
"     000000u5#oO#*%%%%%",
"     0000000t>,<-+**%%%",
"    000000000rps7;#*%%%",
"  00000000000000s1X%*%*",
" 000000000000000u2*#$**",
"00000000000000000783=O ",
"00000000000000000erp4  ",
"00000000000000000000t  ",
"000000000000000000000  ",
" 00000000000000000000  ",
"  000000000000000000   "
};
