/* XPM */
static char *_3[] = {
/* columns rows colors chars-per-pixel */
"16 16 13 1 ",
"  c None",
". c gray61",
"X c #C0C0BF",
"o c gray80",
"O c #E5E5E4",
"+ c #ECECEB",
"@ c #EFEFEE",
"# c #F2F2F1",
"$ c #F5F5F4",
"% c #F8F8F7",
"& c #FAFAF9",
"* c #FDFDFC",
"= c white",
/* pixels */
"                ",
"                ",
"                ",
"                ",
"                ",
"      oo        ",
"     %%%%       ",
"     ######     ",
"    *######&    ",
"   .*$$$$$$*X   ",
"    #OOOOOO+    ",
"                ",
"                ",
"                ",
"                ",
"                "
};
