/* XPM */
static char *_3[] = {
/* columns rows colors chars-per-pixel */
"24 15 2 1 ",
"  c None",
". c #F2F2F1",
/* pixels */
"        ....            ",
"       .......          ",
"      ........          ",
"     ..........         ",
"     ..............     ",
"     ...............    ",
"   .................    ",
" ...................    ",
" .....................  ",
"....................... ",
"........................",
"........................",
" .......................",
" ...................... ",
"  ....................  "
};
