/* XPM */
static char *_4[] = {
/* columns rows colors chars-per-pixel */
"24 15 46 1 ",
"  c None",
". c #39393B",
"X c #3B3B3D",
"o c #3D3D3F",
"O c #3E3E40",
"+ c #3F3F41",
"@ c #404042",
"# c #414143",
"$ c #424244",
"% c #434345",
"& c #464648",
"* c #474749",
"= c #484849",
"- c #48484A",
"; c #49494B",
": c #57585A",
"> c #59595B",
", c #676769",
"< c #68686A",
"1 c #6C6C6E",
"2 c #777778",
"3 c #858587",
"4 c #8B8B8D",
"5 c #9D9D9E",
"6 c #A1A1A2",
"7 c #B6B6B7",
"8 c #CCCCCD",
"9 c #D5D5D5",
"0 c #E7E7E7",
"q c #EAEAE9",
"w c #EDEDEC",
"e c gray93",
"r c #F1F1F0",
"t c #F2F2F0",
"y c #F2F2F1",
"u c #F3F3F2",
"i c #F4F4F3",
"p c #F4F4F4",
"a c #F5F5F4",
"s c gray96",
"d c #F7F7F6",
"f c #F9F9F8",
"g c #F9F9F9",
"h c #FCFCFB",
"j c #FDFEFD",
"k c white",
/* pixels */
"            ----        ",
"           $-----       ",
"       yyg6o*----       ",
"      yyyyh7#*------    ",
"     yyyyyyj4.+#*----   ",
"    yyyyyyyf8>31#*---   ",
"    yyyyyyyieejh5#----- ",
"   yyyyyyyyyyiyai>%-----",
" yyyyyyyyyyyyyyii,+#----",
"yyyyyyyyyyyyyyyyrq92+---",
"yyyyyyyyyyyyyyyyyiga<X- ",
"yyyyyyyyyyyyyyyyyyyd0   ",
"yyyyyyyyyyyyyyyyyyyyd   ",
" yyyyyyyyyyyyyyyyyyy    ",
"  yyyyyyyyyyyyyyyyy     "
};
