/* XPM */
static char *_4[] = {
/* columns rows colors chars-per-pixel */
"16 16 27 1 ",
"  c None",
". c #2B2B2D",
"X c #3D3D3F",
"o c #424244",
"O c #454547",
"+ c #474749",
"@ c #48484A",
"# c #49494B",
"$ c #4B4B4D",
"% c #4C4C4E",
"& c #545456",
"* c #5D5D5E",
"= c #616163",
"- c #7E7E7D",
"; c #818182",
": c #AAAAAA",
"> c #BEBEBF",
", c #D0D0CF",
"< c LightGray",
"1 c #E8E8E7",
"2 c #F2F2F1",
"3 c #F5F5F3",
"4 c #F6F6F5",
"5 c #F7F7F6",
"6 c #F8F8F7",
"7 c #FEFEFD",
"8 c white",
/* pixels */
"                ",
"                ",
"                ",
"                ",
"                ",
"       ;o$      ",
"     231=XO@    ",
"     225<>*o%   ",
"   8222258:@+.  ",
"   82222226,&   ",
"   877888778    ",
"    -------     ",
"                ",
"                ",
"                ",
"                "
};
