/* XPM */
static char *_9[] = {
/* columns rows colors chars-per-pixel */
"16 15 34 1 ",
"  c None",
". c #363639",
"X c #424244",
"o c #434345",
"O c #444446",
"+ c #454547",
"@ c #464648",
"# c #474749",
"$ c #48484A",
"% c #4A4A4C",
"& c #4E4E50",
"* c #515153",
"= c #535455",
"- c #747476",
"; c #838384",
": c #9C9C9D",
"> c #C3C3C3",
", c gray81",
"< c #D1D1D0",
"1 c #D5D5D4",
"2 c #E6E6E5",
"3 c #EDEDEC",
"4 c gray94",
"5 c #F2F2F1",
"6 c #F3F3F2",
"7 c #F4F4F3",
"8 c #F5F5F4",
"9 c #F6F6F5",
"0 c #F8F8F6",
"q c #F8F8F7",
"w c #FAFAF9",
"e c #FEFEFD",
"r c #FFFFFE",
"t c white",
/* pixels */
"        $$$     ",
"       %O$$     ",
"    55q>#o#$$$  ",
"   5555r;=%O$$  ",
"   5555725,*#$$ ",
" 555555585r-.#$$",
"555555555571:O#$",
"55555555555qr:  ",
"5555q75555555w  ",
" 55q<385w8555   ",
"    %           ",
"                ",
"   o  #         ",
"                ",
"     $ $        "
};
