/* XPM */
static char *_9[] = {
/* columns rows colors chars-per-pixel */
"16 16 27 1 ",
"  c None",
". c #38383A",
"X c #3C3C3F",
"o c #424244",
"O c #454547",
"+ c #47474A",
"@ c #49494B",
"# c #4B4B4D",
"$ c #59595B",
"% c #9C9C9D",
"& c #AAAAAB",
"* c #ACACAC",
"= c gray77",
"- c gray80",
"; c #DDDDDC",
": c #E1E1E1",
"> c #E4E4E3",
", c #EEEEED",
"< c #F0F0EF",
"1 c #F2F2F1",
"2 c #F5F5F4",
"3 c #F6F6F5",
"4 c #F7F7F6",
"5 c #F7F8F6",
"6 c #F9F9F8",
"7 c #FCFCFB",
"8 c #FEFEFD",
/* pixels */
"                ",
"                ",
"                ",
"                ",
"        .o      ",
"     36;$O@     ",
"     113>&X#    ",
"    81113<%+    ",
"    8333627     ",
"     =*:-,      ",
"                ",
"                ",
"                ",
"                ",
"                ",
"                "
};
