/* XPM */
static char *_0d[] = {
/* columns rows colors chars-per-pixel */
"16 16 28 1 ",
"  c None",
". c #DA6342",
"X c #DB6647",
"o c #EC6743",
"O c #EF6D4A",
"+ c #F16F4C",
"@ c #F0704D",
"# c #ED7A5C",
"$ c #ED866C",
"% c #9A999A",
"& c #F1A28E",
"* c #CBCBCB",
"= c gray86",
"- c #DDDDDD",
"; c #F2D1C9",
": c #F1DDD8",
"> c gray90",
", c #F2EEED",
"< c #F1F1F1",
"1 c gray95",
"2 c #F3F3F3",
"3 c #F2F3F4",
"4 c gray96",
"5 c #F6F6F6",
"6 c #F2F7F8",
"7 c #F3F8F9",
"8 c #F6F9FA",
"9 c #F8F8F8",
/* pixels */
"                ",
"                ",
"                ",
"                ",
"         .X     ",
"      48&+@@    ",
"     4<4,:#o    ",
"    <<<<36;$    ",
"    <444947     ",
"     >%=*-      ",
"                ",
"                ",
"                ",
"                ",
"                ",
"                "
};
