/* XPM */
static char *_0d[] = {
/* columns rows colors chars-per-pixel */
"16 16 44 1 ",
"  c None",
". c #3E3D3F",
"X c #454547",
"o c #49484A",
"O c #EC633E",
"+ c #EB6643",
"@ c #EB6744",
"# c #EB6946",
"$ c #EB6B4A",
"% c #EC6B48",
"& c #EB6C49",
"* c #EC6D4A",
"= c #EC6D4B",
"- c #EC6E4B",
"; c #ED6D4C",
": c #EC6E4C",
"> c #E97457",
", c #ED866B",
"< c #EC866C",
"1 c #B7B7B7",
"2 c #ED9D89",
"3 c #EEA594",
"4 c #EFB7A9",
"5 c #F0BBAE",
"6 c #F0D7D1",
"7 c #F2E8E5",
"8 c #F3ECEA",
"9 c #F1F1F1",
"0 c #F1F2F3",
"q c gray95",
"w c #F2F2F3",
"e c #F2F3F3",
"r c #F2F4F4",
"t c #F2F4F5",
"y c #F2F5F6",
"u c #F2F6F7",
"i c #F6F6F6",
"p c gray97",
"a c #F3F6F8",
"s c #F2F8FA",
"d c #F3FAFC",
"f c #F9F9F9",
"g c #FBFBFB",
"h c white",
/* pixels */
"          ::::  ",
"      t  &::::; ",
"    qqqa3+*;::::",
"   qqqqt8>;#&:::",
"   qqqqqq675&**;",
"  qqqqqqqstd<+:;",
" qqqqqqqqqqt4<#%",
"qqqqqqqqqqqest2 ",
"qqqqqqqqqqqqqet ",
"qqqqppqqqqqqqqq ",
" qqf11hppgfqqq  ",
"                ",
"         .      ",
"   Xo o         ",
"                ",
"        o       "
};
