/* XPM */
static char *_0n[] = {
/* columns rows colors chars-per-pixel */
"16 16 26 1 ",
"  c None",
". c #403F40",
"X c #403F41",
"o c #444345",
"O c #474648",
"+ c #49484A",
"@ c #4A494B",
"# c #585759",
"$ c #69686A",
"% c #8B8B8C",
"& c #9A999A",
"* c #C6C6C7",
"= c #CBCBCB",
"- c #D7D6D7",
"; c gray86",
": c #DDDDDD",
"> c gray90",
", c #ECECEC",
"< c #F1F1F1",
"1 c gray95",
"2 c #F3F3F3",
"3 c #F4F4F4",
"4 c gray96",
"5 c #F6F6F6",
"6 c #F8F8F8",
"7 c gray98",
/* pixels */
"                ",
"                ",
"                ",
"                ",
"         Xo     ",
"      37%O++    ",
"     3<3,-#.    ",
"    <<<3<7=$    ",
"    <733737     ",
"     >&;=:      ",
"                ",
"                ",
"                ",
"                ",
"                ",
"                "
};
