/* XPM */
static char *_0n[] = {
/* columns rows colors chars-per-pixel */
"16 16 37 1 ",
"  c None",
". c #3C3B3E",
"X c #3E3D3F",
"o c #403F41",
"O c #414042",
"+ c #434244",
"@ c #454446",
"# c #454547",
"$ c #464547",
"% c #464647",
"& c #484749",
"* c #49474A",
"= c #49484A",
"- c #515153",
"; c #676768",
": c #686869",
"> c #858586",
", c #909091",
"< c #A4A3A4",
"1 c #ABAAAB",
"2 c #B7B7B7",
"3 c #CDCCCD",
"4 c gray89",
"5 c #EAE9E9",
"6 c #F1F1F1",
"7 c gray95",
"8 c #F3F3F3",
"9 c #F4F4F4",
"0 c gray96",
"q c #F6F6F6",
"w c gray97",
"e c #F8F8F8",
"r c #F9F9F9",
"t c gray98",
"y c #FBFBFB",
"u c gray99",
"i c white",
/* pixels */
"          ====  ",
"      0  $===== ",
"    777e,o&=====",
"   777705-=+&===",
"   777770341$===",
"  7777777e0u;.==",
" 77777777770<:O$",
"777777777777e0> ",
"777777777777700 ",
"7777e0777777777 ",
" 77u22ue0ue777  ",
"                ",
"         X      ",
"   $= =         ",
"                ",
"        =       "
};
