/* XPM */
static char *_1[] = {
/* columns rows colors chars-per-pixel */
"16 16 36 1 ",
"  c None",
". c #414143",
"X c #424244",
"o c #444446",
"O c #464648",
"+ c #474749",
"@ c #48484A",
"# c #4A4A4C",
"$ c #4A4A4D",
"% c #4B4A4D",
"& c #4B4B4D",
"* c #58585A",
"= c #7B7B7C",
"- c #EC7251",
"; c #ED7A5B",
": c #ED8C71",
"> c #9A9A9B",
", c gray",
"< c gray75",
"1 c #EFB6A5",
"2 c #DADAD9",
"3 c #F0CEC3",
"4 c gray88",
"5 c #F2EDEB",
"6 c #F2EFEE",
"7 c #F2F2F1",
"8 c #F2F3F2",
"9 c #F2F3F3",
"0 c #F2F7F7",
"q c #F6F6F5",
"w c #F7F7F5",
"e c #F3FBFC",
"r c #F9F9F8",
"t c #FAFAF8",
"y c #FAFAF9",
"u c #FDFDFC",
/* pixels */
"                ",
"                ",
"                ",
"                ",
"       =X$      ",
"     7q4*.O@    ",
"     77q2<&o$   ",
"   t7707wt>$+   ",
"   t953697u,    ",
"   te1:7977     ",
"     -;         ",
"                ",
"                ",
"                ",
"                ",
"                "
};
