/* XPM */
static char *_1[] = {
/* columns rows colors chars-per-pixel */
"18 15 53 1 ",
"  c None",
". c #38383A",
"X c #3A3A3C",
"o c #3C3C3E",
"O c #3E3E40",
"+ c #3F3F41",
"@ c #414143",
"# c #424244",
"$ c #454547",
"% c #474749",
"& c #48484A",
"* c #525253",
"= c #58585A",
"- c #707071",
"; c #E9613D",
": c #EC6A47",
"> c #EB6B48",
", c #EB6E4D",
"< c #EC6F4D",
"1 c #ED7D5E",
"2 c #EC8265",
"3 c #9B9B9C",
"4 c #A9A9AA",
"5 c #AEAEAF",
"6 c #B1B1B1",
"7 c #B7B7B7",
"8 c #EFA793",
"9 c #F0C7BA",
"0 c #F1C9BC",
"q c gray78",
"w c #CECECE",
"e c #F1E0DB",
"r c #F2E4DF",
"t c #F3E5E0",
"y c #F3EBE8",
"u c #F1F1F0",
"i c #F2F2F0",
"p c #F2F2F1",
"a c #F2F3F2",
"s c #F3F3F2",
"d c #F2F3F3",
"f c #F2F4F3",
"g c #F4F4F2",
"h c #F4F4F3",
"j c #F2F5F4",
"k c #F2F5F5",
"l c #F7F7F6",
"z c #F8F8F7",
"x c #F2F8F9",
"c c #F3FCFD",
"v c #FAFAF9",
"b c #FBFBFA",
"n c white",
/* pixels */
"         &&&      ",
"        o%&&&     ",
"    pppz3@&&&&&   ",
"    ppppb-.+$&&&  ",
"   pppppzq76*$&&& ",
"   pppppphbn5X&&&&",
" ppppppppppbw=#%&&",
"pppppkxfpppppp4+%&",
"ppppke9tppppphb   ",
"pppph2,tkpppppp   ",
" ppc0;8yfpppppp   ",
"    1>:           ",
"     <            ",
"                  ",
"                  "
};
