/* XPM */
static char *_3[] = {
/* columns rows colors chars-per-pixel */
"16 16 5 1 ",
"  c None",
". c #444446",
"X c #48484A",
"o c #49494B",
"O c #4B4B4D",
/* pixels */
"                ",
"                ",
"                ",
"                ",
"                ",
"       oo       ",
"      oXoo.     ",
"     .ooXo.     ",
"     .ooXo.     ",
"     .o  o.     ",
"       OO       ",
"                ",
"                ",
"                ",
"                ",
"                "
};
