/* XPM */
static char *_3[] = {
/* columns rows colors chars-per-pixel */
"15 16 2 1 ",
"  c None",
". c #48484A",
/* pixels */
"       .       ",
"     . . .     ",
"   . ..... .   ",
"   .  ...  .   ",
"....   .   ....",
" ....  .  .... ",
"...............",
"     .. ..    .",
"     .. ..     ",
"...............",
" ....  .  .... ",
"....   .   ....",
"   .  ...  .   ",
"   . ..... .   ",
"     . . ..    ",
"       .       "
};
