/* XPM */
static char *_0[] = {
/* columns rows colors chars-per-pixel */
"25 15 2 1 ",
"  c None",
". c #48484A",
/* pixels */
"       ........          ",
"                         ",
"                         ",
"  ...............        ",
"                         ",
"                         ",
"       ..................",
"                         ",
"..................       ",
"..................       ",
"                         ",
"    ..................   ",
"                         ",
"                         ",
"       ...........       "
};
