/* XPM */
static char *arch[] = {
/* columns rows colors chars-per-pixel */
"22 22 117 2 ",
"   c None",
".  c #0E4E6E",
"X  c #0C4F70",
"o  c #0B5072",
"O  c #0E5273",
"+  c #0D5477",
"@  c #0D5578",
"#  c #22607E",
"$  c #0F5B81",
"%  c #0F5D84",
"&  c #0F5E86",
"*  c #0E5F87",
"=  c #0E5F88",
"-  c #0F6089",
";  c #0F628C",
":  c #0F638E",
">  c #116087",
",  c #106189",
"<  c #11658F",
"1  c #116894",
"2  c #1A6990",
"3  c #116D9B",
"4  c #2B6D8E",
"5  c #137BAE",
"6  c #137BAF",
"7  c #137DB2",
"8  c #157FB5",
"9  c #367EA2",
"0  c #1D80B2",
"q  c #1980B4",
"w  c #1482B9",
"e  c #1582B9",
"r  c #1684BB",
"t  c #1586BE",
"y  c #1486BF",
"u  c #3486AF",
"i  c #2A8BBC",
"p  c #3288B3",
"a  c #3788B1",
"s  c #378AB4",
"d  c #358DB9",
"f  c #4689AB",
"g  c #1688C2",
"h  c #148CC7",
"j  c #168DC9",
"k  c #178FCB",
"l  c #1790CD",
"z  c #1691CE",
"x  c #1491D0",
"c  c #1592D1",
"v  c #1792D0",
"b  c #1793D1",
"n  c #1794D2",
"m  c #1795D3",
"M  c #1595D5",
"N  c #1795D4",
"B  c #1795D5",
"V  c #1796D5",
"C  c #1797D6",
"Z  c #1796D7",
"A  c #1797D7",
"S  c #1896D5",
"D  c #1896D6",
"F  c #1897D6",
"G  c #1897D7",
"H  c #1B98D6",
"J  c #1899D9",
"K  c #1899DA",
"L  c #189ADA",
"P  c #189ADB",
"I  c #1E9CDB",
"U  c #189ADC",
"Y  c #189BDC",
"T  c #189BDD",
"R  c #1A9BDC",
"E  c #1E9DDD",
"W  c #2294CC",
"Q  c #3C95C2",
"!  c #2298D3",
"~  c #2399D3",
"^  c #289BD5",
"/  c #299BD5",
"(  c #2A9CD5",
")  c #2B9CD5",
"_  c #2C9DD5",
"`  c #2C9DD6",
"'  c #219CD9",
"]  c #259EDB",
"[  c #289FDA",
"{  c #349DD1",
"}  c #2BA2DE",
"|  c #2EA3DE",
" . c #35A1D7",
".. c #30A0D8",
"X. c #33A1D8",
"o. c #30A3DC",
"O. c #33A4DD",
"+. c #35A5DD",
"@. c #39A3D8",
"#. c #3AA4D8",
"$. c #3EA6D9",
"%. c #3FA6D9",
"&. c #19A1E5",
"*. c #19A2E6",
"=. c #19A3E8",
"-. c #37A7E0",
";. c #43A7DA",
":. c #44A8DA",
">. c #49ACDD",
",. c #4FADDD",
"<. c #4CAEDF",
"1. c #55B0DD",
"2. c #40ACE2",
"3. c #4CB6EB",
"4. c #54B3E2",
"5. c #59B7E6",
"6. c #5DB9E7",
/* pixels */
"                                            ",
"                    : 2                     ",
"                    h W                     ",
"                    R E                     ",
"                  0 ' H i                   ",
"                  | ^ ! }                   ",
"                  +...( [ p                 ",
"                4 # { X.` -.                ",
"              9 3.Q d #. .O.a               ",
"              4.,.<.>.;.%.@.2.              ",
"            f 6.1.:. ._ / ) o.s             ",
"            5.$.~ b M M c c c I             ",
"          u ] x c A e w G b b Z q           ",
"          K c b J ,     = J b b P           ",
"        7 A b N g         y B b C r         ",
"        P b b K <         = K b l J .       ",
"      t S b b P O           U n k 3 $       ",
"    X Y b n G &.$         o *.F m n 1       ",
"    j D L S 5 +             @ 6 V P T 8     ",
"  & &.l -                         ; z =.>   ",
"  v %                                 * b   ",
"                                            "
};
