/* XPM */
static char *arch[] = {
/* columns rows colors chars-per-pixel */
"16 16 69 1 ",
"  c None",
". c #0E4C6B",
"X c #0D4C6C",
"o c #1C536E",
"O c #0C4F70",
"+ c #0E5273",
"@ c #0C5579",
"# c #0E577B",
"$ c #0E5D85",
"% c #0F618B",
"& c #0E628C",
"* c #0F638D",
"= c #1A6990",
"- c #2B7093",
"; c #24769F",
": c #1273A4",
"> c #1274A5",
", c #1486BF",
"< c #1D89BF",
"1 c #308EBD",
"2 c #4294BC",
"3 c #168CC7",
"4 c #178DC8",
"5 c #168DC9",
"6 c #1691CF",
"7 c #1791CF",
"8 c #1793D0",
"9 c #1793D1",
"0 c #1492D2",
"q c #1693D2",
"w c #1794D2",
"e c #1795D4",
"r c #1695D5",
"t c #1795D5",
"y c #1796D5",
"u c #1796D6",
"i c #1895D3",
"p c #1C96D3",
"a c #1897D7",
"s c #1698DA",
"d c #1699DA",
"f c #1898D8",
"g c #1899DA",
"h c #189BDC",
"j c #199DDF",
"k c #1F9DDD",
"l c #2D90C2",
"z c #2193CD",
"x c #3894C1",
"c c #2E9ED6",
"v c #279DD8",
"b c #229FDE",
"n c #319FD6",
"m c #25A0DE",
"M c #32A1D8",
"N c #34A4DC",
"B c #3EA5D8",
"V c #3CA5DA",
"C c #38A6DC",
"Z c #199EE1",
"A c #19A1E5",
"S c #30A5E0",
"D c #32A7E1",
"F c #36A8E1",
"G c #4698C1",
"H c #409DCB",
"J c #4DADDC",
"K c #4CB0E3",
"L c #5DBAE9",
/* pixels */
"                ",
"       &=       ",
"       4z       ",
"       mbo      ",
"      ;Svl      ",
"      -1MS      ",
"     2KHVCx     ",
"     LJVMnF     ",
"    GNpgs8u<    ",
"    k88  6wg.   ",
"   ,us#  @gu3   ",
"  Oh8s    u83X  ",
"  4ugh    hg3@  ",
" $Aw>      >uZ+ ",
" 8%          *i ",
"                "
};
