/* XPM */
static char *asterisk[] = {
/* columns rows colors chars-per-pixel */
"10 10 35 1 ",
"  c None",
". c #6A0000",
"X c #6B0000",
"o c #7A0000",
"O c #7E0000",
"+ c #830000",
"@ c #850000",
"# c #860000",
"$ c #8D0000",
"% c #8F0000",
"& c #920000",
"* c #960000",
"= c #A00000",
"- c #A30000",
"; c #A40000",
": c #A90000",
"> c #AB0000",
", c #B40000",
"< c #B50000",
"1 c #B60000",
"2 c #B70000",
"3 c #B80000",
"4 c #BB0000",
"5 c #BD0000",
"6 c #C00000",
"7 c #C20000",
"8 c #C30000",
"9 c #C40000",
"0 c #CF0000",
"q c #D00000",
"w c #D30000",
"e c #D40000",
"r c #D50000",
"t c #DC0000",
"y c #DD0000",
/* pixels */
"    23    ",
"    0q    ",
"    45    ",
"=e# %& @w-",
"6ry1**<ye8",
"   .67X   ",
"   $;-%   ",
"  :y  t>  ",
" +y9  7y# ",
"  ,O  o1  "
};
