/* XPM */
static char *asterisk[] = {
/* columns rows colors chars-per-pixel */
"8 8 30 1 ",
"  c None",
". c #750000",
"X c #760000",
"o c #7C0000",
"O c #7E0001",
"+ c #840000",
"@ c #850001",
"# c #860000",
"$ c #870001",
"% c #8D0000",
"& c #8E0000",
"* c #8F0000",
"= c #910000",
"- c #940000",
"; c #960000",
": c #9C0000",
"> c #9F0000",
", c #A90001",
"< c #AB0001",
"1 c #AE0000",
"2 c #B00000",
"3 c #B50000",
"4 c #B60000",
"5 c #B70000",
"6 c #C30000",
"7 c #C60000",
"8 c #DD0000",
"9 c #DD0001",
"0 c #DE0000",
"q c #DF0000",
/* pixels */
"   ,,   ",
"   35   ",
"o$ $$ $o",
"694%%497",
"   44   ",
"  %--=  ",
" :9  9, ",
" .3  1. "
};
