/* XPM */
static char *battery2[] = {
/* columns rows colors chars-per-pixel */
"16 16 72 1 ",
"  c None",
". c #181818",
"X c gray30",
"o c gray36",
"O c gray37",
"+ c gray42",
"@ c gray46",
"# c #777777",
"$ c gray48",
"% c gray49",
"& c #7AAD55",
"* c #71B651",
"= c #7DBD5E",
"- c #7E9773",
"; c #7FB664",
": c #879B7E",
"> c #81A964",
", c #86C567",
"< c #8ECC6D",
"1 c #8EC074",
"2 c #93D270",
"3 c #9FDE72",
"4 c gray56",
"5 c #929292",
"6 c #949693",
"7 c #939294",
"8 c #979797",
"9 c #9A979B",
"0 c gray60",
"q c gray61",
"w c #9E9E9F",
"e c #A0A690",
"r c #ADB49E",
"t c #A2A3A1",
"y c #A1A1A2",
"u c #A2A1A3",
"i c #A4A6A3",
"p c #A5A5A5",
"a c gray65",
"s c #A7A7A7",
"d c #A7A8A6",
"f c #A9A9A9",
"g c #AAACA9",
"h c #B8BFA9",
"j c #B2B2B2",
"k c #B4B4B4",
"l c #9BCA80",
"z c #A6DE81",
"x c #A5DB84",
"c c #AADB86",
"v c #A5D38A",
"b c #AAD98E",
"n c #B5C29D",
"m c #B7E298",
"M c #B8E19E",
"N c #BAC6A1",
"B c #C0CEA7",
"V c #C8D6AE",
"C c #C1C8B1",
"Z c #D1DEB5",
"A c #C5C5C5",
"S c gray83",
"D c #DBE0CE",
"F c #E4EECF",
"G c #E6EED5",
"H c #E6E9DC",
"J c #E9F1D9",
"K c #E6E6E6",
"L c #EBEFE1",
"P c gray91",
"I c #EAEAEA",
"U c gray94",
/* pixels */
"     .X#80o     ",
"     o+%4jf     ",
"  5      KUIAk  ",
"  q      SI  $  ",
"  f             ",
"  a             ",
"  a             ",
"  a             ",
"  a             ",
"  u nNBVZGJG    ",
"  u erhC HLD    ",
"  q             ",
"  9-*=,<2xz3&   ",
"  9:;1lvbMmc>7  ",
"  #   6tdgi  #  ",
"                "
};
