/* XPM */
static char *battery_plugged1[] = {
/* columns rows colors chars-per-pixel */
"16 16 64 1 ",
"  c None",
". c gray19",
"X c #5F5F5F",
"o c #626262",
"O c #717373",
"+ c #7B7B7B",
"@ c gray50",
"# c #8E5409",
"$ c #A76D03",
"% c #B46E05",
"& c #C9750A",
"* c #DA8E05",
"= c #DB8C06",
"- c #DC9F05",
"; c #D99B08",
": c #E4A605",
"> c #F2A005",
", c #E8B203",
"< c #E8B601",
"1 c #EBBA01",
"2 c #F7B203",
"3 c #F5B304",
"4 c #F7BF01",
"5 c #FABD04",
"6 c #CC9E3A",
"7 c #F6C001",
"8 c #F2C500",
"9 c #F6CD00",
"0 c #F7CF00",
"q c #FDC800",
"w c #FEC903",
"e c #FBCE00",
"r c #FCCD01",
"t c #FCCF00",
"y c #F9D100",
"u c #FCD800",
"i c #FFDB00",
"p c #FFE000",
"a c #FFE100",
"s c #A78551",
"d c #808080",
"f c gray54",
"g c #968883",
"h c #959595",
"j c gray59",
"k c #9A9E92",
"l c #9C9F96",
"z c #989898",
"x c #9F9F9E",
"c c #ADB49F",
"v c #A7A7A7",
"b c gray67",
"n c #ACB1A1",
"m c #C0C8B0",
"M c #C2C8B6",
"N c #CAD2BA",
"B c #C5C5C5",
"V c #D0D5C4",
"C c #D3DBC2",
"Z c #D3D9C6",
"A c #D7DDC9",
"S c gray86",
"D c #DCE0D1",
"F c gray93",
/* pixels */
"         .dz    ",
"         odbz   ",
"     & O   SFB  ",
"    >#          ",
"   *3           ",
"  %7:           ",
"  48,  s        ",
" 2e99yq6        ",
"   1uy-g        ",
"   1aq          ",
"   ra           ",
"   u;           ",
"  $5    cmNACk  ",
"  =    +nMVDZl  ",
"       X fxvh   ",
"                "
};
