/* XPM */
static char *battery_plugged3[] = {
/* columns rows colors chars-per-pixel */
"16 16 84 1 ",
"  c None",
". c #626262",
"X c DimGray",
"o c #727272",
"O c #777877",
"+ c #A46007",
"@ c #A77004",
"# c #BC7506",
"$ c #977033",
"% c #CB7F07",
"& c #51AF31",
"* c #5EBA3B",
"= c #64A44C",
"- c #79B65F",
"; c #79BC59",
": c #77976B",
"> c #72A165",
", c #7DC552",
"< c #78CC52",
"1 c #CD8E06",
"2 c #D18407",
"3 c #E08409",
"4 c #E49406",
"5 c #D6A104",
"6 c #E3AE03",
"7 c #F5AE04",
"8 c #EDB400",
"9 c #EFB504",
"0 c #F2B603",
"q c #F6BB02",
"w c #F0BD01",
"e c #F6BD01",
"r c #F8B803",
"t c #E7B11D",
"y c #F4C102",
"u c #F1C400",
"i c #F6CD00",
"p c #F6CF00",
"a c #FCC900",
"s c #FFC802",
"d c #FBCE00",
"f c #F7D100",
"g c #FCD000",
"h c #FFD301",
"j c gold",
"k c #FDD900",
"l c #FFE100",
"z c #FFE300",
"x c #A4805C",
"c c #83B564",
"v c #8ABF6E",
"b c #86A976",
"n c #8AC86A",
"m c #90CA67",
"M c #93CC78",
"N c #99C878",
"B c #99D477",
"V c #A2E37F",
"C c #989898",
"Z c gray60",
"A c #9A9A9A",
"S c #9C9E9B",
"D c #8FAB81",
"F c #B0A380",
"G c #A8AAA7",
"H c #AAABA9",
"J c gray68",
"K c gray74",
"L c #9FCE84",
"P c #AEDA92",
"I c #A8E084",
"U c #B8E49A",
"Y c #BDCBA6",
"T c #BDE8A4",
"R c #C0CAAA",
"E c #C7D5AA",
"W c #D8E5BD",
"Q c #DDDDDD",
"! c #EAF2D9",
"~ c #EAFCE1",
"^ c #F9FBEF",
"/ c gray94",
"( c #F1F1F1",
") c #FFFFF9",
/* pixels */
"          .ZX   ",
"          oZJ   ",
"     3     K(QZ ",
"    4#      (   ",
"   %r           ",
"  +e0       )   ",
"  quw@ $FYEW!R  ",
" 7diigat    ^   ",
"   6kf8x    ~   ",
"   5lj  >&*<V,  ",
"   yl1  :=-MTc  ",
"   j9           ",
"   a    b;nBIm  ",
"  2     DvLPUN  ",
"        O SHG   ",
"                "
};
