/* XPM */
static char *battery4[] = {
/* columns rows colors chars-per-pixel */
"16 16 117 2 ",
"   c None",
".  c #181818",
"X  c #3E772B",
"o  c #3F772F",
"O  c #3E7732",
"+  c #427B2D",
"@  c #407832",
"#  c gray30",
"$  c #59585A",
"%  c gray37",
"&  c #686869",
"*  c gray46",
"=  c #777777",
"-  c #79797A",
";  c #7B7A7B",
":  c #3C9F29",
">  c #548036",
",  c #549930",
"<  c #5D9E33",
"1  c #44A62E",
"2  c #4EAB30",
"3  c #4AAD31",
"4  c #51B633",
"5  c #56B036",
"6  c #5DB83B",
"7  c #5CC139",
"8  c #64C03F",
"9  c #5A9944",
"0  c #65885F",
"q  c #6BA754",
"w  c #7AAD55",
"e  c #71B651",
"r  c #77B25E",
"t  c #7DBD5E",
"y  c #6C8C62",
"u  c #7E9774",
"i  c #7FB664",
"p  c #6DC944",
"a  c #89907A",
"s  c #879B7E",
"d  c #81A964",
"f  c #80BB65",
"g  c #87C567",
"h  c #8AC56D",
"j  c #8ECC6D",
"k  c #89D962",
"l  c #89D16E",
"z  c #8ED56F",
"x  c #8EC074",
"c  c #94D270",
"v  c #9FDE72",
"b  c #9ADC7A",
"n  c #99E46C",
"m  c #9EE07B",
"M  c #888985",
"N  c #8E8D8E",
"B  c #989C8F",
"V  c #919091",
"C  c #949693",
"Z  c #939294",
"A  c #979797",
"S  c #979798",
"D  c #9A979B",
"F  c gray60",
"G  c #9E9E9F",
"H  c #A1A498",
"J  c #A9B392",
"K  c #ABB594",
"L  c #AEB997",
"P  c #B4BE9C",
"I  c #A2A3A1",
"U  c #A4A6A3",
"Y  c #A4A2A5",
"T  c #A6A2A7",
"R  c #A7A2A7",
"E  c #A4A4A4",
"W  c #A6A4A7",
"Q  c #A6A5A7",
"!  c #A7A5A7",
"~  c #A7A8A6",
"^  c #A9ACA0",
"/  c #AAA9AA",
"(  c #AAACA9",
")  c #B1B4A9",
"_  c #B2B1B2",
"`  c #B4B4B4",
"'  c #BBBEB4",
"]  c #9BCA80",
"[  c #A6DE81",
"{  c #A5DB85",
"}  c #AADB86",
"|  c #A5D38A",
" . c #AADD8B",
".. c #AAD98E",
"X. c #AEDC97",
"o. c #AAD39A",
"O. c #B5DF9F",
"+. c #B7E298",
"@. c #B8E19E",
"#. c #BCC6A5",
"$. c #B8D3AF",
"%. c #BAE5A2",
"&. c #C4D6BC",
"*. c #C1EAAF",
"=. c #C2E0B4",
"-. c #CACCC7",
";. c #D7DDC9",
":. c #D8F3CE",
">. c #DEE4D3",
",. c #E1E6D7",
"<. c #E1E1DB",
"1. c #E6E6DF",
"2. c #E6E7E2",
"3. c #E8EAE4",
"4. c #EEEFEB",
"5. c #E8F9E0",
"6. c #FAFAF5",
/* pixels */
"          . # = A F %           ",
"          $ & ; N _ /           ",
"    V M B H ^ ) ' 2.4.3.-.`     ",
"    S   J K L P #.>.,.;.a ;     ",
"    W             <.6.1.        ",
"    W             $.:.=.        ",
"    R 0 : 1 3 4 7 l z k ,       ",
"    W   O @ o X + o.*.X.        ",
"    W             &.5.          ",
"    R y 2 5 6 8 p b m n <       ",
"    R   9 q r f h O.%. .>       ",
"    G                           ",
"    F u e t g j c { [ v w       ",
"    D s i x ] | ..@.+.} d Z     ",
"    =       C I ~ ( U     *     ",
"                                "
};
