/* XPM */
static char *battery4[] = {
/* columns rows colors chars-per-pixel */
"22 22 172 2 ",
"   c None",
".  c #232323",
"X  c #3E3E3E",
"o  c #407021",
"O  c gray28",
"+  c gray30",
"@  c gray33",
"#  c #5B5B5B",
"$  c gray39",
"%  c #656565",
"&  c #676767",
"*  c #686868",
"=  c #6A6A6A",
"-  c gray42",
";  c #6C6C6C",
":  c gray43",
">  c #6F6F6F",
",  c gray45",
"<  c #767676",
"1  c gray47",
"2  c #797979",
"3  c gray50",
"4  c #518D3C",
"5  c #489133",
"6  c #4D9B33",
"7  c #4FA135",
"8  c #50A235",
"9  c #53A636",
"0  c #55AD37",
"q  c #58AB38",
"w  c #59B03A",
"e  c #5CB13B",
"r  c #5EB538",
"t  c #5FB53E",
"y  c #6E9453",
"u  c #689654",
"i  c #72945A",
"p  c #60A248",
"a  c #64BB42",
"s  c #69A950",
"d  c #6EAB51",
"f  c #74AB5A",
"g  c #71B157",
"h  c #77BA57",
"j  c #79B85D",
"k  c #7EBE5F",
"l  c #76A860",
"z  c #7EBA60",
"x  c #7FBE62",
"c  c #6AC045",
"v  c #6CC544",
"b  c #80B069",
"n  c #87BF69",
"m  c #88B771",
"M  c #90BE78",
"N  c #91E35E",
"B  c #82C462",
"V  c #85C465",
"C  c #84CC64",
"Z  c #8CC96B",
"A  c #91CF69",
"S  c #91CE6F",
"D  c #8EDA61",
"F  c #8BD568",
"G  c #97DC66",
"H  c #93D26F",
"J  c #98D56C",
"K  c #8FC571",
"L  c #96C972",
"P  c #96C57D",
"I  c #96CB79",
"U  c #9AC97F",
"Y  c #9CDF75",
"T  c #9CD07E",
"R  c #9FD47F",
"E  c #9FD87D",
"W  c #A1DC77",
"Q  c #A0DF7D",
"!  c #A5DE7F",
"~  c #A1E27D",
"^  c #838383",
"/  c gray52",
"(  c #898989",
")  c #8B8B8B",
"_  c gray55",
"`  c #8E8E8E",
"'  c #949E8F",
"]  c #959595",
"[  c #9B9B9B",
"{  c gray61",
"}  c #A3AE8F",
"|  c #A4AF90",
" . c #A3AC9E",
".. c gray63",
"X. c gray64",
"o. c #A4A4A4",
"O. c gray66",
"+. c #A9A9A9",
"@. c #AEADAF",
"#. c #AFAEAF",
"$. c #B0B9AB",
"%. c #B1B1B1",
"&. c #B1B0B2",
"*. c #B6B5B6",
"=. c #BBBBBB",
"-. c gray74",
";. c gray75",
":. c #9FD584",
">. c #A6DA80",
",. c #A9D98A",
"<. c #A9DD88",
"1. c #ADDE8A",
"2. c #ACD88D",
"3. c #ADDF8F",
"4. c #B5C19E",
"5. c #B7C39F",
"6. c #A9D490",
"7. c #B1DE93",
"8. c #B3DE98",
"9. c #B7DE9E",
"0. c #A4E184",
"q. c #A8E28A",
"w. c #AAE18F",
"e. c #B5E59A",
"r. c #B8C5A0",
"t. c #BBC7A2",
"y. c #BCC9A3",
"u. c #BFCDA5",
"i. c #BCC4B7",
"p. c #BFC8B9",
"a. c #BBE5A4",
"s. c #C1CFA6",
"d. c #C4D3A9",
"f. c #C6D5AA",
"g. c #C9D8AC",
"h. c #CBDAAD",
"j. c #D8E4BF",
"k. c #C1C0C1",
"l. c #C1C1C1",
"z. c #C2C1C3",
"x. c #C3C1C3",
"c. c gray76",
"v. c #C3C2C3",
"b. c #C3C3C3",
"n. c #C6CEC1",
"m. c #CECECE",
"M. c #CAD3C5",
"N. c #CED6C8",
"B. c #D0D8CB",
"V. c gray84",
"C. c #D5DCD0",
"Z. c gray86",
"A. c #DDDDDD",
"S. c gray87",
"D. c #D9E5C0",
"F. c #DAE5C4",
"G. c #DBE6C5",
"H. c #E0E9CF",
"J. c #E8EFDA",
"K. c #E7F0D6",
"L. c #E7F0D7",
"P. c #E8F0DB",
"I. c gray89",
"U. c #E4E4E4",
"Y. c #E7E7E7",
"T. c #E9E9E9",
"R. c gray93",
"E. c #F7FAF0",
"W. c #F7FAF2",
"Q. c #F8F8F8",
"!. c #FDFFF9",
"~. c white",
/* pixels */
"                + $ _ ..O.X.-               ",
"              . X O * 1 / ^ &               ",
"      [ )     ( ` ] { ..b.I.S.Z.l.o.+.@     ",
"      o.                m.R.T.Y.V.c.-.#     ",
"      %.                  R.U.A.    3 %     ",
"      ;.                  Q.          :     ",
"      b.                  ~.          <     ",
"      c.                  !.W.        2     ",
"      l.  } 4.5.t.u.d.g.F.P.L.H.j.    2     ",
"      l.  | 5.r.y.s.f.h.G.J.K.H.D.    2     ",
"      c.                  E.          2     ",
"      v.                              2     ",
"      z.  5 7 8 9 q e r C w.0.Q D     2     ",
"      x.  6 0 w t a c v F q.~ Y N o   2     ",
"      k.  4 p s g j x B :.a.e.3.A     <     ",
"      =.                              ,     ",
"      *.  u l b m M P U 6.9.8.2.L     >     ",
"      &.  d h k V Z S H E <.! W G y   ;     ",
"      @.  f z n K I T R ,.7.1.>.J i   =     ",
"      #.    '  .$.i.n.M.B.C.N.p.    ] =     ",
"                                            ",
"                                            "
};
