/* XPM */
static char *battery_plugged2[] = {
/* columns rows colors chars-per-pixel */
"22 22 138 2 ",
"   c None",
".  c gray18",
"X  c #323232",
"o  c #505050",
"O  c gray33",
"+  c gray36",
"@  c gray38",
"#  c #676767",
"$  c #6C6A6E",
"%  c #6E6B6F",
"&  c #6D6C6D",
"*  c #6F6F6F",
"=  c #706E71",
"-  c gray45",
";  c #777777",
":  c #787877",
">  c #757878",
",  c #777879",
"<  c gray47",
"1  c #797979",
"2  c #A85809",
"3  c #AD5A09",
"4  c #AA6407",
"5  c #B66409",
"6  c #B46B08",
"7  c #BC7107",
"8  c #B97406",
"9  c #D57B09",
"0  c #807776",
"q  c #71A45B",
"w  c #73B852",
"e  c #7BB85C",
"r  c #CA8606",
"t  c #CF8607",
"y  c #CB8F05",
"u  c #DC8A07",
"i  c #D78208",
"p  c #E69307",
"a  c #E79507",
"s  c #E69706",
"d  c #E29F00",
"f  c #E29A07",
"g  c #ED9D05",
"h  c #F39907",
"j  c #DDA116",
"k  c #E3A002",
"l  c #EEA604",
"z  c #E4A804",
"x  c #ECAD02",
"c  c #E8AA04",
"v  c #EEB103",
"b  c #ECB302",
"n  c #ECB701",
"m  c #ECB004",
"M  c #EEBE00",
"N  c #F2B303",
"B  c #F4B702",
"V  c #F2BA02",
"C  c #F4BD02",
"Z  c #FABD04",
"A  c #E0B13A",
"S  c #EFC200",
"D  c #F0C000",
"F  c #F1C200",
"G  c #F1C400",
"H  c #F1C500",
"J  c #F3C600",
"K  c #F5C700",
"L  c #FAC303",
"P  c #FCC502",
"I  c #F3C900",
"U  c #F5C900",
"Y  c #F4CA00",
"T  c #F5CC00",
"R  c #F6CE00",
"E  c #F7CF00",
"W  c #FECB02",
"Q  c #FDCD01",
"!  c #F8D300",
"~  c #FFD100",
"^  c #F9D400",
"/  c #FAD400",
"(  c #FAD800",
")  c #FCD800",
"_  c #FDD900",
"`  c #FFD800",
"'  c #FDDA00",
"]  c #FFDE00",
"[  c #FFDF00",
"{  c #FFE000",
"}  c #809173",
"|  c #839378",
" . c #86977F",
".. c #A88C7C",
"X. c #85B46F",
"o. c #92BF7B",
"O. c #82C162",
"+. c #8BC26D",
"@. c #8CCA6C",
"#. c #95D666",
"$. c #97D26D",
"%. c #95C574",
"&. c #97CC7A",
"*. c #94D170",
"=. c #9FD37F",
"-. c #A5DE7F",
";. c gray53",
":. c gray54",
">. c #8E8E8E",
",. c #909A8A",
"<. c #939792",
"1. c #959595",
"2. c #9F9F9F",
"3. c #8AA280",
"4. c #8DA283",
"5. c #A3AD9C",
"6. c gray64",
"7. c #A7A7A7",
"8. c #AAAAAA",
"9. c #AAB4A5",
"0. c #9BC982",
"q. c #A4DB82",
"w. c #ACDE89",
"e. c #ADDC8F",
"r. c #B1D99A",
"t. c #B5DE9A",
"y. c #BEC7B9",
"u. c gray77",
"i. c #CAD3C5",
"p. c #CDD5C7",
"a. c #D3DBCE",
"s. c #D0D0D0",
"d. c gray83",
"f. c #DADADA",
"g. c #DFDFDF",
"h. c gray88",
"j. c gray92",
"k. c #ECECEC",
/* pixels */
"                          X * 2.8.O         ",
"                          . o < ;.+         ",
"              2 3   @ >.  :.1.6.d.h.u.7.    ",
"              h     #           g.k.f.u.    ",
"            g u     *           s.j.        ",
"          a x 7     ;                       ",
"        i b N       1                       ",
"      5 V n N       ,                       ",
"      B M F c       0                       ",
"    l S G I J C v k j                       ",
"  p K U R R E T H D A                       ",
"  4 8 r z / ^ R Y d ..                      ",
"          [ ) ! P                           ",
"        y { ' `     >                       ",
"        m _ ] f     :                       ",
"        L ( Z       -                       ",
"        Q W         =  .q X.o.0.r.t.%.      ",
"      6 ~           % 3.w O.@.*.q.-.#.}     ",
"      s t           $ 4.e +.&.=.e.w.$.|     ",
"      9             & <.,.9.y.i.a.p.5.      ",
"                                            ",
"                                            "
};
