/* XPM */
static char *battery_plugged4[] = {
/* columns rows colors chars-per-pixel */
"22 22 178 2 ",
"   c None",
".  c gray18",
"X  c #323232",
"o  c #505050",
"O  c gray33",
"+  c gray36",
"@  c gray38",
"#  c #676767",
"$  c #6C6A6E",
"%  c #6E6B6F",
"&  c #6D6C6D",
"*  c #6F6F6F",
"=  c #706E71",
"-  c gray45",
";  c #777777",
":  c #7C7273",
">  c #777478",
",  c #757778",
"<  c gray47",
"1  c #797979",
"2  c #A85809",
"3  c #AD5A09",
"4  c #AA6407",
"5  c #B66409",
"6  c #B46B08",
"7  c #BC7107",
"8  c #B97406",
"9  c #D57B09",
"0  c #499B30",
"q  c #4FAA31",
"w  c #51A236",
"e  c #57A938",
"r  c #5EB13B",
"t  c #5CB33C",
"y  c #5A9F40",
"u  c #66BC42",
"i  c #6DAE53",
"p  c #71A35B",
"a  c #73B852",
"s  c #79B95D",
"d  c #7BB85C",
"f  c #7C9373",
"g  c #799572",
"h  c #7C9972",
"j  c #6EC647",
"k  c #CA8606",
"l  c #CF8607",
"z  c #CB8F05",
"x  c #DC8A07",
"c  c #D78208",
"v  c #D99C12",
"b  c #E69307",
"n  c #E79507",
"m  c #E69706",
"M  c #E29F00",
"N  c #E29A07",
"B  c #ED9D05",
"V  c #F39907",
"C  c #E3A002",
"Z  c #EEA604",
"A  c #E4A804",
"S  c #ECAD02",
"D  c #E8AA04",
"F  c #EEB103",
"G  c #ECB302",
"H  c #ECB701",
"J  c #ECB004",
"K  c #EEBE00",
"L  c #F2B303",
"P  c #F4B702",
"I  c #F2BA02",
"U  c #F4BD02",
"Y  c #FABD04",
"T  c #DEAE38",
"R  c #EFC200",
"E  c #F0C000",
"W  c #F1C200",
"Q  c #F1C400",
"!  c #F1C500",
"~  c #F3C600",
"^  c #F5C700",
"/  c #FAC303",
"(  c #FCC502",
")  c #F3C900",
"_  c #F5C900",
"`  c #F4CA00",
"'  c #F5CC00",
"]  c #F6CE00",
"[  c #F7CF00",
"{  c #FECB02",
"}  c #FDCD01",
"|  c #F8D300",
" . c #FFD100",
".. c #F9D400",
"X. c #FAD400",
"o. c #FAD800",
"O. c #FCD800",
"+. c #FDD900",
"@. c #FFD800",
"#. c #FDDA00",
"$. c #FFDE00",
"%. c #FFDF00",
"&. c #FFE000",
"*. c #B28952",
"=. c #809173",
"-. c #839378",
";. c #86977F",
":. c #A88C7D",
">. c #85B370",
",. c #92BF7B",
"<. c #87CD5D",
"1. c #8AD759",
"2. c #82C162",
"3. c #82C463",
"4. c #8EC967",
"5. c #8BC26D",
"6. c #8CCA6C",
"7. c #95D666",
"8. c #97D26D",
"9. c #95C474",
"0. c #97CC7A",
"q. c #94D170",
"w. c #9FD37F",
"e. c #99D67C",
"r. c #9ADC7A",
"t. c #A5DE7F",
"y. c #A3E37F",
"u. c gray53",
"i. c gray54",
"p. c #8E8E8E",
"a. c #909A8A",
"s. c #939792",
"d. c #959595",
"f. c #9F9F9F",
"g. c #8AA280",
"h. c #8DA283",
"j. c #A3AD9C",
"k. c #B3BE9A",
"l. c gray64",
"z. c #A7A7A7",
"x. c #AAAAAA",
"c. c #AAB4A5",
"v. c #9BC982",
"b. c #A4DB82",
"n. c #ACDE89",
"m. c #ADDC8F",
"M. c #ADDE94",
"N. c #B2DA9A",
"B. c #B5DE9B",
"V. c #A8E389",
"C. c #B6E69A",
"Z. c #B4C0A0",
"A. c #B9C5A0",
"S. c #BBC7A2",
"D. c #BEC7B9",
"F. c #C0CDA5",
"G. c #C2CFA7",
"H. c #C9D7AC",
"J. c #CBDAAE",
"K. c #CED9B7",
"L. c #CFDAB8",
"P. c gray77",
"I. c #CAD3C5",
"U. c #CDD5C7",
"Y. c #D3DBCE",
"T. c #D0D0D0",
"R. c gray83",
"E. c #DADADA",
"W. c #DFDFDF",
"Q. c #E2EBD0",
"!. c #E3EBD0",
"~. c #E8F0D7",
"^. c #E8F0D8",
"/. c gray88",
"(. c gray92",
"). c #ECECEC",
"_. c #F8FBF0",
"`. c #FFFFFD",
/* pixels */
"                          X * f.x.O         ",
"                          . o < u.+         ",
"              2 3   @ p.  i.d.l.R./.P.z.    ",
"              V     #           W.).E.P.    ",
"            B x     *           T.(.        ",
"          n S 7     ;                       ",
"        c G L       1                       ",
"      5 I H L       ,             `.        ",
"      P K W D       :   k.A.F.H.Q.^.K.      ",
"    Z R Q ) ~ U F C v *.Z.S.G.J.!.~.L.      ",
"  b ^ _ ] ] [ ' ! E T             _.        ",
"  4 8 k A X...] ` M :.                      ",
"          %.O.| (     g 0 w e r e.V.<.      ",
"        z &.#.@.      h q t u j r.y.1.      ",
"        J +.$.N     > f y i s 3.M.C.4.      ",
"        / o.Y       -                       ",
"        } {         = ;.p >.,.v.N.B.9.      ",
"      6  .          % g.a 2.6.q.b.t.7.=.    ",
"      m l           $ h.d 5.0.w.m.n.8.-.    ",
"      9             & s.a.c.D.I.Y.U.j.      ",
"                                            ",
"                                            "
};
