/* XPM */
static char *battery_plugged6[] = {
/* columns rows colors chars-per-pixel */
"22 22 206 2 ",
"   c None",
".  c gray18",
"X  c #313131",
"o  c #3C7328",
"O  c #3D722C",
"+  c #3F7231",
"@  c #3C7133",
"#  c gray31",
"$  c gray35",
"%  c #5D5D5D",
"&  c #5D5E5E",
"*  c #5B7450",
"=  c #63775A",
"-  c #636163",
";  c #686669",
":  c #6A676B",
">  c #696869",
",  c #6C6A6D",
"<  c gray43",
"1  c #6F6F6F",
"2  c #727375",
"3  c #747374",
"4  c #777777",
"5  c #A85809",
"6  c #AD5A09",
"7  c #AA6407",
"8  c #B66409",
"9  c #B46B08",
"0  c #BC7107",
"q  c #B97406",
"w  c #8F7F33",
"e  c #D57B09",
"r  c #399727",
"t  c #3E912F",
"y  c #3C972D",
"u  c #3D9B2B",
"i  c #3E9D2F",
"p  c #409031",
"a  c #419731",
"s  c #459235",
"d  c #499A30",
"f  c #4A9C38",
"g  c #43A02E",
"h  c #45A42E",
"j  c #48A630",
"k  c #49A930",
"l  c #4FA931",
"z  c #4FAE32",
"x  c #51A236",
"c  c #57A838",
"v  c #51B333",
"b  c #57B935",
"n  c #5DB03A",
"m  c #5CB33C",
"M  c #599E40",
"N  c #65BC42",
"B  c #6DAE53",
"V  c #71A25B",
"C  c #72B852",
"Z  c #7AB75B",
"A  c #79B95C",
"S  c #698F61",
"D  c #738A6E",
"F  c #7A936F",
"G  c #73996C",
"H  c #7B9576",
"J  c #7F9577",
"K  c #7D9776",
"L  c #7F9B76",
"P  c #7AA174",
"I  c #6DC546",
"U  c #7DCD55",
"Y  c #7DC35F",
"T  c #CA8606",
"R  c #CF8607",
"E  c #CB8F05",
"W  c #DC8A07",
"Q  c #D78208",
"!  c #DD9D16",
"~  c #E69307",
"^  c #E79507",
"/  c #E69706",
"(  c #E29F00",
")  c #E29A07",
"_  c #ED9D05",
"`  c #F39907",
"'  c #E3A002",
"]  c #EEA604",
"[  c #E4A804",
"{  c #ECAD02",
"}  c #E8AA04",
"|  c #EEB103",
" . c #ECB302",
".. c #ECB701",
"X. c #ECB004",
"o. c #EEBE00",
"O. c #F2B303",
"+. c #F4B702",
"@. c #F2BA02",
"#. c #F4BD02",
"$. c #FABD04",
"%. c #E0AF3A",
"&. c #EFC200",
"*. c #F0C000",
"=. c #F1C200",
"-. c #F1C400",
";. c #F1C500",
":. c #F3C600",
">. c #F5C700",
",. c #FAC303",
"<. c #FCC502",
"1. c #F3C900",
"2. c #F5C900",
"3. c #F4CA00",
"4. c #F5CC00",
"5. c #F6CE00",
"6. c #F7CF00",
"7. c #FECB02",
"8. c #FDCD01",
"9. c #F8D300",
"0. c #FFD100",
"q. c #F9D400",
"w. c #FAD400",
"e. c #FAD800",
"r. c #FCD800",
"t. c #FDD900",
"y. c #FFD800",
"u. c #FDDA00",
"i. c #FFDE00",
"p. c #FFDF00",
"a. c #FFE000",
"s. c #808B7D",
"d. c #809371",
"f. c #839577",
"g. c #A48878",
"h. c #85B36F",
"j. c #85BF6C",
"k. c #87AC7F",
"l. c #8BB874",
"z. c #92BF7B",
"x. c #80D156",
"c. c #8DDA5D",
"v. c #82C162",
"b. c #82C462",
"n. c #8BC26D",
"m. c #85CD6B",
"M. c #8CCA6B",
"N. c #91CD6A",
"B. c #8AD161",
"V. c #87D06B",
"C. c #96D867",
"Z. c #98D36E",
"A. c #8ECA7C",
"S. c #97C676",
"D. c #97CC79",
"F. c #93D170",
"G. c #93D777",
"H. c #94D876",
"J. c #97D57A",
"K. c #9FD37F",
"L. c #99DB78",
"P. c #888888",
"I. c #8F8E8F",
"U. c #889881",
"Y. c #8F9989",
"T. c #979397",
"R. c #959893",
"E. c gray62",
"W. c #8CA282",
"Q. c #8FA385",
"!. c #A5AF9E",
"~. c #A4A1A5",
"^. c gray66",
"/. c #AAAAAA",
"(. c #AAB3A4",
"). c #9BC882",
"_. c #96C889",
"`. c #9FD48D",
"'. c #A4DA82",
"]. c #A6DE80",
"[. c #ADDE8A",
"{. c #ADDC8E",
"}. c #A6CD96",
"|. c #ACDD92",
" X c #A9D49B",
".X c #B1D999",
"XX c #B6DF9B",
"oX c #A3E280",
"OX c #A9E38A",
"+X c #B6E69B",
"@X c #B6C9AF",
"#X c #BCCCB7",
"$X c #BEC7B9",
"%X c #BFC6BC",
"&X c #C1D7BB",
"*X c #C2D8B9",
"=X c #CCEFBB",
"-X c #C7C5C8",
";X c #CAD3C5",
":X c #CED6C8",
">X c #D3DBCE",
",X c #D5D3D6",
"<X c #D2E3CC",
"1X c #E2E1E3",
"2X c #EBFEE4",
"3X c #F2FEED",
/* pixels */
"                          X < E./.$         ",
"                          . # 4 P.%         ",
"              5 6   & I.    T.~.,X1X-X^.    ",
"              `     - s.S G P k.&X<X*X%X    ",
"            _ W       D s p t f _. Xj.=     ",
"          ^ { 0       H a y u h A.`.Y *     ",
"        Q  .O.      3           #X3X        ",
"      8 @...O.      2           @X2X        ",
"      +.o.=.}         F r g k v m.G.U       ",
"    ] &.-.1.:.#.| ' ! w i j z b V.H.x.      ",
"  ~ >.2.5.5.6.4.;.*.%.  @ + O o }.=Xl.      ",
"  7 q T [ w.q.5.3.( g.                      ",
"          p.r.9.<.    K d x c n J.OXB.      ",
"        E a.u.y.      L l m N I L.oXc.      ",
"        X.t.i.)       J M B A b.|.+XN.      ",
"        ,.e.$.      1                       ",
"        8.7.        , U.V h.z.)..XXXS.      ",
"      9 0.          : W.C v.M.F.'.].C.d.    ",
"      / R           ; Q.Z n.D.K.{.[.Z.f.    ",
"      e             > R.Y.(.$X;X>X:X!.      ",
"                                            ",
"                                            "
};
