/* XPM */
static char *battery_plugged5[] = {
/* columns rows colors chars-per-pixel */
"16 16 104 2 ",
"   c None",
".  c #2C6022",
"X  c #36672E",
"o  c #3C792A",
"O  c #3C7A31",
"+  c #6B794C",
"@  c #606060",
"#  c #666E62",
"$  c #6C6C6C",
"%  c #737074",
"&  c #787977",
"*  c #A46007",
"=  c #A77004",
"-  c #BC7506",
";  c #9C7036",
":  c #CB7F07",
">  c #A17D59",
",  c #3A9729",
"<  c #3D972D",
"1  c #3DA42B",
"2  c #50AF31",
"3  c #4BB030",
"4  c #5EBA3B",
"5  c #558349",
"6  c #5E9749",
"7  c #749149",
"8  c #5EAE4B",
"9  c #63A44B",
"0  c #79B65F",
"q  c #78BC58",
"w  c #6C9464",
"e  c #75986E",
"r  c #78986D",
"t  c #7D8279",
"y  c #74A267",
"u  c #7EAC65",
"i  c #79B560",
"p  c #7EA178",
"a  c #65C345",
"s  c #74C14D",
"d  c #77CB51",
"f  c #CD8E06",
"g  c #D18407",
"h  c #E08409",
"j  c #E49406",
"k  c #D6A104",
"l  c #E3AE03",
"z  c #F5AE04",
"x  c #EDB500",
"c  c #EFB504",
"v  c #F2B603",
"b  c #F6BB02",
"n  c #F0BD01",
"m  c #F6BD01",
"M  c #F8B803",
"N  c #EBB221",
"B  c #F4C102",
"V  c #F1C400",
"C  c #F6CD00",
"Z  c #F6CF00",
"A  c #FCC900",
"S  c #FFC802",
"D  c #FBCE00",
"F  c #F7D100",
"G  c #FCD000",
"H  c #FFD301",
"J  c gold",
"K  c #FDD900",
"L  c #FFE100",
"P  c #FFE300",
"I  c #86B966",
"U  c #89BE6D",
"Y  c #83A474",
"T  c #87A978",
"R  c #81CA55",
"E  c #8AC86A",
"W  c #91CC67",
"Q  c #92CB77",
"!  c #9ACA78",
"~  c #90D773",
"^  c #98D376",
"/  c #A1E27F",
"(  c #859581",
")  c #9B989B",
"_  c #9A9A9A",
"`  c #999C98",
"'  c #9C9D9B",
"]  c #90AB82",
"[  c #9EBB98",
"{  c #A9AAA7",
"}  c #AAABA8",
"|  c #B0AEB0",
" . c #9FCE84",
".. c #A3D492",
"X. c #ADDA91",
"o. c #A8E084",
"O. c #B8E49A",
"+. c #BCE8A4",
"@. c #C2EBAF",
"#. c #CBDDC4",
"$. c #D5F0CC",
"%. c #D8E9D3",
"&. c #E0F8D7",
"*. c #ECFCE4",
/* pixels */
"                    @ ) $       ",
"                    % ) |       ",
"          h     ( e p [ %.#.`   ",
"        j -     w < , 8 ..i #   ",
"      : M         X . 5 $.Y     ",
"    * m v               &.      ",
"    b V n =   ; 7 1 3 a ~ s     ",
"  z D C C G A N + O o 6 @.u     ",
"      l K F x >         *.      ",
"      k L J     y 2 4 d / R     ",
"      B L f     r 9 0 Q +.I     ",
"      J c                       ",
"      S         T q E ^ o.W     ",
"    g           ] E  .X.O.! t   ",
"                &   ' } }       ",
"                                "
};
