/* XPM */
static char *battery1[] = {
/* columns rows colors chars-per-pixel */
"16 16 53 1 ",
"  c None",
". c #181818",
"X c gray30",
"o c gray36",
"O c gray37",
"+ c gray42",
"@ c gray46",
"# c #777777",
"$ c gray48",
"% c gray49",
"& c gray56",
"* c #929292",
"= c #929293",
"- c #969695",
"; c #979797",
": c #979698",
"> c #989798",
", c gray60",
"< c gray61",
"1 c gray62",
"2 c #99A08B",
"3 c #A3A3A2",
"4 c #A5A5A5",
"5 c #A6A6A5",
"6 c gray65",
"7 c #A7A7A7",
"8 c gray66",
"9 c #A9A9A9",
"0 c gray67",
"q c #B0B6A2",
"w c #B4BCA2",
"e c #B2B2B2",
"r c #B4B4B4",
"t c #BBC3AB",
"y c #BBC1AF",
"u c #C3CBB3",
"i c #C6CCBA",
"p c #CAD1B9",
"a c #CED5BD",
"s c #CFD7BD",
"d c #C5C5C5",
"f c #CED4C0",
"g c #CFD4C3",
"h c #D4D9C7",
"j c #D8DFCA",
"k c #D8DECB",
"l c gray83",
"z c #DBE0D0",
"x c #DCE0D2",
"c c #E6E6E6",
"v c gray91",
"b c #EAEAEA",
"n c gray94",
/* pixels */
"     .X$-,o     ",
"     o+%&e8     ",
"  *      cnbdr  ",
"  <      lb  $  ",
"  6             ",
"  6             ",
"  6             ",
"  6             ",
"  6             ",
"  8             ",
"  6             ",
"  <             ",
"  : wtupsjjs2   ",
"  > qyighxzf =  ",
"  #   -3706  #  ",
"                "
};
