/* XPM */
static char *battery_plugged4[] = {
/* columns rows colors chars-per-pixel */
"16 16 98 2 ",
"   c None",
".  c #3C7929",
"X  c #3C7A31",
"o  c #6A784A",
"O  c #626262",
"+  c DimGray",
"@  c #6F6F70",
"#  c #777877",
"$  c #A46007",
"%  c #A77004",
"&  c #BC7506",
"*  c #9D7238",
"=  c #CB7F07",
"-  c #3EA52B",
";  c #51AF31",
":  c #4CB130",
">  c #5FBA3B",
",  c #5F984A",
"<  c #739147",
"1  c #64A44C",
"2  c #71BD4C",
"3  c #79B65F",
"4  c #79BC59",
"5  c #77976B",
"6  c #72A165",
"7  c #7AA762",
"8  c #66C346",
"9  c #7EC552",
"0  c #78CC52",
"q  c #CD8E06",
"w  c #D18407",
"e  c #E08409",
"r  c #E49406",
"t  c #D6A104",
"y  c #E3AE03",
"u  c #F5AE04",
"i  c #EDB400",
"p  c #EFB504",
"a  c #F2B603",
"s  c #F6BB02",
"d  c #F0BD01",
"f  c #F6BD01",
"g  c #F8B803",
"h  c #EBB220",
"j  c #F4C102",
"k  c #F1C400",
"l  c #F6CD00",
"z  c #F6CF00",
"x  c #FCC900",
"c  c #FFC802",
"v  c #FBCE00",
"b  c #F7D100",
"n  c #FCD000",
"m  c #FFD301",
"M  c gold",
"N  c #FDD900",
"B  c #FFE100",
"V  c #FFE300",
"C  c #A3805C",
"Z  c #83B564",
"A  c #8ABF6E",
"S  c #86A976",
"D  c #8AC86A",
"F  c #90CA67",
"G  c #93CC78",
"H  c #99C878",
"J  c #91D773",
"K  c #99D477",
"L  c #A2E37F",
"P  c #9A9F8F",
"I  c #969891",
"U  c #989899",
"Y  c gray60",
"T  c #9A9A9A",
"R  c #9C9E9B",
"E  c #8FAB81",
"W  c #9FA396",
"Q  c #ABB693",
"!  c #B0BA98",
"~  c #ABAFA3",
"^  c #A8AAA7",
"/  c #AAABA9",
"(  c #ADADAE",
")  c #B6BCA7",
"_  c #9FCE84",
"`  c #AEDA92",
"'  c #A8E084",
"]  c #B8E49A",
"[  c #BDE8A4",
"{  c #C4CDB0",
"}  c #C5C8BF",
"|  c #C2ECB0",
" . c #DDF8D3",
".. c #E0E1DC",
"X. c #E5EADB",
"o. c #EDFDE5",
"O. c #EFF0EC",
"+. c #FEFEF9",
/* pixels */
"                    O Y +       ",
"                    @ Y (       ",
"          e     I W ~ } O...Y   ",
"        r &     P Q ! { X.)     ",
"      = g               +.      ",
"    $ f a                .      ",
"    s k d %   * < - : 8 J 2     ",
"  u v l l n x h o X . , | 7     ",
"      y N b i C         o.      ",
"      t B M     6 ; > 0 ' 9     ",
"      j B q     5 1 3 G [ Z     ",
"      m p                       ",
"      c         S 4 D K ' F     ",
"    w           E A _ ` ] H     ",
"                #   W / ^       ",
"                                "
};
