/* XPM */
static char *battery5[] = {
/* columns rows colors chars-per-pixel */
"16 16 122 2 ",
"   c None",
".  c #181818",
"X  c #2E5D24",
"o  c #316025",
"O  c #316029",
"+  c #3E772B",
"@  c #3F772F",
"#  c #386530",
"$  c #3E6A36",
"%  c #3E7732",
"&  c #427B2D",
"*  c #407832",
"=  c gray30",
"-  c #5D595D",
";  c gray37",
":  c #6D696D",
">  c gray46",
",  c #777777",
"<  c #7B7A7B",
"1  c #3A952B",
"2  c #3C9F29",
"3  c #3F9630",
"4  c #409C2D",
"5  c #548036",
"6  c #568E3C",
"7  c #459934",
"8  c #549930",
"9  c #5D9E33",
"0  c #44A62E",
"q  c #4EAB30",
"w  c #4AAD31",
"e  c #4EA739",
"r  c #51B633",
"t  c #56B036",
"y  c #5DB83B",
"u  c #5CC139",
"i  c #64C03F",
"p  c #5A9944",
"a  c #63805D",
"s  c #65885F",
"d  c #6BA754",
"f  c #7AAD55",
"g  c #71B651",
"h  c #77B25E",
"j  c #7DBD5E",
"k  c #6C8C62",
"l  c #72946A",
"z  c #7C8779",
"x  c #7E9774",
"c  c #789A71",
"v  c #7C9F76",
"b  c #7FB664",
"n  c #6DC944",
"m  c #879B7E",
"M  c #81A964",
"N  c #80BB65",
"B  c #83A67D",
"V  c #87C567",
"C  c #8AC56D",
"Z  c #8ECC6D",
"A  c #89D962",
"S  c #89D16E",
"D  c #8ED56F",
"F  c #8EC074",
"G  c #90CC78",
"H  c #94D270",
"J  c #9FDE72",
"K  c #9ADC7A",
"L  c #99E46C",
"P  c #9EE07B",
"I  c #7F7C80",
"U  c #928F93",
"Y  c #929192",
"T  c #949693",
"R  c #939294",
"E  c #979797",
"W  c #9A979B",
"Q  c gray60",
"!  c #9B989C",
"~  c #9E9E9F",
"^  c #91B289",
"/  c #A2A3A1",
"(  c #A4A6A3",
")  c #A4A2A5",
"_  c #A6A2A7",
"`  c #A7A2A7",
"'  c #A6A4A7",
"]  c #A6A5A7",
"[  c #A7A5A7",
"{  c #A7A8A6",
"}  c #AAACA9",
"|  c #ACAAAC",
" . c #B4B2B5",
".. c #B5B4B5",
"X. c #9BCA80",
"o. c #99CD8A",
"O. c #9FD18E",
"+. c #A6DE81",
"@. c #A5DB85",
"#. c #AADB86",
"$. c #A5D38A",
"%. c #AADD8B",
"&. c #AAD98E",
"*. c #AEDC97",
"=. c #AAD39A",
"-. c #B5DF9F",
";. c #B7E298",
":. c #B8E19E",
">. c #BCDCAF",
",. c #B8CAB1",
"<. c #B8D3B0",
"1. c #BBD5B2",
"2. c #BAE5A2",
"3. c #C4D6BC",
"4. c #C1EAAF",
"5. c #C5E1B8",
"6. c #CCDFC7",
"7. c #D0E4C9",
"8. c #D3EECA",
"9. c #D7E8D2",
"0. c #DBF4D1",
"q. c #E8F9E0",
/* pixels */
"          . = , E Q ;           ",
"          - : I U  .|           ",
"    Y z l c v B ^ 6.9.7.,...    ",
"    ! a 7 3 1 4 e o.O.G 6 <     ",
"    '   $ # O X o <.8.>.        ",
"    '             1.0.5.        ",
"    ` s 2 0 w r u S D A 8       ",
"    '   % * & + & =.4.*.        ",
"    '             3.q.          ",
"    ' k q t y g n K P L 9       ",
"    '   p d b N C >.;.%.5       ",
"    ~                           ",
"    Q x g j V Z H @.#.L f       ",
"    W m N F G $.&.:.;.#.M T     ",
"    ,       T / { } '     >     ",
"                                "
};
