/* XPM */
static char *battery_plugged5[] = {
/* columns rows colors chars-per-pixel */
"22 22 206 2 ",
"   c None",
".  c gray18",
"X  c #323232",
"o  c #3D7329",
"O  c #3D722C",
"+  c #3F7231",
"@  c #3D7133",
"#  c #505050",
"$  c gray33",
"%  c gray36",
"&  c #616162",
"*  c #656565",
"=  c #6A6A6B",
"-  c #6C6A6E",
";  c #6E6B6F",
":  c #6D6C6D",
">  c #6F6F6F",
",  c #706E71",
"<  c #727273",
"1  c gray45",
"2  c #777478",
"3  c #777778",
"4  c #77777A",
"5  c gray47",
"6  c #A85809",
"7  c #AD5A09",
"8  c #AA6407",
"9  c #B66409",
"0  c #B46B08",
"q  c #BC7107",
"w  c #B97406",
"e  c #8D7F31",
"r  c #D57B09",
"t  c #817477",
"y  c #399827",
"u  c #3E9E2F",
"i  c #499B30",
"p  c #43A12E",
"a  c #48A630",
"s  c #49A930",
"d  c #4FAA31",
"f  c #4FAF32",
"g  c #51A236",
"h  c #57A938",
"j  c #52B434",
"k  c #58B936",
"l  c #5EB13B",
"z  c #5CB33C",
"x  c #5A9F40",
"c  c #66BC42",
"v  c #6DAE53",
"b  c #71A35B",
"n  c #73B852",
"m  c #79B95D",
"M  c #7BB85C",
"N  c #77916B",
"B  c #7C9373",
"V  c #799572",
"C  c #7C9972",
"Z  c #6EC647",
"A  c #7ACA52",
"S  c #7DCE53",
"D  c #CA8606",
"F  c #CF8607",
"G  c #CB8F05",
"H  c #DC8A07",
"J  c #D78208",
"K  c #DE9D17",
"L  c #E69307",
"P  c #E79507",
"I  c #E69706",
"U  c #E29F00",
"Y  c #E29A07",
"T  c #ED9D05",
"R  c #F39907",
"E  c #E3A002",
"W  c #EEA604",
"Q  c #E4A804",
"!  c #ECAD02",
"~  c #E8AA04",
"^  c #EEB103",
"/  c #ECB302",
"(  c #ECB701",
")  c #ECB004",
"_  c #EEBE00",
"`  c #F2B303",
"'  c #F4B702",
"]  c #F2BA02",
"[  c #F4BD02",
"{  c #FABD04",
"}  c #E0AF3A",
"|  c #EFC200",
" . c #F0C000",
".. c #F1C200",
"X. c #F1C400",
"o. c #F1C500",
"O. c #F3C600",
"+. c #F5C700",
"@. c #FAC303",
"#. c #FCC502",
"$. c #F3C900",
"%. c #F5C900",
"&. c #F4CA00",
"*. c #F5CC00",
"=. c #F6CE00",
"-. c #F7CF00",
";. c #FECB02",
":. c #FDCD01",
">. c #F8D300",
",. c #FFD100",
"<. c #F9D400",
"1. c #FAD400",
"2. c #FAD800",
"3. c #FCD800",
"4. c #FDD900",
"5. c #FFD800",
"6. c #FDDA00",
"7. c #FFDE00",
"8. c #FFDF00",
"9. c #FFE000",
"0. c #809173",
"q. c #839378",
"w. c #86977F",
"e. c #A88C7C",
"r. c #87B36F",
"t. c #85B370",
"y. c #92BF7B",
"u. c #87CD5D",
"i. c #8AD759",
"p. c #82C162",
"a. c #82C463",
"s. c #8EC967",
"d. c #8BC26D",
"f. c #87CE6D",
"g. c #8CCA6C",
"h. c #89D16D",
"j. c #95D666",
"k. c #97D26D",
"l. c #95C474",
"z. c #97CC7A",
"x. c #94D170",
"c. c #93D776",
"v. c #94D876",
"b. c #9FD37F",
"n. c #99D67C",
"m. c #9ADC7A",
"M. c #A5DE7F",
"N. c #A3E37F",
"B. c gray53",
"V. c #8B8C87",
"C. c #878788",
"Z. c #8D8D8D",
"A. c #909A8A",
"S. c #94998B",
"D. c #939792",
"F. c #939394",
"G. c #9F9F9F",
"H. c #8AA280",
"J. c #8DA283",
"K. c #9EA88A",
"L. c #A2AC8E",
"P. c #A2A698",
"I. c #A3AD9C",
"U. c #A8B193",
"Y. c #AEB896",
"T. c #B2BD9A",
"R. c #B0B99C",
"E. c #A1A1A2",
"W. c #A7A7A7",
"Q. c #AAAAAA",
"!. c #ADB1A4",
"~. c #AAB4A5",
"^. c #B8BCB0",
"/. c #9BC982",
"(. c #A4DB82",
"). c #ACDE89",
"_. c #ADDC8F",
"`. c #A8CF98",
"'. c #B6C19C",
"]. c #ADDE94",
"[. c #B2DA9A",
"{. c #B5DE9B",
"}. c #A8E389",
"|. c #B6E69A",
" X c #BCC8A1",
".X c #B5CAAE",
"XX c #BEC7B9",
"oX c #C0C7B2",
"OX c #C5CDB3",
"+X c #CBEFBB",
"@X c #C4C3C4",
"#X c #C5C6C4",
"$X c #CAD3C5",
"%X c #CDD5C7",
"&X c #D3DBCE",
"*X c #DADFCF",
"=X c gray83",
"-X c #DBDDD6",
";X c #DEE5D1",
":X c #E2E6DA",
">X c #E0E2DC",
",X c #E5EADA",
"<X c gray88",
"1X c #E9EBE6",
"2X c #E9FDE1",
"3X c white",
/* pixels */
"                          X > G.Q.$         ",
"                          . # 5 B.%         ",
"              6 7   & Z.  C.F.E.=X<X@XW.    ",
"              R     * V.S.P.!.^.>X1X-X#X    ",
"            T H     =   K.L.U.R.*X:XoX      ",
"          P ! q     <   Y.T.'. X;X,XOX      ",
"        J / `       3             3X        ",
"      9 ] ( `       4           .X2X        ",
"      ' _ ..~       t N y p s j f.c.A       ",
"    W | X.$.O.[ ^ E K e u a f k h.v.S       ",
"  L +.%.=.=.-.*.o. .}   @ + O o `.+Xr.      ",
"  8 w D Q 1.<.=.&.U e.                      ",
"          8.3.>.#.    V i g h l n.}.u.      ",
"        G 9.6.5.      C d z c Z m.N.i.      ",
"        ) 4.7.Y     2 B x v m a.].|.s.      ",
"        @.2.{       1                       ",
"        :.;.        , w.b t.y./.[.{.l.      ",
"      0 ,.          ; H.n p.g.x.(.M.j.0.    ",
"      I F           - J.M d.z.b._.).k.q.    ",
"      r             : D.A.~.XX$X&X%XI.      ",
"                                            ",
"                                            "
};
