/* XPM */
static char *battery_plugged2[] = {
/* columns rows colors chars-per-pixel */
"16 16 73 1 ",
"  c None",
". c #626262",
"X c DimGray",
"o c #727272",
"O c #777877",
"+ c #A46007",
"@ c #A77004",
"# c #BC7506",
"$ c #9D7737",
"% c #CB7F07",
"& c #A27F5A",
"* c #79BC58",
"= c #CD8E06",
"- c #D18407",
"; c #E08409",
": c #E49406",
"> c #D6A104",
", c #E3AE03",
"< c #F5AE04",
"1 c #EDB400",
"2 c #EFB504",
"3 c #F2B603",
"4 c #F6BB02",
"5 c #F0BD01",
"6 c #F6BD01",
"7 c #F8B803",
"8 c #EBB520",
"9 c #F4C102",
"0 c #F1C400",
"q c #F6CD00",
"w c #F6CF00",
"e c #FCC900",
"r c #FFC802",
"t c #FBCE00",
"y c #F7D100",
"u c #FCD000",
"i c #FFD301",
"p c gold",
"a c #FDD900",
"s c #FFE100",
"d c #FFE300",
"f c #8ABF6E",
"g c #86A976",
"h c #8AC86A",
"j c #90CA67",
"k c #99C878",
"l c #98D376",
"z c #989898",
"x c gray60",
"c c #9A9A9A",
"v c #9C9E9B",
"b c #8FAB81",
"n c #A6AC9B",
"m c #ABB29B",
"M c #A8AAA7",
"N c #AAABA9",
"B c gray68",
"V c gray74",
"C c #9FCE84",
"Z c #AEDA92",
"A c #A8E084",
"S c #B8E49A",
"D c #B9C6A0",
"F c #BDC4AC",
"G c #BEC8A9",
"H c #C3D0A9",
"J c #D5E1BD",
"K c #D1D7C2",
"L c #DDDDDD",
"P c #ECF4DC",
"I c #EEF2E4",
"U c gray94",
"Y c #F1F1F1",
/* pixels */
"          .xX   ",
"          oxB   ",
"     ;     VYLx ",
"    :#      Y   ",
"   %7           ",
"  +63           ",
"  405@ $        ",
" <tqque8        ",
"   ,ay1&        ",
"   >sp  nDHJPG  ",
"   9s=   mFKI   ",
"   p2           ",
"   r    g*hlAj  ",
"  -     bhCZSk  ",
"        O vNM   ",
"                "
};
