/* XPM */
static char *battery3[] = {
/* columns rows colors chars-per-pixel */
"16 16 93 2 ",
"   c None",
".  c #181818",
"X  c gray30",
"o  c gray36",
"O  c gray37",
"+  c gray42",
"@  c gray46",
"#  c #777777",
"$  c gray48",
"%  c gray49",
"&  c #548036",
"*  c #5D9E33",
"=  c #4EAB30",
"-  c #56B036",
";  c #5DB83B",
":  c #64C03F",
">  c #5A9944",
",  c #6BA754",
"<  c #7AAD55",
"1  c #71B651",
"2  c #77B25E",
"3  c #7DBD5E",
"4  c #6C8C62",
"5  c #7E9774",
"6  c #7FB664",
"7  c #6DC944",
"8  c #879B7E",
"9  c #81A964",
"0  c #80BB65",
"q  c #87C567",
"w  c #8AC56D",
"e  c #8ECC6D",
"r  c #8EC074",
"t  c #94D270",
"y  c #9FDE72",
"u  c #9ADC7A",
"i  c #99E46C",
"p  c #9EE07A",
"a  c gray56",
"s  c #929292",
"d  c #949693",
"f  c #939294",
"g  c #979797",
"h  c #9A979B",
"j  c gray60",
"k  c gray61",
"l  c #9E9E9F",
"z  c #A2A3A1",
"x  c #A1A1A2",
"c  c #A4A6A3",
"v  c #A3A3A4",
"b  c #A4A2A5",
"n  c #A6A2A7",
"m  c #A5A4A5",
"M  c #A6A5A7",
"N  c #A7A7A7",
"B  c #A7A8A6",
"V  c #A9A9A9",
"C  c #AAACA9",
"Z  c #B2B2B2",
"A  c #B4B4B4",
"S  c #9BCA80",
"D  c #A6DE81",
"F  c #A5DB85",
"G  c #AADB86",
"H  c #A5D38A",
"J  c #AADD8B",
"K  c #AAD98E",
"L  c #B5DF9F",
"P  c #B7E298",
"I  c #B8E19E",
"U  c #B9C6A0",
"Y  c #BECAA4",
"T  c #BAE5A2",
"R  c #C4D2A9",
"E  c #CBDAAF",
"W  c #C1D5B8",
"Q  c #D5E4B7",
"!  c #C5C5C5",
"~  c gray83",
"^  c #DDE0D6",
"/  c #E2EDCD",
"(  c #E0E3D7",
")  c #E5EDD3",
"_  c #E7EFD6",
"`  c #E3E6D8",
"'  c #E5F9DC",
"]  c #E6E6E6",
"[  c gray91",
"{  c #EAEAEA",
"}  c #F6F8ED",
"|  c gray94",
" . c #FAFDF4",
/* pixels */
"          . X # g j O           ",
"          O + % a Z V           ",
"    s             ] | { ! A     ",
"    k             ~ {     $     ",
"    m                           ",
"    m             ^  .          ",
"    x   U Y R E Q ) _ /         ",
"    v             ( } `         ",
"    B             W '           ",
"    n 4 = - ; 1 7 u p i *       ",
"    m   > , 6 0 w L T J &       ",
"    l                           ",
"    h 5 1 3 q e t F D y <       ",
"    h 8 0 r r K K I P G 9 f     ",
"    #       d x B C c     @     ",
"                                "
};
