/* XPM */
static char *battery5[] = {
/* columns rows colors chars-per-pixel */
"22 22 215 2 ",
"   c None",
".  c #232323",
"X  c #3E3E3E",
"o  c #37691D",
"O  c #3A6C1E",
"+  c #326420",
"@  c #3A6B2A",
"#  c #3B6B2C",
"$  c #3D6C2F",
"%  c #3F6E33",
"&  c #3F6936",
"*  c #407021",
"=  c #417036",
"-  c gray28",
";  c gray30",
":  c gray33",
">  c #5B5B5B",
",  c gray39",
"<  c #656565",
"1  c #676767",
"2  c #686868",
"3  c #6A6A6A",
"4  c gray42",
"5  c #6C6C6C",
"6  c gray43",
"7  c #6F6F6F",
"8  c gray45",
"9  c #767676",
"0  c gray47",
"q  c #797979",
"w  c #398B2B",
"e  c #3D902D",
"r  c #3E9C2D",
"t  c #419F2E",
"y  c #518D3C",
"u  c #489133",
"i  c #4D9B33",
"p  c #43A12F",
"a  c #45A32F",
"s  c #46A330",
"d  c #4FA135",
"f  c #49A930",
"g  c #4AA831",
"h  c #4EAE32",
"j  c #4EAF32",
"k  c #50A235",
"l  c #53A636",
"z  c #55AD37",
"x  c #58AB38",
"c  c #51B531",
"v  c #53B434",
"b  c #56BA34",
"n  c #59B03A",
"m  c #5CB13B",
"M  c #5EB538",
"N  c #5FB53E",
"B  c #6E9453",
"V  c #689654",
"C  c #72945A",
"Z  c #60A248",
"A  c #64BB42",
"S  c #69A950",
"D  c #6EAB51",
"F  c #74AB5A",
"G  c #71B157",
"H  c #77BA57",
"J  c #79B85D",
"K  c #7EBE5F",
"L  c #76A860",
"P  c #7BA46B",
"I  c #7EBA60",
"U  c #7FBE62",
"Y  c #6AC045",
"T  c #6CC544",
"R  c #75C659",
"E  c #79CA5A",
"W  c #80B069",
"Q  c #85B06E",
"!  c #87BF69",
"~  c #88B771",
"^  c #90BE78",
"/  c #81D657",
"(  c #85DA58",
")  c #91E35E",
"_  c #82C462",
"`  c #85C465",
"'  c #84CC64",
"]  c #8CC96B",
"[  c #91CF69",
"{  c #91CE6F",
"}  c #8EDA61",
"|  c #8BD568",
" . c #8CD36C",
".. c #8ED56C",
"X. c #97DC66",
"o. c #93D26F",
"O. c #98D56C",
"+. c #8FC571",
"@. c #96C972",
"#. c #96C57D",
"$. c #96CB79",
"%. c #9AC97F",
"&. c #90D673",
"*. c #92D773",
"=. c #9CDF75",
"-. c #96D57E",
";. c #9CD07E",
":. c #98D77E",
">. c #9FD47F",
",. c #9FD87D",
"<. c #A1DC77",
"1. c #A0DF7D",
"2. c #A5DE7F",
"3. c #A1E27D",
"4. c #838383",
"5. c gray52",
"6. c #898D80",
"7. c #8B8B8B",
"8. c #8B8B8C",
"9. c gray55",
"0. c #929A80",
"q. c #979C8D",
"w. c #949E8F",
"e. c #929293",
"r. c #959595",
"t. c #9A9A9B",
"y. c #9B9B9B",
"u. c #9FA88B",
"i. c #9EA294",
"p. c #A1AA8C",
"a. c #A3AD8F",
"s. c #A5A99B",
"d. c #A3AC9E",
"f. c #A7B092",
"g. c #ACB597",
"h. c #AFB89A",
"j. c #B0BA98",
"k. c #B0BA99",
"l. c #B2BD9A",
"z. c #A09FA0",
"x. c gray63",
"c. c gray64",
"v. c #A4A3A4",
"b. c gray66",
"n. c #A9A9A9",
"m. c #AEADAF",
"M. c #AFAEAF",
"N. c #ACB0A3",
"B. c #B2B6AA",
"V. c #B0B9AB",
"C. c #B7BBAF",
"Z. c gray69",
"A. c #B1B0B2",
"S. c #B6B5B6",
"D. c #BBBBBB",
"F. c #BDBCBD",
"G. c gray",
"H. c #9FD584",
"J. c #A6DA80",
"K. c #A9D98A",
"L. c #A9DD88",
"P. c #ADDE8A",
"I. c #ACD88D",
"U. c #ADDF8F",
"Y. c #B4C09B",
"T. c #B7C39E",
"R. c #B9C69E",
"E. c #A9D490",
"W. c #B1DE93",
"Q. c #B3DE98",
"!. c #B7DE9E",
"~. c #A4E184",
"^. c #A8E28A",
"/. c #AAE18F",
"(. c #B5E59A",
"). c #BCC4B7",
"_. c #BFC8B9",
"`. c #BBE5A4",
"'. c #C2C9B2",
"]. c #C9D2B5",
"[. c #CBD2BD",
"{. c #D2DABF",
"}. c #C2E6B1",
"|. c #C7EAB7",
" X c #C1C0C1",
".X c #C1C1C1",
"XX c #C2C1C3",
"oX c #C3C1C3",
"OX c #C3C2C3",
"+X c #C3C3C3",
"@X c #C4C6C1",
"#X c #C6CEC1",
"$X c #CAD3C5",
"%X c #CED6C8",
"&X c #D2D5CD",
"*X c #D0D8CB",
"=X c #DADECF",
"-X c #D5DCD0",
";X c #D8DAD2",
":X c gray86",
">X c gray87",
",X c #CDEDC0",
"<X c #DDE2D0",
"1X c #DBF1D1",
"2X c #DCF1D3",
"3X c #E0E4D7",
"4X c #E4E9D8",
"5X c #E6E9DE",
"6X c #E9EDDF",
"7X c #E4F7DD",
"8X c gray89",
"9X c #E5E7E1",
"0X c #E8E9E4",
"qX c #EBECE8",
"wX c white",
/* pixels */
"                ; , 9.x.b.c.4               ",
"              . X - 2 0 5.4.1               ",
"      y.7.      8.e.t.z.OX8X>X:X.Xv.n.:     ",
"      v.  6.q.i.s.N.B.C.&XqX0X9X;X@XF.>     ",
"      Z.  0.p.p.a.f.g.h.[.5X3X=X'.    <     ",
"      G.  u.k.j.l.Y.T.R.{.6X4X<X].    6     ",
"      +X                  wX          9     ",
"      OX                  7X2X1X      q     ",
"      oX  w r t a f j c R -.&. ./ o   q     ",
"      oX  e p s g h v b E :.*...( O   q     ",
"      OX  & = % $ # @ + P ,X|.}.Q     q     ",
"      OX                              q     ",
"      XX  u d k l x m M ' /.~.1.}     q     ",
"      oX  i z n N A Y T | ^.3.=.) *   q     ",
"       X  y Z S G J U _ H.`.(.U.[     9     ",
"      D.                              8     ",
"      S.  V L W ~ ^ #.%.E.!.Q.I.@.    7     ",
"      A.  D H K ` ] { o.,.L.2.<.X.B   5     ",
"      m.  F I ! +.$.;.>.K.W.P.J.O.C   3     ",
"      M.    w.d.V.).#X$X*X-X%X_.    r.3     ",
"                                            ",
"                                            "
};
