/* XPM */
static char *battery1[] = {
/* columns rows colors chars-per-pixel */
"22 22 103 2 ",
"   c None",
".  c #232323",
"X  c #3E3E3E",
"o  c gray28",
"O  c gray30",
"+  c gray33",
"@  c #5B5B5B",
"#  c gray39",
"$  c #656565",
"%  c #676767",
"&  c #686868",
"*  c #6A6A6A",
"=  c gray42",
"-  c #6C6C6C",
";  c gray43",
":  c #6F6F6F",
">  c gray45",
",  c #767676",
"<  c gray47",
"1  c #797979",
"2  c gray50",
"3  c #838383",
"4  c gray52",
"5  c #898989",
"6  c #8B8B8B",
"7  c gray55",
"8  c #8E8E8E",
"9  c #959A89",
"0  c #959595",
"q  c #9B9B9B",
"w  c gray61",
"e  c #A4AA97",
"r  c #A7AE98",
"t  c #A8AE9B",
"y  c gray63",
"u  c gray64",
"i  c #A4A4A4",
"p  c gray66",
"a  c #A9A9A9",
"s  c #ABACA9",
"d  c #ADADAE",
"f  c #AEAEAE",
"g  c #B0B5A3",
"h  c #B3BAA5",
"j  c #B7BEA5",
"k  c #B7BDAB",
"l  c #B0B0B1",
"z  c #B1B1B1",
"x  c gray71",
"c  c #B8B9B6",
"v  c #BBBBBB",
"b  c gray74",
"n  c gray75",
"m  c #BAC0AB",
"M  c #BCC3AB",
"N  c #BAC0AC",
"B  c #BEC4B2",
"V  c #C0C8AF",
"C  c #C0C7B3",
"Z  c #C1C9B1",
"A  c #C5CEB1",
"S  c #C4C9B7",
"D  c #C6CEB7",
"F  c #C7CDB9",
"G  c #C8CDBA",
"H  c #CBD2BB",
"J  c #CCD1BE",
"K  c #CED5BD",
"L  c #CDD4BF",
"P  c #D0D7BF",
"I  c #C1C1C1",
"U  c gray76",
"Y  c #C3C3C3",
"T  c #C3C4C1",
"R  c #C6C7C3",
"E  c #CECECB",
"W  c #CECECE",
"Q  c #CED4C0",
"!  c #D1D6C4",
"~  c #D2D8C7",
"^  c #D4DAC5",
"/  c #D2D2CF",
"(  c #D4D9C8",
")  c #D6DBC9",
"_  c #D7DEC9",
"`  c #D9DFCD",
"'  c #D8DDCE",
"]  c #D4D5D2",
"[  c #D6D7D5",
"{  c gray84",
"}  c #DBDBD9",
"|  c gray86",
" . c #DDDDDD",
".. c gray87",
"X. c #DBE0D0",
"o. c #DDE1D3",
"O. c gray89",
"+. c #E4E4E4",
"@. c #E7E7E7",
"#. c #E9E9E9",
"$. c gray93",
"%. c #F8F8F8",
"&. c white",
/* pixels */
"                O # 7 y p u =               ",
"              . X o & < 4 3 %               ",
"      q 6     5 8 0 w y Y O...| I i a +     ",
"      i                 W $.#.@.{ U b @     ",
"      z                   $.+. .    2 $     ",
"      n                   %.          ;     ",
"      Y                   &.          ,     ",
"      Y                               1     ",
"      Y                               1     ",
"      Y                               1     ",
"      Y                               1     ",
"      Y                               1     ",
"      Y                               1     ",
"      Y                               1     ",
"      I                               ,     ",
"      v                               >     ",
"      x   9 t g k B S G ~ o.X.! m     :     ",
"      l   r j M Z D H K ^ ` _ P A     -     ",
"      d   e h N C F J Q ( ' ) L V     *     ",
"      f       s c T E / [ } ] R     0 *     ",
"                                            ",
"                                            "
};
