/* XPM */
static char *battery6[] = {
/* columns rows colors chars-per-pixel */
"22 22 220 2 ",
"   c None",
".  c #232323",
"X  c #3E3E3E",
"o  c #37691D",
"O  c #3A6C1E",
"+  c #326420",
"@  c #3C6926",
"#  c #3A6B2A",
"$  c #3B6B2C",
"%  c #3D6C2F",
"&  c #3F6E33",
"*  c #3F6936",
"=  c #407021",
"-  c #417036",
";  c #4A7038",
":  c gray28",
">  c gray30",
",  c gray33",
"<  c #5B5B5B",
"1  c gray39",
"2  c #656565",
"3  c #676767",
"4  c #686868",
"5  c #6A6A6A",
"6  c gray42",
"7  c #6C6C6C",
"8  c gray43",
"9  c #6F6F6F",
"0  c gray45",
"q  c #767676",
"w  c gray47",
"e  c #797979",
"r  c #398B2B",
"t  c #3D8F2F",
"y  c #3A962B",
"u  c #3D902D",
"i  c #3D912E",
"p  c #3E972F",
"a  c #3C9A2B",
"s  c #3E9C2D",
"d  c #419F2D",
"f  c #419F2E",
"g  c #468E37",
"h  c #48893A",
"j  c #518D3C",
"k  c #439733",
"l  c #429134",
"z  c #489133",
"x  c #459A35",
"c  c #4D9B33",
"v  c #489C36",
"b  c #489439",
"n  c #43A32A",
"m  c #43A12F",
"M  c #45A32F",
"N  c #46A330",
"B  c #4FA135",
"V  c #49A930",
"C  c #4AA831",
"Z  c #4EAE32",
"A  c #4EAF32",
"S  c #50A235",
"D  c #53A636",
"F  c #55AD37",
"G  c #58AB38",
"H  c #51B531",
"J  c #53B434",
"K  c #56BA34",
"L  c #59B03A",
"P  c #5CB13B",
"I  c #5EB538",
"U  c #5FB53E",
"Y  c #65865D",
"T  c #6E9453",
"R  c #689654",
"E  c #72945A",
"W  c #60A248",
"Q  c #64BB42",
"!  c #69A950",
"~  c #6EAB51",
"^  c #74AB5A",
"/  c #71B157",
"(  c #77BA57",
")  c #79B85D",
"_  c #7EBE5F",
"`  c #6C9264",
"'  c #709668",
"]  c #749B6D",
"[  c #76A860",
"{  c #7BA46B",
"}  c #76BE63",
"|  c #7EBA60",
" . c #7FBE62",
".. c #7EBB6E",
"X. c #78A071",
"o. c #6AC045",
"O. c #6CC544",
"+. c #75C659",
"@. c #7CC75C",
"#. c #79CA5A",
"$. c #80B069",
"%. c #85B06E",
"&. c #87BF69",
"*. c #80A678",
"=. c #86AC7D",
"-. c #88B771",
";. c #90BE78",
":. c #81D657",
">. c #85DA58",
",. c #91E35E",
"<. c #82C462",
"1. c #80C066",
"2. c #85C465",
"3. c #84CC64",
"4. c #8CC96B",
"5. c #91CF69",
"6. c #91CE6F",
"7. c #8EDA61",
"8. c #8BD568",
"9. c #8CD36C",
"0. c #8ED56C",
"q. c #97DC66",
"w. c #93D26F",
"e. c #98D56C",
"r. c #8FC571",
"t. c #96C972",
"y. c #96C57D",
"u. c #96CB79",
"i. c #96CF7F",
"p. c #9AC97F",
"a. c #90D673",
"s. c #92D773",
"d. c #9CDF75",
"f. c #96D57E",
"g. c #9CD07E",
"h. c #98D77E",
"j. c #9FD47F",
"k. c #9FD87D",
"l. c #A1DC77",
"z. c #A0DF7D",
"x. c #A5DE7F",
"c. c #A1E27D",
"v. c #838383",
"b. c gray52",
"n. c #8B8B8B",
"m. c gray55",
"M. c #949E8F",
"N. c #969397",
"B. c #959595",
"V. c #9B9B9B",
"C. c #9E9B9F",
"Z. c #A3AC9E",
"A. c gray63",
"S. c gray64",
"D. c #A4A0A4",
"F. c #A4A4A4",
"G. c #A5A4A5",
"H. c gray66",
"J. c #A9A9A9",
"K. c #AEADAF",
"L. c #AFAEAF",
"P. c #B0B9AB",
"I. c #B1B0B2",
"U. c #B6B5B6",
"Y. c #BBBBBB",
"T. c #BEBDBE",
"R. c #9ECE8D",
"E. c #9FD584",
"W. c #9CD388",
"Q. c #A6DA80",
"!. c #A9D98A",
"~. c #A9DD88",
"^. c #ADDE8A",
"/. c #ACD88D",
"(. c #ADDF8F",
"). c #A5D295",
"_. c #A9D490",
"`. c #A7D698",
"'. c #B1DE93",
"]. c #B3DE98",
"[. c #B7DE9E",
"{. c #A4E184",
"}. c #A8E28A",
"|. c #AAE18F",
" X c #B5E59A",
".X c #AEC9A7",
"XX c #AFD6A3",
"oX c #B6C4B0",
"OX c #BCC4B7",
"+X c #BFC8B9",
"@X c #BCD4B2",
"#X c #BBE5A4",
"$X c #C2E6B1",
"%X c #C7EAB7",
"&X c #BFBEC0",
"*X c #C1C0C1",
"=X c #C2C1C3",
"-X c #C3C1C3",
";X c #C3C2C3",
":X c #C3C3C3",
">X c #C3C1C4",
",X c #C6C3C6",
"<X c #C6CEC1",
"1X c #CAD3C5",
"2X c #CCDFC5",
"3X c #CED6C8",
"4X c #D0D8CB",
"5X c #D5DCD0",
"6X c #DDDBDD",
"7X c #CDEDC0",
"8X c #CEE1C8",
"9X c #D2E4CD",
"0X c #DDF1D4",
"qX c #DEF2D6",
"wX c #E0DEE1",
"eX c #E5E4E5",
"rX c #E7F3E2",
"tX c #E9F5E4",
"yX c #E6F8E0",
"uX c #F2FDEF",
/* pixels */
"                > 1 m.A.H.S.6               ",
"              . X : 4 w b.v.3               ",
"      V.n.        N.C.D.,XeXwX6X>XG.J.,     ",
"      F.  Y ` ' ] X.*.=..X9X8X2X@XoXT.<     ",
"      I.  h b l t i k v ..XX).R.1.;   2     ",
"      &X  g x p y a d n } `.W.i.@.@   8     ",
"      :X                  uXtXrX      q     ",
"      ;X                  yXqX0X      e     ",
"      -X  r s f M V A H +.f.a.9.:.o   e     ",
"      -X  u m N C Z J K #.h.s.0.>.O   e     ",
"      ;X  * - & % $ # + { 7X%X$X%.    e     ",
"      ;X                              e     ",
"      =X  z B S D G P I 3.|.{.z.7.    e     ",
"      -X  c F L U Q o.O.8.}.c.d.,.=   e     ",
"      *X  j W ! / )  .<.E.#X X(.5.    q     ",
"      Y.                              0     ",
"      U.  R [ $.-.;.y.p._.[.]./.t.    9     ",
"      I.  ~ ( _ 2.4.6.w.k.~.x.l.q.T   7     ",
"      K.  ^ | &.r.u.g.j.!.'.^.Q.e.E   5     ",
"      L.    M.Z.P.OX<X1X4X5X3X+X    B.5     ",
"                                            ",
"                                            "
};
