/* XPM */
static char *battery3[] = {
/* columns rows colors chars-per-pixel */
"22 22 142 2 ",
"   c None",
".  c #232323",
"X  c #3E3E3E",
"o  c gray28",
"O  c gray30",
"+  c gray33",
"@  c #5B5B5B",
"#  c gray39",
"$  c #656565",
"%  c #676767",
"&  c #686868",
"*  c #6A6A6A",
"=  c gray42",
"-  c #6C6C6C",
";  c gray43",
":  c #6F6F6F",
">  c gray45",
",  c #767676",
"<  c gray47",
"1  c #797979",
"2  c gray50",
"3  c #6E9453",
"4  c #689654",
"5  c #72945A",
"6  c #6EAB51",
"7  c #74AB5A",
"8  c #75A85F",
"9  c #77BA57",
"0  c #7EBE5F",
"q  c #7EBA60",
"w  c #7FB069",
"e  c #87BF69",
"r  c #88B771",
"t  c #8FBE78",
"y  c #85C465",
"u  c #8CC96B",
"i  c #91CE6F",
"p  c #97DC66",
"a  c #93D26F",
"s  c #98D56C",
"d  c #8FC571",
"f  c #96C971",
"g  c #95C57D",
"h  c #96CB79",
"j  c #99C97F",
"k  c #9CD07E",
"l  c #9FD47F",
"z  c #9FD87D",
"x  c #A1DC77",
"c  c #A5DE7F",
"v  c #838383",
"b  c gray52",
"n  c #898989",
"m  c #8B8B8B",
"M  c gray55",
"N  c #8E8E8E",
"B  c #949E8F",
"V  c #959595",
"C  c #9B9B9B",
"Z  c gray61",
"A  c #9AA388",
"S  c #A3AD8F",
"D  c #A7AF96",
"F  c #A3AC9E",
"G  c #AAB595",
"H  c #ABB695",
"J  c #AEB69D",
"K  c #AEBA98",
"L  c #B3BF9B",
"P  c gray63",
"I  c gray64",
"U  c #A4A4A4",
"Y  c gray66",
"T  c #A9A9A9",
"R  c #AEADAF",
"E  c #AFAEAF",
"W  c #B5BEA5",
"Q  c #B0B9AB",
"!  c #B1B1B1",
"~  c #B1B0B2",
"^  c #B6B5B6",
"/  c #BBBBBB",
"(  c gray74",
")  c gray75",
"_  c #A6DA80",
"`  c #A8D48F",
"'  c #A9D98A",
"]  c #A9DD88",
"[  c #ADDE8A",
"{  c #ABD88D",
"}  c #B5C19D",
"|  c #B8C49F",
" . c #B1DE93",
".. c #B3DE97",
"X. c #B6DE9E",
"o. c #B8C4A0",
"O. c #BBC8A1",
"+. c #BDC9A6",
"@. c #BCC5AB",
"#. c #BCC4B7",
"$. c #BFC8B9",
"%. c #C2CFAB",
"&. c #C8D5AF",
"*. c #C3CBB1",
"=. c #C3CCB1",
"-. c #C7D0B4",
";. c #CCD9B1",
":. c #D1DCBA",
">. c #D8E4BF",
",. c #C0C0C0",
"<. c #C1C1C1",
"1. c gray76",
"2. c #C3C3C3",
"3. c #C6CEC1",
"4. c #CECECE",
"5. c #CAD3C5",
"6. c #CED6C8",
"7. c #D4DDC0",
"8. c #D0D8CB",
"9. c gray84",
"0. c #D5DCD0",
"q. c gray86",
"w. c #DDDDDD",
"e. c gray87",
"r. c #D9E0CA",
"t. c #DCE6C8",
"y. c #DFE5D2",
"u. c #E2EAD0",
"i. c #E3EAD2",
"p. c #E8EEDD",
"a. c #E9F1D9",
"s. c #E9F1DA",
"d. c #EBF1DD",
"f. c #EBF1DF",
"g. c gray89",
"h. c #E4E4E4",
"j. c #E7E7E7",
"k. c #EAEFE1",
"l. c #E9E9E9",
"z. c gray93",
"x. c #F8F8F8",
"c. c white",
/* pixels */
"                O # M P Y I =               ",
"              . X o & < b v %               ",
"      C m     n N V Z P 2.g.e.q.<.U T +     ",
"      U                 4.z.l.j.9.1.( @     ",
"      !                   z.h.w.    2 $     ",
"      )                   x.          ;     ",
"      2.                  c.          ,     ",
"      2.                              1     ",
"      2.                              1     ",
"      2.                              1     ",
"      2.                              1     ",
"      1.                              1     ",
"      <.  A G H K L | O.7.f.s.i.:.    1     ",
"      <.  S } o.+.%.&.;.t.d.a.u.>.    1     ",
"      ,.    D J W @.*.-.r.k.p.y.=.    ,     ",
"      /                               >     ",
"      ^   4 8 w r t g j ` X...{ f     :     ",
"      ~   6 9 0 y u i a z ] c x p 3   -     ",
"      R   7 q e d h k l '  .[ _ s 5   *     ",
"      E     B F Q #.3.5.8.0.6.$.    V *     ",
"                                            ",
"                                            "
};
