/* XPM */
static char *battery_plugged1[] = {
/* columns rows colors chars-per-pixel */
"22 22 134 2 ",
"   c None",
".  c #414142",
"X  c gray26",
"o  c #4A4A4B",
"O  c #515051",
"+  c #535253",
"@  c gray33",
"#  c gray34",
"$  c #676767",
"%  c #686868",
"&  c #6A6A6A",
"*  c #707071",
"=  c #727272",
"-  c #747474",
";  c #AB6607",
":  c #BB6705",
">  c #B2670C",
",  c #B26B0A",
"<  c #BB7606",
"1  c #C97607",
"2  c #C4710A",
"3  c #D27109",
"4  c #C68603",
"5  c #CA8204",
"6  c #CD8806",
"7  c #CD8B09",
"8  c #DF9F06",
"9  c #DC9B08",
"0  c #C5861F",
"q  c #E0880B",
"w  c #E59405",
"e  c #E99906",
"r  c #E39B0A",
"t  c #E7A106",
"y  c #EDA204",
"u  c #E4AB02",
"i  c #EBAB03",
"p  c #EFAB04",
"a  c #EFAA06",
"s  c #F2A604",
"d  c #F3A605",
"f  c #F1AE03",
"g  c #EAB202",
"h  c #EBB202",
"j  c #EFB901",
"k  c #EEBE00",
"l  c #EFBC03",
"z  c #F1BB01",
"x  c #F4BA02",
"c  c #F5BC01",
"v  c #F8BA06",
"b  c #CF9228",
"n  c #EFC200",
"m  c #F1C400",
"M  c #F1C500",
"N  c #F3C401",
"B  c #F4C500",
"V  c #F5C700",
"C  c #F9C301",
"Z  c #F3C900",
"A  c #F7C800",
"S  c #F5CA00",
"D  c #F4CB00",
"F  c #F5CC00",
"G  c #F6CE00",
"H  c #F6CF00",
"J  c #F7CF00",
"K  c #FFCB02",
"L  c #FECE01",
"P  c #FFC904",
"I  c #F9D300",
"U  c #F9D400",
"Y  c #FBD600",
"T  c #FED400",
"R  c #FCD900",
"E  c #FCDA00",
"W  c #FEDA00",
"Q  c #FFDB01",
"!  c #FFDF00",
"~  c #FFE000",
"^  c #B99965",
"/  c #818181",
"(  c #848484",
")  c #888888",
"_  c #8D8D8D",
"`  c #8E8E8E",
"'  c gray56",
"]  c gray57",
"[  c #929292",
"{  c #999998",
"}  c gray60",
"|  c #9A9A9A",
" . c #9B9B9B",
".. c gray62",
"X. c #9F9F9F",
"o. c #A39D9C",
"O. c #A2A796",
"+. c #A4AA96",
"@. c #9A9EA1",
"#. c #9E9CA4",
"$. c gray63",
"%. c #A1A2A2",
"&. c #A2A2A2",
"*. c gray67",
"=. c #AFAFAF",
"-. c #AFB4A2",
";. c #BDBEBB",
":. c gray75",
">. c #B9C0AB",
",. c #BCC3AB",
"<. c #BBC0AE",
"1. c #C3CAB6",
"2. c #C4CBB4",
"3. c #C4CAB7",
"4. c #CBD2BB",
"5. c #CBD1BD",
"6. c #CCD2BE",
"7. c #CED6BC",
"8. c #CACACA",
"9. c #CDCECB",
"0. c #D1D6C6",
"q. c #D3DAC5",
"w. c #D3D9C7",
"e. c #D9DFCB",
"r. c #D8DDCC",
"t. c #D2D2D2",
"y. c #D6D6D4",
"u. c #D8D8D6",
"i. c #DDE2D2",
"p. c #E1E1E1",
"a. c #E2E2E2",
"s. c gray93",
"d. c #EEEEEE",
"f. c gray98",
/* pixels */
"                          # ` *./           ",
"                          X % ( =           ",
"              3     '   ) ]  .:.a.t.=.&     ",
"            : q     _         8.s.p.8.-     ",
"            s >     [           d.    $     ",
"          y p       ..          f.          ",
"        w h a       &.                      ",
"      1 z j 9       %.                      ",
"      c k B 7       o.                      ",
"    f n M Z N x i 8 b                       ",
"  e V S G H J D m l ^                       ",
"  ; < 6 g Y I F A 0 #.                      ",
"        4 ~ Y U t   @.                      ",
"        u ! E P     $.                      ",
"        C R Q       X.                      ",
"        L W r        .                      ",
"        T v         |   -.<.3.0.i.5.        ",
"      5 K           } +.,.2.4.q.e.7.        ",
"      d ,           { O.>.1.6.w.r.4.        ",
"      2             |     ;.9.y.u.    *     ",
"                        . o + @ O           ",
"                                            "
};
