/* XPM */
static char *calendar[] = {
/* columns rows colors chars-per-pixel */
"16 16 75 1 ",
"  c None",
". c #D23D2E",
"X c #E93D2C",
"o c #CA4C3F",
"O c #DC4333",
"+ c #E64332",
"@ c #E24737",
"# c #E74837",
"$ c #E74B3A",
"% c #E74B3B",
"& c #E74C3C",
"* c #E94838",
"= c #E84B3B",
"- c #B55E54",
"; c #D1584B",
": c #E75041",
"> c #E75141",
", c #E85141",
"< c #E95141",
"1 c #EF6B5D",
"2 c #BB807A",
"3 c #998785",
"4 c #9BB9BD",
"5 c #D5B8B7",
"6 c #E7B6B2",
"7 c #B9BFC4",
"8 c #BAC0C4",
"9 c #BBC1C5",
"0 c #B9C3C8",
"q c #C1C7CA",
"w c #C4CACD",
"e c #C5CBCE",
"r c #C7CDD0",
"t c #C8CDD0",
"y c #C8CED1",
"u c #C9CED1",
"i c #CACFD2",
"p c #CDD2D5",
"a c #CFD4D7",
"s c #D4D9DB",
"d c #D4D9DC",
"f c #D6DBDE",
"g c #D7DBDE",
"h c #EBD9D7",
"j c #ECD9D8",
"k c #ECDAD8",
"l c #EDDAD9",
"z c #EEDBD9",
"x c #D9DEE0",
"c c #DBDFE1",
"v c #DBE0E2",
"b c #DCE0E3",
"n c #DCE1E3",
"m c #D9E1E4",
"M c #D9E2E4",
"N c #DDE5E8",
"B c #E0E4E6",
"V c #E1E5E7",
"C c #E2E6E8",
"Z c #E2E7E8",
"A c #E3E8E9",
"S c #E4E9EA",
"D c #E3EBED",
"F c #E7EBEC",
"G c #E7EBED",
"H c #E8ECEE",
"J c #E9EDEE",
"K c #E7EFF1",
"L c #E8F0F1",
"P c #EDF0F1",
"I c #EDF1F2",
"U c #EEF2F2",
"Y c #EEF2F3",
"T c #EFF3F3",
"R c #EDF4F6",
/* pixels */
"  q          q  ",
" 605        506 ",
"1;42X++++++X24;1",
"*o3-#&&&&&&#-3o*",
"%@.O==&&&&&=O.@=",
":,,,,,:,&:::,,,:",
"hjjjjzjjzhzzjjjh",
"RLMDDMKNNKMDDMLR",
"UC7ss7VeeN9ss9BT",
"PJvSScGVBJvSSvJU",
"UB9sg7VeeB9sg9BU",
"UGgCCgGcvFgBBgGU",
"USexceSupCegxeAU",
"PSyxceSaaSycxyAU",
"cUTUTTPTTUTTTTUM",
" yyyuuyyyyyyyyy "
};
