/* XPM */
static char *calendar[] = {
/* columns rows colors chars-per-pixel */
"22 22 108 2 ",
"   c None",
".  c #C83F31",
"X  c #E83B29",
"o  c #BE4336",
"O  c #D64333",
"+  c #DD4333",
"@  c #DE4636",
"#  c #E34434",
"$  c #E74534",
"%  c #E74736",
"&  c #E84534",
"*  c #E64837",
"=  c #E24838",
"-  c #E24939",
";  c #E54A3A",
":  c #E54B3B",
">  c #E74C3C",
",  c #E84B3B",
"<  c #E84C3C",
"1  c #E94C3C",
"2  c #E84D3C",
"3  c #B45045",
"4  c #AD6860",
"5  c #B97F79",
"6  c #EB6658",
"7  c #EB6759",
"8  c #EA695C",
"9  c #EC6D60",
"0  c #F07B6F",
"q  c #9D8784",
"w  c #A59C9C",
"e  c #90ACAE",
"r  c #97B3B6",
"t  c #B5BBBF",
"y  c #D19995",
"u  c #C4B5B7",
"i  c #EAB0AB",
"p  c #B5BCC0",
"a  c #B7BDC2",
"s  c #B7BEC2",
"d  c #B8BEC3",
"f  c #BAC0C4",
"g  c #BFC5C9",
"h  c #B9C9CF",
"j  c #C0C6C9",
"k  c #C1C6CA",
"l  c #C1C7CB",
"z  c #C2C8CC",
"x  c #C3C8CC",
"c  c #C5C9CD",
"v  c #C4CACE",
"b  c #C9CED1",
"n  c #CAD0D3",
"m  c #CBD1D4",
"M  c #CCD1D4",
"N  c #CED3D6",
"B  c #CFD5D7",
"V  c #D0D5D8",
"C  c #D1D6D9",
"Z  c #D1D7D9",
"A  c #D2D7D9",
"S  c #D2D7DA",
"D  c #D3D8DA",
"F  c #D3D8DB",
"G  c #D6DADD",
"H  c #D6DBDE",
"J  c #D7DCDE",
"K  c #D7DCDF",
"L  c #D8DADC",
"P  c #D8DDDF",
"I  c #DBDFE1",
"U  c #DBE0E2",
"Y  c #DCE0E2",
"T  c #DCE1E3",
"R  c #DDE2E4",
"E  c #DEE3E5",
"W  c #DFE3E5",
"Q  c #DFE4E5",
"!  c #DFE4E6",
"~  c #E1E5E7",
"^  c #E1E6E8",
"/  c #E2E7E8",
"(  c #E3E7E9",
")  c #E3E8E9",
"_  c #E4E8EA",
"`  c #E5E9EA",
"'  c #E6EAEC",
"]  c #E7EBEC",
"[  c #E7EBED",
"{  c #E7ECED",
"}  c #E9EDEE",
"|  c #EAEEEF",
" . c #EBEFF0",
".. c #ECF0F1",
"X. c #EDF0F1",
"o. c #EDF1F1",
"O. c #EDF1F2",
"+. c #EEF1F2",
"@. c #EEF2F3",
"#. c #EFF2F3",
"$. c #EFF3F4",
"%. c #ECF8F9",
"&. c #ECF8FA",
"*. c #EDF8FA",
"=. c #EDF9FB",
"-. c #EEF9FB",
";. c #EEFAFB",
":. c #EFFAFC",
/* pixels */
"      g G                         G g       ",
"    L s c                         c s L     ",
"  0 y h u 8 6 7 7 7 7 7 7 7 7 6 8 u h y 0   ",
"9 X 5 r w - % * * * * * * * * % - w r 5 X 9 ",
", # 4 e q O 1 > > > > > > > > 1 O q e 4 # , ",
"> : . 3 o @ 2 > > > > > > > > 2 @ o 3 . : > ",
"> < ; + = 2 > > > > > > > > > > 2 = + ; < > ",
"$ $ $ & & $ $ $ $ $ $ $ $ $ $ $ $ & & $ $ $ ",
"i i i i i i i i i i i i i i i i i i i i i i ",
"%.%.-.:.;.&.;.:.=.*.:.:.*.=.:.;.&.;.:.-.%.%.",
"..O.E S K  .K S ! { F F { ! S K  .K S E O...",
"..#.B t k | k t C / s s / C t k | k t B #...",
"..O.E Z J  .J Z Q { D D { Q Z J  .J Z E O...",
"..O.) U W  .W U _ } T T } _ U W  .W U ) O...",
"..@.V p l | l p Z / d d / Z p l | l p V @...",
"..+.I n A  .A n Y ' M M ' Y n A  .A n I +...",
"..X.' ~ ) ..) ~ ] | ^ ^ | ] ~ ) ..) ~ ' X...",
"..@.C a x | x a S ( f f ( S a x | x a C @...",
"..@.H z m | m z P ` v v ` P z m | m z H @...",
") $.O.o.O.O.O.o.O.O.o.o.O.O.o.O.O.O.o.O.$.) ",
"N R [ [ [ ] [ [ ] ] [ [ ] ] [ [ ] [ [ [ R N ",
"  b j g g g g g g g g g g g g g g g g j b   "
};
