/* XPM */
static char *cpu[] = {
/* columns rows colors chars-per-pixel */
"22 22 131 2 ",
"   c None",
".  c #032E16",
"X  c #07361C",
"o  c #08371D",
"O  c #043F1F",
"+  c #0A391E",
"@  c #0D3D22",
"#  c #04401F",
"$  c #034722",
"%  c #054C26",
"&  c #075129",
"*  c #0C572E",
"=  c #0B592E",
"-  c #1E4D31",
";  c #0D5D30",
":  c #1E5435",
">  c #125C32",
",  c #204E34",
"<  c #2A4738",
"1  c #264F38",
"2  c #2B4E3B",
"3  c #225036",
"4  c #25553B",
"5  c #2A543D",
"6  c #26593E",
"7  c #28593F",
"8  c #076532",
"9  c #0D6433",
"0  c #046B32",
"q  c #0A6A34",
"w  c #0E6D38",
"e  c #116335",
"r  c #126A37",
"t  c #16653A",
"y  c #1E633E",
"u  c #156B3B",
"i  c #19693E",
"p  c #037236",
"a  c #057539",
"s  c #08763A",
"d  c #027C3B",
"f  c #0A7A3B",
"g  c #13713A",
"h  c #137D3A",
"j  c #2F5440",
"k  c #265D41",
"l  c #285A40",
"z  c #1F6540",
"x  c #176C41",
"c  c #186E43",
"v  c #177641",
"b  c #1D7644",
"n  c #1F7846",
"m  c #227847",
"M  c #247849",
"N  c #544E52",
"B  c #645F61",
"V  c #6C6568",
"C  c #6F6A6C",
"Z  c #73696D",
"A  c #796F74",
"S  c #7A7376",
"D  c #7E7A7B",
"F  c #81767C",
"G  c #0B813E",
"H  c #1C823C",
"J  c #24873E",
"K  c #138E43",
"L  c #198C42",
"P  c #169447",
"I  c #1B9B4A",
"U  c #238E43",
"Y  c #229144",
"T  c #239B49",
"R  c #11A24E",
"E  c #1DA54E",
"W  c #0BA356",
"Q  c #06AC56",
"!  c #15A951",
"~  c #1FAC52",
"^  c #03B256",
"/  c #0DB156",
"(  c #05B658",
")  c #0FB759",
"_  c #01BA5A",
"`  c #13B657",
"'  c #1EB556",
"]  c #12B55A",
"[  c #19B658",
"{  c #22A04D",
"}  c #28A750",
"|  c #25B456",
" . c #847F81",
".. c #898586",
"X. c #8E8C8C",
"o. c #918D8E",
"O. c #938F90",
"+. c #969293",
"@. c #989495",
"#. c #9B9598",
"$. c #9C9899",
"%. c #A19C9E",
"&. c #A6A1A2",
"*. c #A9A4A5",
"=. c #A8A8A6",
"-. c #ABA7A8",
";. c #ACAAA9",
":. c #B2ADAE",
">. c #B6B5B4",
",. c #B9B5B5",
"<. c #B8B8B7",
"1. c #BDBDBC",
"2. c #C2BCBE",
"3. c #C0C1BF",
"4. c #C5BFC1",
"5. c #C5C4C3",
"6. c #CAC4C6",
"7. c #C8C8C6",
"8. c #CCC5C8",
"9. c #CDCBCA",
"0. c #D1CBCD",
"q. c #D0D0CE",
"w. c #D6D6D4",
"e. c #D7D8D6",
"r. c #D9D9D6",
"t. c #DDDDDB",
"y. c #E1E1DE",
"u. c #E5E5E3",
"i. c #E7E8E5",
"p. c #E9E9E7",
"a. c #EBEBE9",
/* pixels */
"      b h b M m b m m b M b M n m v b       ",
"  u ] ( _ ) | ' ] | [ [ | ) | ] ' _ ( ] u   ",
"  / Q W i 4 4 6 k 5 6 l 5 k 5 6 1 c W Q /   ",
"0 Q W < F 2.2.2.4.6.6.8.9.8.0.0.4.S < W ^ q ",
"0 ^ x A u.1.<.5.9.0.w.r.t.y.u.i.a.i.Z c ^ p ",
"w ~ 1 %.<.;.<.3.7.9.w.e.t.y.y.y.u.i.*., E g ",
"8 ! 4 #.<.<.5.9.q.w.r.y.y.u.i.u.u.u.;.6 R w ",
"r } 4 %.3.3.7.q.e.t.y.u.u.i.i.i.i.i.-.3 T g ",
"8 W l &.6.6.q.e.t.y.i.i.p.p.p.p.u.u.*.k R 8 ",
"e T 5 *.9.q.w.t.u.i.p.a.p.a.p.i.u.y.*.5 T 9 ",
"9 I 6 :.w.w.r.y.u.p.p.a.a.p.p.i.t.t.&.5 I 9 ",
"= I 5 >.e.e.t.u.u.p.a.a.a.p.i.y.t.w.%.5 P 9 ",
"e T 5 ,.t.t.u.u.p.a.a.a.a.i.y.t.w.q.$.5 Y r ",
"= P 5 ,.y.t.u.u.p.a.p.p.p.u.t.e.q.7.+.l K ; ",
"= Y 5 2.u.y.u.i.p.p.i.i.u.t.e.q.7.3.X.5 L > ",
"> U 2 2.u.u.u.i.i.i.u.y.t.w.q.8.1.>...2 J > ",
"% G 5 :.p.u.u.u.i.u.y.t.r.0.7.3.>.=.D 5 G & ",
"$ d y V q.u.u.y.y.t.e.q.9.7.1.>.=.X.N z d % ",
"O s f 5 B o.@.@.O.o.o.X... .D S C N 5 f a # ",
"  8 s s t : - , : - : : 3 : - : 3 u s s 0   ",
"  . 8 s p h H H h J H H J h J h H p p 8 .   ",
"      . . X + + o @ o o @ o @ o o . .       "
};
