/* XPM */
static char *cpu[] = {
/* columns rows colors chars-per-pixel */
"16 16 190 2 ",
"   c None",
".  c #033B1C",
"X  c #033B1D",
"o  c #02411F",
"O  c #04431F",
"+  c #044924",
"@  c #044A24",
"#  c #0E4D26",
"$  c #0F4D26",
"%  c #104E27",
"&  c #015428",
"*  c #015629",
"=  c #115028",
"-  c #0F6734",
";  c #076833",
":  c #076933",
">  c #0F6B35",
",  c #096C36",
"<  c #0F6E39",
"1  c #0E6E3B",
"2  c #116533",
"3  c #126733",
"4  c #176733",
"5  c #196532",
"6  c #116934",
"7  c #176834",
"8  c #116D36",
"9  c #1B6834",
"0  c #1B6835",
"q  c #1A6935",
"w  c #186A35",
"e  c #196A35",
"r  c #1F673A",
"t  c #1D6C3C",
"y  c #1C6F3D",
"u  c #1F6E3C",
"i  c #077839",
"p  c #06783A",
"a  c #06793A",
"s  c #07793A",
"d  c #057D3A",
"f  c #057B3C",
"g  c #137039",
"h  c #107239",
"j  c #147239",
"k  c #117439",
"l  c #10763B",
"z  c #11713E",
"x  c #1E703D",
"c  c #1E713E",
"v  c #19753E",
"b  c #11783B",
"n  c #117A3C",
"m  c #127C3C",
"M  c #127D3E",
"N  c #137F3E",
"B  c #206939",
"V  c #22733F",
"C  c #275C40",
"Z  c #275D40",
"A  c #1B7440",
"S  c #1B7540",
"D  c #1A7640",
"F  c #1E7641",
"G  c #1D7841",
"H  c #1D7A41",
"J  c #1E7A41",
"K  c #1A7F42",
"L  c #1C7F42",
"P  c #286145",
"I  c #2A6347",
"U  c #595B59",
"Y  c #605E5E",
"T  c gray43",
"R  c #717370",
"E  c #757675",
"W  c #7C7A7B",
"Q  c #7B7C7B",
"!  c #7F7D7D",
"~  c #807B7C",
"^  c #827D7F",
"/  c #05803C",
"(  c #0D8847",
")  c #0E8948",
"_  c #098F4A",
"`  c #0C8D49",
"'  c #158145",
"]  c #168145",
"[  c #1B8144",
"{  c #1A8345",
"}  c #1B8346",
"|  c #1E8144",
" . c #108846",
".. c #138847",
"X. c #1D894A",
"o. c #1D894B",
"O. c #1F894A",
"+. c #1F894B",
"@. c #1E8A4B",
"#. c #208A4B",
"$. c #05AF57",
"%. c #05B158",
"&. c #05B259",
"*. c #0FB159",
"=. c #818281",
"-. c #858384",
";. c gray52",
":. c #8B8688",
">. c #888988",
",. c #8A8B8A",
"<. c #8D898B",
"1. c #8E888B",
"2. c #8D8B8B",
"3. c #8C8C8B",
"4. c #8F8D8E",
"5. c #929091",
"6. c #979495",
"7. c #979595",
"8. c #9A9898",
"9. c #9C9A9A",
"0. c #9E9B9B",
"q. c #9D9B9C",
"w. c #A2A09F",
"e. c #A3A0A1",
"r. c #A7A5A6",
"t. c #A9A5A8",
"y. c #AAA5A8",
"u. c #ADA9AB",
"i. c #ACAAAA",
"p. c #AEABAC",
"a. c #B0ACAE",
"s. c #B3AEB1",
"d. c #B5B0B3",
"f. c #B6B2B5",
"g. c #B7B6B5",
"h. c #B7B7B5",
"j. c #B8B3B5",
"k. c #B8B8B6",
"l. c #BABAB9",
"z. c #BCBCBA",
"x. c #C3C3C1",
"c. c #C4C3C2",
"v. c #C5C5C3",
"b. c #C7C7C5",
"n. c #C7C7C6",
"m. c #CDCDCB",
"M. c #CFCECD",
"N. c #CFCFCD",
"B. c #D0D0CE",
"V. c #D1D0CE",
"C. c #D1D1CF",
"Z. c #D2D2D0",
"A. c #D6D5D3",
"S. c #D7D7D5",
"D. c #D8D8D5",
"F. c #D8D8D6",
"G. c #D8D8D7",
"H. c #DADAD7",
"J. c #DADAD8",
"K. c #DDDCDA",
"L. c #DDDDDB",
"P. c #DDDEDB",
"I. c #DEDEDB",
"U. c #DFDFDD",
"Y. c #E0E0DE",
"T. c #E0E0DF",
"R. c #E1E1DF",
"E. c #E3E1DF",
"W. c #E2E2DF",
"Q. c #E3E3E1",
"!. c #E4E4E1",
"~. c #E4E4E2",
"^. c #E5E5E2",
"/. c #E5E6E3",
"(. c #E6E6E3",
"). c #E6E6E4",
"_. c #E7E7E4",
"`. c #E7E7E5",
"'. c #E8E8E5",
"]. c #E9E8E6",
"[. c #E9E9E6",
"{. c #E9E9E7",
"}. c #EAEAE7",
"|. c #EAEAE8",
" X c #EBEBE8",
".X c #EBEBE9",
"XX c #ECECE9",
"oX c #ECECEA",
"OX c #ECECEB",
"+X c #F0EEEC",
/* pixels */
"    ]  .O.O.X.#.@.@.O.O...]     ",
"  *.%._ L [ [ [ { { [ [ _ %.*.  ",
"i $.I 1.t.t.i.p.s.d.f.j.:.I $.s ",
"d ) ^ M.z.v.N.G.U.Q.)..XOX~ ( / ",
"M J 1.g.z.b.B.G.K.Q.^.^.}.0.v N ",
"n J 4.x.b.Z.H.T.~.).'.).[.9.v m ",
"l J 6.m.B.J.T.).[.|.|.).^.8.F b ",
"h F q.A.G.T.).|..X.X[.^.T.6.F k ",
"j V e.K.K.^.[.OXOX|.^.T.H.5.x k ",
"> x r.T.Q.'.[..X|.'.T.G.B.1.x 8 ",
"> t i._.~.'.[.[.).T.G.B.v.-.t 6 ",
"3 B p.[.~.'.^.~.U.G.M.x.k.W r 3 ",
"& 1 ! Q.[._.^.T.G.M.v.g.w.U D * ",
"+ i C R ,.,.>.;.=.W E T U Z f + ",
"  ; i , 5 7 7 q 7 e q q 1 i :   ",
"    . + $ $ $ = $ $ $ % O X     "
};
