/* XPM */
static char *downspeed[] = {
/* columns rows colors chars-per-pixel */
"12 12 53 1 ",
"  c None",
". c #1F556F",
"X c #205873",
"o c #255F7B",
"O c #25607C",
"+ c #286380",
"@ c #2B6A89",
"# c #306D8B",
"$ c #2F7192",
"% c #317597",
"& c #337798",
"* c #357A9C",
"= c #358BB5",
"- c #358CB7",
"; c #3C8AB0",
": c #3A8CB5",
"> c #3C90B9",
", c #3E91BB",
"< c #4095BE",
"1 c #3C95C0",
"2 c #3EA8DC",
"3 c #3EA9DD",
"4 c #41A1D0",
"5 c #41A1D1",
"6 c #42ACE0",
"7 c #44AEE2",
"8 c #46AFE3",
"9 c #44AFE4",
"0 c #46B0E3",
"q c #42B0E6",
"w c #45B0E4",
"e c #46B0E4",
"r c #48B2E6",
"t c #45B5EC",
"y c #49B4E9",
"u c #4AB4E8",
"i c #49B5EB",
"p c #4CB6EA",
"a c #49B7ED",
"s c #49B8EF",
"d c #4EB8EC",
"f c #50BAEE",
"g c #4CBAF0",
"h c #4FBBF1",
"j c #4DBCF3",
"k c #52BCF0",
"l c #51BDF3",
"z c #50BEF4",
"x c #53BFF5",
"c c #52C0F6",
"v c #54C2F8",
"b c #55C2F8",
"n c #56C4FA",
/* pixels */
"   #nkkv;   ",
"   *vffx<   ",
"   &cddk,   ",
"   %zpph>   ",
"   %juug:   ",
"  O1areu5@  ",
"  5s99eea5  ",
"   e979ee   ",
"   Ot76to   ",
"    -q9-    ",
"     35     ",
"     .o     "
};
