/* XPM */
static char *downspeed[] = {
/* columns rows colors chars-per-pixel */
"15 15 62 1 ",
"  c None",
". c #2B7497",
"X c #2C779B",
"o c #3281A7",
"O c #3382A9",
"+ c #3185AD",
"@ c #3A84A8",
"# c #398CB5",
"$ c #3A8DB6",
"% c #3C8FB8",
"& c #3D91BA",
"* c #3F92BB",
"= c #4195BF",
"- c #3C94C0",
"; c #3EA2D3",
": c #3EA3D5",
"> c #3FAADE",
", c #47A2CF",
"< c #45A7D7",
"1 c #47A9D9",
"2 c #45A9DA",
"3 c #40ABDF",
"4 c #45ACDF",
"5 c #48AADB",
"6 c #4AACDC",
"7 c #42ACE0",
"8 c #41AEE3",
"9 c #45ADE0",
"0 c #44AEE2",
"q c #45AFE3",
"w c #4CAFE0",
"e c #41B0E6",
"r c #41B0E7",
"t c #47B1E5",
"y c #46B2E7",
"u c #49B2E6",
"i c #45B3EA",
"p c #45B4EA",
"a c #47B6ED",
"s c #49B4E9",
"d c #4AB4E8",
"f c #4CB6EA",
"g c #4EB7EB",
"h c #4AB7EC",
"j c #4BB7EC",
"k c #4AB8EE",
"l c #4DB8ED",
"z c #4FB9ED",
"x c #4FBAEF",
"c c #51BAEE",
"v c #42B7F0",
"b c #4ABAF0",
"n c #4DBAF0",
"m c #4EBBF1",
"M c #50BBF0",
"N c #53BCF0",
"B c #52BDF1",
"V c #50BDF3",
"C c #52BEF4",
"Z c #53C0F6",
"A c #54C0F5",
"S c #56C2F8",
/* pixels */
"    @SNNNA,    ",
"    =ZcccBw    ",
"    *CzzzM6    ",
"    &Vgggx5    ",
"    %mfffl1    ",
"    $ndddj<    ",
"    -huuus2    ",
"  #ktttttttb#  ",
"   9yqqqqqy4   ",
"    a00000a    ",
"    op777iO    ",
"     ;838:     ",
"      e>r      ",
"      .vX      ",
"       +       "
};
