/* XPM */
static char *ethernet[] = {
/* columns rows colors chars-per-pixel */
"16 16 183 2 ",
"   c None",
".  c black",
"X  c #000001",
"o  c #010001",
"O  c #020102",
"+  c gray1",
"@  c #040404",
"#  c #040405",
"$  c gray2",
"%  c #050506",
"&  c #060606",
"*  c #070707",
"=  c gray3",
"-  c #090909",
";  c #090A0A",
":  c gray4",
">  c #0B0B0B",
",  c #0B0C0C",
"<  c #0C0C0C",
"1  c #0C0D0C",
"2  c #0D0E0E",
"3  c #0E0E0E",
"4  c #0E0F0F",
"5  c #0A0C11",
"6  c #0B0E12",
"7  c #0F1011",
"8  c #0F1012",
"9  c #101010",
"0  c #101111",
"q  c #111112",
"w  c #121313",
"e  c #111314",
"r  c #121314",
"t  c #131414",
"y  c #141517",
"u  c #1A1C13",
"i  c #1C1D15",
"p  c #161719",
"a  c #17181A",
"s  c #17191B",
"d  c #181A1C",
"f  c #2C2B0F",
"g  c #2E2D0D",
"h  c #292A19",
"j  c #2B2C1A",
"k  c #2C2D1D",
"l  c #2D2E1E",
"z  c #212022",
"x  c #222223",
"c  c #272627",
"v  c #2E2F20",
"b  c #2F3020",
"n  c #524D10",
"m  c #554F11",
"M  c #534F16",
"N  c #545016",
"B  c #555219",
"V  c #565219",
"C  c #5A5959",
"Z  c #646463",
"A  c #6D6C6C",
"S  c #6F6E6E",
"D  c #6F6F6E",
"F  c gray44",
"G  c #757574",
"H  c gray46",
"J  c #80807F",
"K  c #828281",
"L  c gray51",
"P  c #838283",
"I  c #848384",
"U  c #88898A",
"Y  c #898A8B",
"T  c #8B8A8A",
"R  c #8C8B8B",
"E  c #8C8C8B",
"W  c gray55",
"Q  c #8D8D8C",
"!  c #8E8E8D",
"~  c #939285",
"^  c #929286",
"/  c #919190",
"(  c #949393",
")  c #949493",
"_  c gray58",
"`  c #959695",
"'  c gray59",
"]  c #979796",
"[  c #989996",
"{  c #999998",
"}  c #9B9B9B",
"|  c #9C9D9B",
" . c #9C9D9C",
".. c #9E9E9C",
"X. c #9E9F9D",
"o. c #9F9F9D",
"O. c #A09E85",
"+. c #A09E86",
"@. c #A19F87",
"#. c #A19F88",
"$. c #9FA09E",
"%. c #A2A085",
"&. c #A0A09E",
"*. c #A0A19E",
"=. c #A1A19F",
"-. c #A0A1A0",
";. c #A1A2A0",
":. c #A2A2A0",
">. c #A2A3A1",
",. c #A3A3A1",
"<. c #A3A3A2",
"1. c #A4A4A3",
"2. c #A5A5A3",
"3. c #A5A5A4",
"4. c #A4A5A5",
"5. c #A6A6A5",
"6. c #A5A5A6",
"7. c #A5A6A6",
"8. c #A6A7A7",
"9. c #A7A8A6",
"0. c #A8A8A6",
"q. c #A8A9A7",
"w. c #A9AAA7",
"e. c #AAAAA7",
"r. c #A7A7A8",
"t. c #AAABA8",
"y. c #A8A9AA",
"u. c #ABABAA",
"i. c #ABADA9",
"p. c #ADADAA",
"a. c #ADADAB",
"s. c #ADAEAD",
"d. c #AEB0AC",
"f. c #AEB0AD",
"g. c #AFB0AD",
"h. c #B0B0AE",
"j. c #B1B2AE",
"k. c #B1B2AF",
"l. c #B2B2AF",
"z. c #B2B2B0",
"x. c #B2B3B0",
"c. c #B3B3B1",
"v. c #B4B4B2",
"b. c #B4B5B2",
"n. c #B5B6B3",
"m. c #B8B7B7",
"M. c #B9BAB7",
"N. c #B9B8B8",
"B. c #B9B9B8",
"V. c #BAB9B9",
"C. c #BBBBB9",
"Z. c #BABCB9",
"A. c #BCBCB9",
"S. c #BDBDBA",
"D. c #BEBEBC",
"F. c #BEBFBC",
"G. c #C0C0BE",
"H. c #C2C2C0",
"J. c #C2C3C0",
"K. c #C3C3C1",
"L. c #C3C5C1",
"P. c #C5C5C3",
"I. c #C6C6C4",
"U. c #C6C8C4",
"Y. c #C7C9C5",
"T. c #C8CAC6",
"R. c #C9CAC6",
"E. c #C9CAC7",
"W. c #C9CBC7",
"Q. c #CACCC8",
"!. c #CBCDC9",
"~. c #CCCEC9",
"^. c #CCCECA",
"/. c #D0D2CE",
"(. c #D1D2CF",
"). c #D1D3CF",
"_. c #D1D3D0",
"`. c #D2D3D0",
"'. c #D2D4D0",
"]. c #D3D5D2",
"[. c #D4D5D2",
"{. c #DDDEDC",
"}. c #DFE1DE",
/* pixels */
"  I V.V.V.V.V.V.M.m.m.V.m.m.I   ",
"K }.[.'.'./.`.`.`.`./.`.`.'.{.K ",
"x./.Q.W.W.W.J.G.H.J.Q.W.Q.Q./.h.",
"d.^.U.U.W.[ x z x x [ Q.U.U.^.d.",
"i.W.U.^.d.c + + + + c s.^.U.W.i.",
"w.W.| Z C q + # + + q C Z o.W.t.",
"5.W.G + + & @ & & # & + + H W.w.",
"5.P.K + + & - < , - - @ + K I.5.",
",.H.R & - 4 q q t r q - - ! H.2.",
",.D._ 4 4 q a s d a y 7 4 ` G.,.",
"o.Z.{ q u h l l b l j i r  .S.=.",
"o.V.$.6 g n M V V N m f 6 ,.Z.=.",
"o.x.c.T ^ @.~ @.#.#.@.^ U n.n.$.",
"| d.t.d.t.r.w.w.5.5.t.s.h.i.n.$.",
"S V.s.9.5.,.&.o.&.,.5.0.t.h.D.F ",
"  S ] / / ! R T T ! / _ ` { S   "
};
