/* XPM */
static char *ethernet[] = {
/* columns rows colors chars-per-pixel */
"22 22 70 1 ",
"  c None",
". c #040404",
"X c #070908",
"o c #0A0B0B",
"O c #0E100F",
"+ c #0A0D11",
"@ c #0E1011",
"# c #121414",
"$ c #151718",
"% c #161819",
"& c #191C1D",
"* c #262616",
"= c #2C2D1B",
"- c #2F301E",
"; c #3F3D13",
": c #30311F",
"> c #1E2126",
", c #313220",
"< c #313232",
"1 c #3A3A3A",
"2 c #413E11",
"3 c #474415",
"4 c #4A4716",
"5 c #4D4A1B",
"6 c #625D26",
"7 c #6B6629",
"8 c #6E692D",
"9 c #706C2F",
"0 c #4B4A4A",
"q c #5C5C5B",
"w c #666565",
"e c #6C6C6B",
"r c #6F706F",
"t c #767674",
"y c #787977",
"u c #797A79",
"i c #848483",
"p c #878886",
"a c #888987",
"s c #8B8B8A",
"d c #8F908F",
"f c #90908F",
"g c #959593",
"h c #979896",
"j c #989997",
"k c #9C9D9A",
"l c #9FA09E",
"z c #A0A19F",
"x c #A4A5A3",
"c c #A7A8A5",
"v c #A8A9A7",
"b c #ACADAB",
"n c #AFB0AE",
"m c #B1B1AE",
"M c #B5B6B3",
"N c #B7B8B5",
"B c #B9B9B6",
"V c #BBBCB9",
"C c #BEC1BC",
"Z c #C0C2BE",
"A c #C4C6C2",
"S c #C6C8C4",
"D c #C9CBC7",
"F c #CBCDCA",
"G c #CDD0CB",
"H c #D1D2CF",
"J c #D5D7D4",
"K c #D6D8D5",
"L c #D8DAD6",
"P c #DCDDDA",
/* pixels */
"  sbbbbbbbbbbbbbbbbs  ",
" ZPLLLLKKLKKKKKKKKLPC ",
"aLHFFDDDDFDFDDDDFFFGKa",
"vJFFFDDDFFFFFHDDDDFFHc",
"xFDDSSFC0<1110VDSSDDFx",
"zFSAASBwo....XwBSAASDx",
"zDASSFpoX....X+aFSAADz",
"zSAxeeq#......$qeexADz",
"kAZro.oX......XX.orAAk",
"kAZu....X.ooXX....uZAk",
"kZCio.XXoooooooX.oiZZk",
"jZVso.ooo#####@ooofVZk",
"jVVj#.oO#$%%%$##o#jVVh",
"jBNz#o$$%&&>&&$#o$zBVk",
"gBMx$o*==:,,,==*+&cBVk",
"gBMb$o;445555442+%bMBg",
"gBmM<>6779999776><NMBh",
"gMbMBMNMMMMMNNNBMVBmNg",
"gMbvvvxzzzzklxxcvvbbNg",
"tBvvxxzkkkkkkkzzccvbVy",
" xBmbbvxxzxcccvbbmMBc ",
"  tssaaiiiiuiiaassfy  "
};
