/* XPM */
static char *float[] = {
/* columns rows colors chars-per-pixel */
"16 16 111 2 ",
"   c None",
".  c #676767",
"X  c gray44",
"o  c #767678",
"O  c #787778",
"+  c gray49",
"@  c #6A7282",
"#  c #6F7784",
"$  c #737885",
"%  c #767B86",
"&  c #777D8B",
"*  c #7A7F89",
"=  c #7D818C",
"-  c #7F838D",
";  c #80848F",
":  c #81858F",
">  c #808590",
",  c #838791",
"<  c #848994",
"1  c #858994",
"2  c #939393",
"3  c #969699",
"4  c #92949C",
"5  c #99999A",
"6  c #9D9C9F",
"7  c #9E9E9F",
"8  c #9F9FA1",
"9  c #A2A2A3",
"0  c #A3A3A4",
"q  c #A5A4A6",
"w  c #A7A7A8",
"e  c #A8A8A9",
"r  c #AFAFB0",
"t  c #B0B0B1",
"y  c #ABBBD4",
"u  c #B0BFD9",
"i  c #BFC3CC",
"p  c #B9C7DA",
"a  c #B7C8E3",
"s  c #C3C3C4",
"d  c #C7C6C9",
"f  c #C7C7C9",
"g  c gray79",
"h  c #C3CEDD",
"j  c #C5D0DE",
"k  c #C6D0DF",
"l  c #C6D1DF",
"z  c #C7D1DF",
"x  c #D0D0D1",
"c  c #D5D4D5",
"v  c #D5D4D6",
"b  c #D5D5D6",
"n  c #D5D4D7",
"m  c gray84",
"M  c #D7D7D7",
"N  c #D9D9D8",
"B  c #DADADC",
"V  c #DBDADC",
"C  c #DBDBDC",
"Z  c #DCDCDD",
"A  c #DDDDDF",
"S  c #DEDEDF",
"D  c #C4D1E1",
"F  c #C6D2E1",
"G  c #C7D4E2",
"H  c #D2DAE6",
"J  c #D5DCE7",
"K  c #DCDDE0",
"L  c #D0DBEA",
"P  c #DDE1EB",
"I  c gray88",
"U  c #E0E0E2",
"Y  c #E1E1E2",
"T  c #E5E5E7",
"R  c #E1E5ED",
"E  c #E9E9E9",
"W  c #EAE9E9",
"Q  c #E8E9EC",
"!  c #EAEBED",
"~  c gray93",
"^  c #EEEEED",
"/  c #EEEEEE",
"(  c #EFEFEE",
")  c #E5E9F1",
"_  c #E7EBF5",
"`  c #E7ECF5",
"'  c #EAECF0",
"]  c #EBECF0",
"[  c #ECEDF0",
"{  c #ECEDF1",
"}  c #E8ECF6",
"|  c #EDEFF4",
" . c #EFF4FF",
".. c #F1F1F0",
"X. c #F1F2F3",
"o. c #F4F4F4",
"O. c #F5F5F4",
"+. c #F6F6F6",
"@. c #F5F5F8",
"#. c #F7F7F9",
"$. c #F2F6FF",
"%. c #F8F8F8",
"&. c gray98",
"*. c #FBFAFA",
"=. c #FBFBFA",
"-. c #FCFCFD",
";. c #FDFDFD",
":. c #FEFEFD",
">. c #FDFEFF",
",. c #FFFFFE",
"<. c white",
/* pixels */
"2 I M M M M M M f r r s X       ",
"7 Z c M M M M M x d d M +       ",
"3 K B B V V V V Z Z I T o       ",
"8 o.~ ~ ~ ( ~ ~ ~ ~ ~ %.O       ",
"8 %.o.! ' ' ' ' ~ { { | 4       ",
"9 -.+.J F F F F F F G p y u a @ ",
"q ,.*.H h h k F h F h k k F L # ",
"w ,.,.P K U I I U U U U U I ! % ",
"e ,.,.R T E E Q E E E E E E o.* ",
"r ,.,.) ! ~ ~ ~ ~ ~ ~ ~ ~ ( #.= ",
". 0 5 i #.+.o.o.+.o.o.o.o.o.>.- ",
"      , ,.*.*.*.*.*.*.*.*.*.,.- ",
"      1 ,.,.,.-.>.-.,.,.>.,.,.- ",
"      1 ,.,.,.,.,.,.,.,.,.,.,.- ",
"      &  ._ _ _ _ _ } } } } $.$ ",
"                                "
};
