/* XPM */
static char *float[] = {
/* columns rows colors chars-per-pixel */
"22 22 153 2 ",
"   c None",
".  c #4E5461",
"X  c #575D6A",
"o  c #626673",
"O  c #666B79",
"+  c #6D717B",
"@  c #777777",
"#  c #828285",
"$  c #868688",
"%  c #878789",
"&  c #898989",
"*  c #89898B",
"=  c #8A8A8C",
"-  c #8B8B8D",
";  c #8E8E8D",
":  c #8D8C8E",
">  c #8E8D8F",
",  c #8E8E8F",
"<  c #8F8F90",
"1  c #8C8F9A",
"2  c #959596",
"3  c #9A9A9A",
"4  c #9D9D9D",
"5  c #A3A3A4",
"6  c #AAADB5",
"7  c #B3B2B5",
"8  c #B3B2B6",
"9  c #B4B3B6",
"0  c gray71",
"q  c #B7B7B7",
"w  c #B6B6B9",
"e  c #B9B9B9",
"r  c #98AAC8",
"t  c #A9B3C6",
"y  c #ADB5C5",
"u  c #ADB5C6",
"i  c #ADB6C6",
"p  c #AEB6C6",
"a  c #AEB6C7",
"s  c #AEB7C7",
"d  c #B0B7C7",
"f  c #B0B8CB",
"g  c #A2B4D3",
"h  c #B1C0D9",
"j  c #B0C0DB",
"k  c #BECDDD",
"l  c #B0C1E0",
"z  c #CFCFD1",
"x  c #C1CEDF",
"c  c #C1CFDF",
"v  c #C7CEDD",
"b  c #D0CFD2",
"n  c #C3D0DF",
"m  c #CED3DE",
"M  c #CED4DE",
"N  c #CFD4DE",
"B  c #D0D0D0",
"V  c #D0D0D2",
"C  c #D1D0D2",
"Z  c #D1D0D3",
"A  c #D2D1D3",
"S  c #D3D3D5",
"D  c #D4D3D5",
"F  c gray83",
"G  c #D4D4D6",
"H  c #D0D5DE",
"J  c #D8D7DA",
"K  c gray85",
"L  c #D9DAD9",
"P  c #D9D8DA",
"I  c #D8D8DB",
"U  c #DADADA",
"Y  c #DCDCDE",
"T  c #DDDCDE",
"R  c #DDDDDE",
"E  c #DDDDDF",
"W  c #DEDDDF",
"Q  c #C4D1E0",
"!  c #C5D1E0",
"~  c #CAD8EA",
"^  c #D7DAE1",
"/  c #D4D8E5",
"(  c #DEDDE0",
")  c #D9DCE5",
"_  c #D4DBE9",
"`  c #E0DFE1",
"'  c #DBE0E9",
"]  c #DCE0E8",
"[  c #DFE3EB",
"{  c #E2E2E2",
"}  c #E4E4E3",
"|  c #E3E3E5",
" . c #E5E5E4",
".. c #E6E5E4",
"X. c #E6E6E4",
"o. c #E0E3EB",
"O. c #E3E7EF",
"+. c #E8E7E8",
"@. c #E6E8ED",
"#. c gray91",
"$. c #E9E9E8",
"%. c #ECECEC",
"&. c #EDEDEC",
"*. c gray93",
"=. c #EDEDEE",
"-. c #EEEEEE",
";. c #EFEEEE",
":. c #EFEFEE",
">. c #EFEFEF",
",. c #E6E8F0",
"<. c #E8EAF1",
"1. c #E8EBF2",
"2. c #E9EBF2",
"3. c #E8EBF3",
"4. c #E8ECF3",
"5. c #E9ECF3",
"6. c #ECEDF0",
"7. c #EAEDF4",
"8. c #EDEFF5",
"9. c gray94",
"0. c #F0F0F1",
"q. c #F1F1F1",
"w. c #F2F1F1",
"e. c #F2F2F1",
"r. c gray95",
"t. c #F3F3F4",
"y. c gray96",
"u. c #F6F6F5",
"i. c #F6F6F6",
"p. c #F7F6F6",
"a. c #F1F3F9",
"s. c #F7F7F8",
"d. c #F2F5FD",
"f. c #F3F6FF",
"g. c #F6F7FD",
"h. c #F4F7FF",
"j. c #F5F7FF",
"k. c #F5F8FF",
"l. c #F9F9F9",
"z. c #FAFAF9",
"x. c #FBFAF9",
"c. c #FBFAFB",
"v. c #FAFBFF",
"b. c gray99",
"n. c #FDFDFC",
"m. c #FDFDFD",
"M. c #FEFEFD",
"N. c #FEFDFE",
"B. c #FDFFFF",
"V. c #FFFEFE",
"C. c #FFFFFE",
"Z. c #FEFEFF",
"A. c white",
/* pixels */
"@ { K K K K K K K K K F 0 e q q B           ",
"; } L L L K K K K K U F 8 w 9 7 K           ",
"& I z b b V V V C C Z A S S D G P           ",
"# ( R Y Y Y Y T T R R R E E W ` J           ",
"$ =.*.%.%.%.%.%.%.%.%.%.%.%.%.-.|           ",
"% 0.>.-.:.;.-.-.-.-.-.-.-.-.-.9.+.          ",
"* t.r.e.6.,.<.<.<.<.<.<.<.<.<.2./ 1 o + O   ",
"= s.i.p.[ ! Q Q Q Q Q Q Q Q ! n r h g j l   ",
"- c.l.x.' k c c c c c c c c c c x c x c ~ . ",
": Z.b.n.O.v N m m m m m m m m m N M N H _   ",
"> A.A.A.1.^ .. . . . . . . . . . . . .X.@.  ",
", A.A.A.4.) $.#.#.#.#.#.#.#.#.#.#.#.#.$.2.  ",
"< A.A.A.7.] &.%.%.%.%.%.%.%.%.%.%.%.%.&.8.  ",
"2 A.N.V.5.o.w.9.9.9.9.9.9.9.9.9.9.9.9.q.a.  ",
"  5 4 3 6 3.u.y.y.y.y.y.y.y.y.y.y.y.y.u.g.  ",
"          d.z.l.l.l.l.l.l.l.l.l.l.l.l.z.v.  ",
"          j.V.m.m.m.m.m.m.m.m.m.m.m.m.M.B.  ",
"          h.C.m.m.m.m.m.m.m.m.m.m.m.m.V.B.  ",
"          f.A.M.M.M.M.M.M.M.M.M.M.M.M.C.B.  ",
"          k.A.A.A.A.A.A.A.A.A.A.A.A.A.A.A.X ",
"          t p y y u i i p p p p a s s d f   ",
"                                            "
};
