/* XPM */
static char *grid[] = {
/* columns rows colors chars-per-pixel */
"16 16 137 2 ",
"   c None",
".  c #58585F",
"X  c #5E5E65",
"o  c #626268",
"O  c #626269",
"+  c #66666D",
"@  c #75757B",
"#  c #75757C",
"$  c #77777E",
"%  c #78787F",
"&  c #87879A",
"*  c #92929F",
"=  c #94949F",
"-  c #9A9AA2",
";  c #9F9FA6",
":  c #9696AA",
">  c #A0A0AB",
",  c #A3A3AA",
"<  c #A6A6AD",
"1  c #A9A9AE",
"2  c #AAAAB0",
"3  c #AEAEB5",
"4  c #B2B2B9",
"5  c #B6B6BC",
"6  c #AEAEC3",
"7  c #AEAEC4",
"8  c #B2B2C1",
"9  c #B2B2C4",
"0  c #B4B4C4",
"q  c #BCBCC3",
"w  c #B5B5D6",
"e  c #BBBAD5",
"r  c #BCBCD7",
"t  c #BBBBD9",
"y  c #BEBEDB",
"u  c #BFBFDC",
"i  c #BEBEDE",
"p  c #BEBEDF",
"a  c #C0C0CA",
"s  c #C2C2CB",
"d  c #C5C5CF",
"f  c #C6C6CF",
"g  c #CACAD3",
"h  c #CBCBD4",
"j  c #CECED6",
"k  c #CFCED7",
"l  c #C0C0DC",
"z  c #C7C7DE",
"x  c #C8C8D8",
"c  c #CBCADB",
"v  c #CACADD",
"b  c #C9C9DF",
"n  c #CDCDDC",
"m  c #CCCCDE",
"M  c #D1D1D8",
"N  c #CDCDE4",
"B  c #CECEE4",
"V  c #CECEE5",
"C  c #CFCFE5",
"Z  c #D2D2E0",
"A  c #D3D3E1",
"S  c #D4D3E1",
"D  c #D4D4E1",
"F  c #D7D7E0",
"G  c #D7D7E1",
"H  c #D0D0E5",
"J  c #D8D8E1",
"K  c #D8D8E2",
"L  c #D9D8E2",
"P  c #DAD9E2",
"I  c #DBDAE2",
"U  c #DBDBE2",
"Y  c #DCDCE3",
"T  c #D8D8E5",
"R  c #DCDCE4",
"E  c #DDDDE5",
"W  c #DCDCE6",
"Q  c #DDDDE6",
"!  c #DDDDE7",
"~  c #D2D2E9",
"^  c #D4D4EA",
"/  c #DBDBE9",
"(  c #DBDBEA",
")  c #DBDBEB",
"_  c #DCDCEA",
"`  c #DEDEEC",
"'  c #DFDFEC",
"]  c #E1E1E9",
"[  c #E2E1EB",
"{  c #E3E3EB",
"}  c #E5E5EB",
"|  c #E3E3EC",
" . c #E1E1EE",
".. c #E2E1EE",
"X. c #E2E2EE",
"o. c #E3E3EF",
"O. c #E6E6EE",
"+. c #ECECEB",
"@. c #EEEEEC",
"#. c #EFEFEC",
"$. c #EEEEED",
"%. c #EFEFEE",
"&. c #F0F0EE",
"*. c #F1F1EF",
"=. c #E3E3F3",
"-. c #E7E7F0",
";. c #E4E4F2",
":. c #E9E9F0",
">. c #EAEAF1",
",. c #EBEBF2",
"<. c #EDEDF4",
"1. c #EFEFF9",
"2. c #F3F3F0",
"3. c gray95",
"4. c #F3F3F3",
"5. c #F4F5F2",
"6. c #F4F4F3",
"7. c #F0F0F6",
"8. c #F5F5F4",
"9. c #F5F6F5",
"0. c #F6F6F4",
"q. c #F7F7F6",
"w. c #F8F8F7",
"e. c #F1F1FA",
"r. c #F8F8F8",
"t. c #F9F9F8",
"y. c #F9F9F9",
"u. c #FAFAF9",
"i. c gray98",
"p. c #FBFCFB",
"a. c #FCFCFB",
"s. c gray99",
"d. c #FDFDFD",
"f. c #FEFEFD",
"g. c #FEFEFE",
"h. c #FFFFFE",
"j. c white",
/* pixels */
"6 ^ V V H l w e v V V V V t p & ",
"9 T A A D S D v m D A S D D / * ",
"a 3.+.+.+.+.&.J E #.+.+.+.+.0.- ",
"f w.3.3.3.3.5._ { 3.3.3.3.3.p.; ",
"g f.r.r.r.r.i.| :.i.r.r.i.0.f., ",
"j f.f.f.s.f.f.;.<.f.f.s.f.f.f.< ",
"M f.f.f.f.f.f.,.7.f.f.f.f.f.f.2 ",
"8 ;.' ' ' ) ) x M =. . . ./ =.- ",
"7 ~ N N V l w t N N N N N u p : ",
"0 E G G J J E n m J U U U U } > ",
"s 0.#.#.%.#.&.D E #.#.<.%.%.w.1 ",
"d r.4.4.4.4.0.E { 0.4.4.4.5.a.3 ",
"h f.i.i.i.r.s. .| f.i.s.i.i.f.4 ",
"k f.f.f.f.f.f.| :.f.f.f.f.f.f.5 ",
"D f.f.f.f.f.f.1.e.f.f.f.f.f.f.q ",
"X $ $ $ @ $ $ + X O O O O O +   "
};
