/* XPM */
static char *grid[] = {
/* columns rows colors chars-per-pixel */
"22 22 199 2 ",
"   c None",
".  c #49494F",
"X  c #494950",
"o  c #4B4B52",
"O  c #4C4C52",
"+  c #74747F",
"@  c #747482",
"#  c #7A7A86",
"$  c #7F7F8A",
"%  c #7D7D8C",
"&  c #82828C",
"*  c #84848E",
"=  c #878690",
"-  c #898991",
";  c #8A8A92",
":  c #8B8B9B",
">  c #8F8F9A",
",  c #8C8C9D",
"<  c #94939E",
"1  c #9797A0",
"2  c #9999A2",
"3  c #9999A3",
"4  c #9C9CA5",
"5  c #9E9EA6",
"6  c #9B9BAB",
"7  c #A1A1A9",
"8  c #A7A7BB",
"9  c #A9A9BF",
"0  c #ABABBF",
"q  c #ADACBD",
"w  c #B0B0BF",
"e  c #ABABC2",
"r  c #B6B6C3",
"t  c #B7B6C4",
"y  c #B4B4C7",
"u  c #B9B9C6",
"i  c #BABAC7",
"p  c #BDBCC9",
"a  c #BDBDC9",
"s  c #B0B0D2",
"d  c #B3B2D3",
"f  c #B1B1D4",
"g  c #B3B3D5",
"h  c #B7B6D6",
"j  c #B9B9D1",
"k  c #BAB9D7",
"l  c #BABAD9",
"z  c #BFBFD8",
"x  c #BFBFDB",
"c  c #BEBEDF",
"v  c #C0BFCC",
"b  c #C0C0CC",
"n  c #C2C2CE",
"m  c #C4C3CF",
"M  c #C4C4CF",
"N  c #C3C3D0",
"B  c #C3C3D5",
"V  c #C8C8D7",
"C  c #C2C1D9",
"Z  c #C3C3D9",
"A  c #C7C7D8",
"S  c #C1C1DC",
"D  c #C3C3DD",
"F  c #C4C4DE",
"G  c #C5C5DE",
"H  c #C6C6DF",
"J  c #C7C7DF",
"K  c #C8C8DD",
"L  c #C8C8DF",
"P  c #CBCBDF",
"I  c #CCCBDF",
"U  c #CECEDC",
"Y  c #CFCFDD",
"T  c #CCCCDE",
"R  c #CCCCDF",
"E  c #CDCCDF",
"W  c #CDCDDF",
"Q  c #CECDDF",
"!  c #D0D0DC",
"~  c #D0D0DD",
"^  c #C3C3E1",
"/  c #C9C9E0",
"(  c #CBCBE2",
")  c #CCCBE2",
"_  c #CDCCE0",
"`  c #CECEE0",
"'  c #CCCCE2",
"]  c #CECEE9",
"[  c #D3D3E0",
"{  c #D4D4E1",
"}  c #D6D6E1",
"|  c #D6D6E3",
" . c #D0D0E4",
".. c #D2D2E4",
"X. c #D3D3E5",
"o. c #D0D0E6",
"O. c #D1D1E6",
"+. c #D0D0E7",
"@. c #D1D1E7",
"#. c #D2D2E6",
"$. c #D2D2E7",
"%. c #D2D3E7",
"&. c #D3D3E7",
"*. c #D4D4E6",
"=. c #D5D5E7",
"-. c #D6D6E7",
";. c #DDDCE1",
":. c #DDDCE2",
">. c #DDDDE2",
",. c #DEDEE2",
"<. c #DEDEE3",
"1. c #DFDFE3",
"2. c #D8D8E4",
"3. c #DADAE4",
"4. c #DADAE5",
"5. c #DADAE6",
"6. c #DBDBE7",
"7. c #D5D5E8",
"8. c #D6D6E9",
"9. c #D7D7EC",
"0. c #D9D9E9",
"q. c #DBDBE8",
"w. c #DADAE9",
"e. c #DADAEA",
"r. c #DBDBEA",
"t. c #DCDCE8",
"y. c #DCDCE9",
"u. c #DEDDE8",
"i. c #DEDEE8",
"p. c #DFDEEA",
"a. c #DFDFEA",
"s. c #D8D8ED",
"d. c #DCDCEC",
"f. c #DCDCEE",
"g. c #DDDDF0",
"h. c #E1E1E4",
"j. c #E2E2E6",
"k. c gray90",
"l. c #E5E5E6",
"z. c #E7E7E7",
"x. c #E8E8E7",
"c. c #E0E0EB",
"v. c #E1E1EB",
"b. c #E2E2EB",
"n. c #E1E1EC",
"m. c #E3E3ED",
"M. c #E7E7EC",
"N. c #E6E6EF",
"B. c #EAEAE8",
"V. c gray92",
"C. c #EDEDEC",
"Z. c gray93",
"A. c #EEEEED",
"S. c #EFEFED",
"D. c #EEEEEE",
"F. c #F0F0EF",
"G. c #E6E6F0",
"H. c #E9E9F2",
"J. c #EBEAF3",
"K. c gray94",
"L. c #F1F1F1",
"P. c #F2F2F1",
"I. c gray95",
"U. c #F3F3F2",
"Y. c #F4F4F2",
"T. c #F4F4F3",
"R. c #F5F5F3",
"E. c gray96",
"W. c #F6F6F6",
"Q. c #F7F7F6",
"!. c gray97",
"~. c #F8F8F7",
"^. c #F9F9F7",
"/. c #F2F2F8",
"(. c #F2F2F9",
"). c #F3F2F9",
"_. c #F3F3F9",
"`. c #F4F4FA",
"'. c #F9F9F8",
"]. c #F9F9F9",
"[. c #F9F9FA",
"{. c #F9F9FB",
"}. c gray98",
"|. c #FBFBFA",
" X c #FAFAFB",
".X c #FBFBFB",
"XX c #FBFCFB",
"oX c #FCFCFB",
"OX c #FBFBFC",
"+X c #FAFAFF",
"@X c #FBFBFF",
"#X c #FDFDFC",
"$X c #FDFDFD",
"%X c #FEFEFD",
"&X c #FDFDFF",
"*X c #FEFEFE",
"=X c #FFFFFE",
"-X c #FEFEFF",
";X c white",
/* pixels */
"8 s.#.#.#.#.&.S d h j K &.#.#.#.#.#.k d ^ @ ",
"e +.( ( ( ) ' J D F H / ( ( ( ( ) ' G D ] % ",
"q j.;.>.>.>.>.,.1.h.A U ,.:.>.>.>.>.<.1.M.# ",
"r Y.C.C.C.C.C.C.C.S.~ 3.S.C.C.C.C.C.C.C.W.$ ",
"u Q.K.K.K.K.K.K.K.U.{ i.P.K.K.K.K.K.K.L.[.& ",
"p XXE.E.E.E.E.E.E.Q.2.b.Q.E.E.E.E.E.E.E.-X* ",
"v ;X].].].].].].].oX6.N.|.].].].].].].].;X= ",
"n ;X$X$X$X$X$X$X$X;Xp.H.=X$X$X$X$X$X$X$X;X- ",
"m ;X*X*X%X%X%X%X%X;Xc.J.;X*X*X%X%X%X%X*X;X; ",
"m ;X X X X X X.XOX%Xn.H..X[.[.{. X X.XOX;X; ",
"6 f.=.=.=.=.-.X. .7.y B d.0.w.e.e.r.*...g.+ ",
"0 9.O.O.O.O.%.x s g z L $.o.o.o.o.@.l f c , ",
"9  .P P I R R P P _ C Z W T E W W W Q ` 8.: ",
"w V.k.l.l.l.l.l.l.x.V ! B.z.z.z.z.z.x.x.K.> ",
"t T.A.A.A.A.A.A.Z.F.Y } F.D.D.D.D.D.D.D.!.< ",
"i ~.I.I.I.I.I.I.I.T.[ 4.R.I.I.I.I.I.I.I..X1 ",
"a #XW.W.W.W.W.W.W.^.| u.'.W.W.W.W.W.W.W.;X3 ",
"b ;X}.}.}.}.}.}.}.#X5.v.%X.X.X.X.X.X.X.X;X4 ",
"n ;X$X$X$X$X$X$X$X;Xt.m.;X$X$X$X$X$X$X$X;X5 ",
"M ;X=X=X=X=X=X=X=X;Xa.G.;X;X;X;X;X;X;X;X;X7 ",
"N ;X+X+X@X@X@X@X@X;Xy.q.`././.(.)._._._.&X2 ",
"  o . X X X X X X O                         "
};
