/* XPM */
static char *haskell[] = {
/* columns rows colors chars-per-pixel */
"25 15 105 2 ",
"   c None",
".  c #312843",
"X  c #322A46",
"o  c #322B49",
"O  c #342B49",
"+  c #352C4B",
"@  c #3B3254",
"#  c #3C3254",
"$  c #3C3255",
"%  c #3C3256",
"&  c #3D3356",
"*  c #3E3458",
"=  c #42375E",
"-  c #42385D",
";  c #44385F",
":  c #44395F",
">  c #443960",
",  c #443961",
"<  c #453A62",
"1  c #443A63",
"2  c #453A63",
"3  c #463B63",
"4  c #463B64",
"5  c #473B65",
"6  c #473B66",
"7  c #473C64",
"8  c #473C65",
"9  c #473C66",
"0  c #483D66",
"q  c #483D67",
"w  c #493D67",
"e  c #4A3E69",
"r  c #4A3F6A",
"t  c #643663",
"y  c #4D416D",
"u  c #4D426F",
"i  c #4E426F",
"p  c #4F4472",
"a  c #514575",
"s  c #524574",
"d  c #524675",
"f  c #524576",
"g  c #544879",
"h  c #554879",
"j  c #55487A",
"k  c #56497B",
"l  c #57497B",
"z  c #56497C",
"x  c #57497C",
"c  c #574A7C",
"v  c #574A7D",
"b  c #564B7F",
"n  c #584A7D",
"m  c #584B7E",
"M  c #594B7E",
"N  c #594B7F",
"B  c #754070",
"V  c #794374",
"C  c #7A4475",
"Z  c #7E4379",
"A  c #7F467C",
"S  c #5A4C81",
"D  c #5A4D81",
"F  c #5B4D81",
"G  c #5B4D83",
"H  c #5B4E83",
"J  c #5C4E83",
"K  c #5C4E84",
"L  c #5D4E84",
"P  c #5D4E85",
"I  c #5D4F85",
"U  c #5D4F86",
"Y  c #5E5086",
"T  c #5E5087",
"R  c #5F5088",
"E  c #5F5188",
"W  c #5F5189",
"Q  c #605189",
"!  c #60528A",
"~  c #61528A",
"^  c #61528B",
"/  c #62538C",
"(  c #63548D",
")  c #64548E",
"_  c #64558F",
"`  c #655590",
"'  c #655691",
"]  c #665691",
"[  c #675793",
"{  c #685894",
"}  c #685895",
"|  c #695996",
" . c #6A5A98",
".. c #6A5A99",
"X. c #6D5C9B",
"o. c #874A83",
"O. c #8F4E8B",
"+. c #904E8C",
"@. c #914E8C",
"#. c #924F8E",
"$. c #955191",
"%. c #955291",
"&. c #965291",
"*. c #975393",
"=. c #985394",
/* pixels */
"* 7 , 4 @   4 k k m u                             ",
"  , , , w X   d x x L ,                           ",
"    7 , , w     m x m R                           ",
"      w , , 7     H m H R                         ",
"      + w , 4 ;     L H L H     t                 ",
"        & 7 , 7 &   u L H ! d   +.$.$.$.$.$.$.$.$.",
"          = , , w .   k L L )     +.+.O.O.O.O.O.O.",
"            w , , r     ! L R '                   ",
"          - , , w o   d L L R ! '     o.A A A A A ",
"        & 7 , 7 &   r L H T ! ! ) !   Z =.$.$.$.$.",
"        w , , ,     L H L H x ( / ' x   B C V V V ",
"      w , , 7     J m H !     T ) )  .u           ",
"    7 , , w     k m m R         ' ' ' X.          ",
"  ; 4 , w O   p x x L 7           | ' | X.        ",
"& 4 , 4 &   , k k m d               | '  . .      "
};
