/* XPM */
static char *memory[] = {
/* columns rows colors chars-per-pixel */
"22 22 207 2 ",
"   c None",
".  c #234400",
"X  c #234500",
"o  c #244601",
"O  c #284C00",
"+  c #284E00",
"@  c #295000",
"#  c #2B5300",
"$  c #2C5005",
"%  c #2F5C00",
"&  c #2F5C01",
"*  c #2F5408",
"=  c #305D00",
"-  c #305E00",
";  c #315808",
":  c #356502",
">  c #336004",
",  c #356800",
"<  c #366C00",
"1  c #376D00",
"2  c #376F00",
"3  c #386E00",
"4  c #3C6F05",
"5  c #3B640E",
"6  c #3B650F",
"7  c #3B6A0A",
"8  c #367100",
"9  c #377200",
"0  c #377402",
"q  c #397100",
"w  c #3B7000",
"e  c #3A7100",
"r  c #387200",
"t  c #397200",
"y  c #3B7300",
"u  c #3E7101",
"i  c #3C7102",
"p  c #3E7303",
"a  c #397400",
"s  c #3C7400",
"d  c #3C7401",
"f  c #3E7601",
"g  c #387306",
"h  c #3D7104",
"j  c #3A7607",
"k  c #3D7910",
"l  c #3F7915",
"z  c #407506",
"x  c #42750A",
"c  c #44790E",
"v  c #487A0E",
"b  c #406912",
"n  c #456D17",
"m  c #477911",
"M  c #467A12",
"N  c #427C16",
"B  c #4A7A15",
"V  c #4D7E19",
"C  c #507B1E",
"Z  c #4A7E21",
"A  c #535257",
"S  c #525359",
"D  c #52525A",
"F  c #545258",
"G  c #565359",
"H  c #555C68",
"J  c #615D61",
"K  c #5A6067",
"L  c #5E7A6C",
"P  c #666367",
"I  c #666467",
"U  c #6A696E",
"Y  c #696770",
"T  c #696B75",
"R  c #677372",
"E  c #627A77",
"W  c #607879",
"Q  c #528415",
"!  c #54851C",
"~  c #55861C",
"^  c #4F8121",
"/  c #4E8323",
"(  c #518024",
")  c #558024",
"_  c #588620",
"`  c #528329",
"'  c #53872B",
"]  c #50852F",
"[  c #598728",
"{  c #56892A",
"}  c #5A882A",
"|  c #5E882A",
" . c #5E8A2C",
".. c #558A32",
"X. c #548B38",
"o. c #628D31",
"O. c #648F33",
"+. c #669333",
"@. c #61943E",
"#. c #64943C",
"$. c #6A9538",
"%. c #6B9639",
"&. c #6F983D",
"*. c #6F9A3E",
"=. c #77943E",
"-. c #5A8749",
";. c #6E9042",
":. c #699244",
">. c #689546",
",. c #66944C",
"<. c #6E9A4B",
"1. c #719B42",
"2. c #749D41",
"3. c #759B45",
"4. c #729A4B",
"5. c #7B9A4E",
"6. c #678C5B",
"7. c #619852",
"8. c #66955C",
"9. c #69995D",
"0. c #729E50",
"q. c #729E53",
"w. c #739F54",
"e. c #7AA349",
"r. c #79A14B",
"t. c #7CA44A",
"y. c #7AA14C",
"u. c #6EA15D",
"i. c #7EA651",
"p. c #79A256",
"a. c #75A15B",
"s. c #79A25B",
"d. c #7DA659",
"f. c #7AA35D",
"g. c #648B60",
"h. c #609260",
"j. c #679461",
"k. c #6E9F62",
"l. c #699E69",
"z. c #699B6D",
"x. c #729E67",
"c. c #73936F",
"v. c #709E6D",
"b. c #6C8373",
"n. c #7EA662",
"m. c #7AA164",
"M. c #7CA665",
"N. c #7DAC6B",
"B. c #72A372",
"V. c #79A873",
"C. c #79A874",
"Z. c #7FAA74",
"A. c #70A27E",
"S. c #809B47",
"D. c #8F994D",
"F. c #8E9E57",
"G. c #B19E4F",
"H. c #80A751",
"J. c #80A855",
"K. c #80A856",
"L. c #82A75D",
"P. c #80A859",
"I. c #80A95A",
"U. c #87AC5C",
"Y. c #9CAD5F",
"T. c #A2A344",
"R. c #A8A65E",
"E. c #B5A45B",
"W. c #88A965",
"Q. c #9CA461",
"!. c #91B465",
"~. c #82B175",
"^. c #9BBB72",
"/. c #A0A969",
"(. c #BEB769",
"). c #A2AE72",
"_. c #D4B44D",
"`. c #C3A356",
"'. c #C3AE50",
"]. c #D5A350",
"[. c #C2AE61",
"{. c #D4AA62",
"}. c #DDAD6B",
"|. c #DFB76B",
" X c #D7B272",
".X c #647C80",
"XX c #717380",
"oX c #648582",
"OX c #698587",
"+X c #688786",
"@X c #79858F",
"#X c #78888E",
"$X c #6F9B81",
"%X c #6E948B",
"&X c #789183",
"*X c #788491",
"=X c #788A91",
"-X c #7A8D93",
";X c #7C8F97",
":X c #769191",
">X c #729690",
",X c #7C9C9B",
"<X c #79A987",
"1X c #7EA98B",
"2X c #7AA590",
"3X c #8AB297",
"4X c #93B893",
/* pixels */
"                                  7         ",
"                              o r.!.        ",
"                            5 t.3.*.        ",
"                          C K.C.M._ !       ",
"                        O.I.<X;X&X<.4XB     ",
"                    $ 2.p.2X@XP K j.x.~ O   ",
"                  b i.0.q.#XJ S OXZ.+.v p   ",
"                ) J.B.,Xm.c.H >X~.L.).} e % ",
"              $.d.A.-XY b.s.1XN.W.{.E./ y # ",
"          * e.%.8.*XI A .Xf.y.Y.|.Q.N q     ",
"        n H.k.$X,.R D +XV.w.n.(.S.j <       ",
"       .P.l.:XXX6.g.%Xu.4.`./...a -         ",
"    1.&.h.=XU G E #.@.5.].G.^ t @           ",
"; U.o.< -.T F W z.{ F.}.D.k 2               ",
"6 ^.m 1 c L oX7.' R. X;.0 ,                 ",
"  > V M u ] X.[ '.[.` 9 =                   ",
"    a.3Xi w | _.T.l r +                     ",
"    ( >.h 9.:.=.g 3                         ",
"    . Q x v.Z 8 ,                           ",
"      4 z 3 s &                             ",
"        f d X                               ",
"        :                                   "
};
