/* XPM */
static char *memory[] = {
/* columns rows colors chars-per-pixel */
"16 16 111 2 ",
"   c None",
".  c #214200",
"X  c #234700",
"o  c #2E4B0B",
"O  c #275300",
"+  c #2A5002",
"@  c #295700",
"#  c #345A08",
"$  c #355411",
"%  c #3A5C1B",
"&  c #2E6400",
"*  c #316100",
"=  c #336201",
"-  c #306800",
";  c #366B00",
":  c #336F00",
">  c #367200",
",  c #3F7700",
"<  c #3B7305",
"1  c #3E7304",
"2  c #407909",
"3  c #467A0A",
"4  c #457C0D",
"5  c #487B0A",
"6  c #44671B",
"7  c #4A6E1F",
"8  c #457915",
"9  c #487D11",
"0  c #457119",
"q  c #4B741E",
"w  c #4B7819",
"e  c #557D2A",
"r  c #4F7B32",
"t  c #585A64",
"y  c #5B5A67",
"u  c #5E5D69",
"i  c #645F6C",
"p  c #5B676E",
"a  c #696975",
"s  c #617175",
"d  c #6B7079",
"f  c #607978",
"g  c #478218",
"h  c #54871F",
"j  c #4F852A",
"k  c #588622",
"l  c #518229",
"z  c #5A832C",
"x  c #5A8C3E",
"c  c #668D2E",
"v  c #608932",
"b  c #668F34",
"n  c #658F3F",
"m  c #669237",
"M  c #629339",
"N  c #6E953B",
"B  c #6A953C",
"V  c #749038",
"C  c #7F933B",
"Z  c #719D3C",
"A  c #5F8E56",
"S  c #599053",
"D  c #609040",
"F  c #6E9840",
"G  c #729C41",
"H  c #7C9843",
"J  c #638A57",
"K  c #6F9E57",
"L  c #75A14C",
"P  c #79A54C",
"I  c #75A25F",
"U  c #79A75B",
"Y  c #7CA95B",
"T  c #6A8967",
"R  c #66876D",
"E  c #6C9162",
"W  c #6B9964",
"Q  c #67916F",
"!  c #779B65",
"~  c #72946B",
"^  c #648079",
"/  c #759F76",
"(  c #709578",
")  c #789B7C",
"_  c #74A165",
"`  c #76A564",
"'  c #7DA966",
"]  c #7BA776",
"[  c #8F9B38",
"{  c #94963F",
"}  c #949E40",
"|  c #84A65B",
" . c #89AF5A",
".. c #96A058",
"X. c #B2A252",
"o. c #B8AA52",
"O. c #BDA65F",
"+. c #8CAD67",
"@. c #95AF66",
"#. c #9DA862",
"$. c #80AB76",
"%. c #83AF76",
"&. c #B6B160",
"*. c #C1AD6B",
"=. c #C8AE6B",
"-. c #737E85",
";. c #727C86",
":. c #738F85",
">. c #789786",
",. c #739D82",
"<. c #7DA28D",
/* pixels */
"                        q       ",
"                      b  .      ",
"                  o L ] m w     ",
"                6 Y <.-.E %.#   ",
"              z P ) a y ( M 5   ",
"            B ] >.! s ,.+.#.9 = ",
"        $ Z / -.u ~ ' @.=.C <   ",
"      7 U W T y ^ _ | &.c -     ",
"    v ` :.d J Q K X...g @       ",
"  F h R i p A N O.{ 2 X         ",
"e G - r f S H *.V :             ",
"  0 D 1 j [ o.k &               ",
"  % I 8 n } 4 O                 ",
"    5 l x > .                   ",
"    + , ;                       ",
"      =                         "
};
