/* XPM */
static char *monocle[] = {
/* columns rows colors chars-per-pixel */
"22 22 139 2 ",
"   c None",
".  c #79798C",
"X  c #92929F",
"o  c #9898A5",
"O  c #9898A6",
"+  c #9999A6",
"@  c #9B9BA7",
"#  c #9090AA",
"$  c #9595AC",
"%  c #9594AD",
"&  c #9796AE",
"*  c #9D9DAB",
"=  c #9898AE",
"-  c #9898AF",
";  c #9A99B0",
":  c #9B9BB1",
">  c #9C9CB1",
",  c #9D9DB2",
"<  c #9D9DB3",
"1  c #9E9EB3",
"2  c #9F9FB3",
"3  c #A09FB3",
"4  c #A0A0B4",
"5  c #A1A0B4",
"6  c #A2A1B5",
"7  c #A4A4B7",
"8  c #A3A2C9",
"9  c #A4A3CA",
"0  c #A6A6CB",
"q  c #A7A7CC",
"w  c #A8A7CC",
"e  c #BDBDD8",
"r  c #BFBFD9",
"t  c #C1C1DC",
"y  c #C3C2DF",
"u  c #C5C5DD",
"i  c #C6C6DE",
"p  c #C7C7DF",
"a  c #C8C7DF",
"s  c #C8C8DF",
"d  c #CFCEDF",
"f  c #D4D4DB",
"g  c #D5D4DB",
"h  c #D1D0DC",
"j  c #D5D5DC",
"k  c #D6D5DC",
"l  c #D6D6DC",
"z  c #D9D8DE",
"x  c #C4C3E0",
"c  c #C4C4E0",
"v  c #C7C6E1",
"b  c #C8C8E0",
"n  c #C9C8E0",
"m  c #C9C9E0",
"M  c #C8C8E1",
"N  c #CAC9E0",
"B  c #CBCAE1",
"V  c #CBCBE1",
"C  c #CCCCE4",
"Z  c #CFCFE5",
"A  c #CFCFE7",
"S  c #CFD0E5",
"D  c #D0D0E5",
"F  c #D2D2E5",
"G  c #D1D1E6",
"H  c #D6D6EA",
"J  c #D4D4EC",
"K  c #D7D7ED",
"L  c #D9D9E9",
"P  c #DADAEA",
"I  c #DDDDE9",
"U  c #DFDEEA",
"Y  c #D8D8ED",
"T  c #D8D8EF",
"R  c #DADAF0",
"E  c #E6E5EA",
"W  c #E6E6EB",
"Q  c #E1E1ED",
"!  c #E4E4EF",
"~  c #EBEBEA",
"^  c gray92",
"/  c #EDEDEB",
"(  c #E9E9EE",
")  c #EDEDEC",
"_  c gray93",
"`  c #EFEFEE",
"'  c #F0F0EF",
"]  c #E1E1F2",
"[  c #E7E6F1",
"{  c #EBEBF0",
"}  c #E9E9F3",
"|  c #EEEEF3",
" . c #ECEBF5",
".. c #EEEDF7",
"X. c gray94",
"o. c #F1F1F1",
"O. c #F2F2F1",
"+. c gray95",
"@. c #F4F4F3",
"#. c #F0F0F5",
"$. c #F3F2F7",
"%. c #F4F4F4",
"&. c #F5F5F4",
"*. c #F6F6F5",
"=. c #F7F7F5",
"-. c #F6F6F6",
";. c #F8F8F7",
":. c #F0F0F9",
">. c #F1F1F9",
",. c #F1F1FA",
"<. c #F2F2FA",
"1. c #F3F3FA",
"2. c #F3F3FB",
"3. c #F5F5F9",
"4. c #F4F4FB",
"5. c #F3F3FC",
"6. c #F3F3FE",
"7. c #F4F4FC",
"8. c #F5F5FC",
"9. c #F5F5FD",
"0. c #F6F5FD",
"q. c #F5F5FF",
"w. c #F8F7FF",
"e. c #F8F8F8",
"r. c #F9F9F8",
"t. c #FAFAF9",
"y. c #FBFBFA",
"u. c #FBFBFB",
"i. c #F8F8FC",
"p. c #FAFAFE",
"a. c #FBFBFF",
"s. c #FDFDFC",
"d. c #FDFDFD",
"f. c #FEFEFD",
"g. c #FDFDFF",
"h. c #FEFEFE",
"j. c #FEFFFE",
"k. c #FFFFFE",
"l. c white",
/* pixels */
". ] L L L L L L L L L L L P F e p r u i H   ",
"< Y Z Z Z Z Z Z Z Z Z Z Z G t 8 q 9 0 w R   ",
"$ K D D D D D D D D D D S D C y M x v c T   ",
"= A p p a s s b b b n n m m N V B V V V J   ",
"# h j f f g g j j j j j k k l l l l l z d   ",
"% E / ~ ~ ~ ~ ~ ~ ~ ~ ~ ~ ~ ~ ~ ~ ~ ~ / I   ",
"& W ) ^ ^ ^ ^ ^ ^ ^ ^ ^ ^ ^ ^ ^ ^ ^ ^ ) U   ",
"- ( ` _ _ _ _ _ _ _ _ _ _ _ _ _ _ _ _ ' Q   ",
"; { o.X.X.X.X.X.X.X.X.X.X.X.X.X.X.X.X.O.!   ",
": | @.+.+.+.+.+.+.+.+.+.+.+.+.+.+.+.+.&.[   ",
"> #.*.%.%.%.%.%.%.%.%.%.%.%.%.%.%.%.%.=.}   ",
", $.;.-.-.-.-.-.-.-.-.-.-.-.-.-.-.-.-.r. .  ",
", 3.t.e.e.e.e.e.e.e.e.e.e.e.e.e.e.e.e.y...  ",
"1 i.s.u.u.u.u.u.u.u.u.u.u.u.u.u.u.u.u.f.,.  ",
"2 p.k.d.d.d.d.d.d.d.d.d.d.d.d.d.d.d.d.k.5.  ",
"3 p.k.d.d.d.d.d.d.d.d.d.d.d.d.d.d.d.d.l.7.  ",
"4 a.j.d.d.d.d.d.d.d.d.d.d.d.d.d.d.d.d.k.9.  ",
"5 a.h.d.d.d.d.d.d.d.d.d.d.d.d.d.d.d.d.k.0.  ",
"6 g.l.k.k.k.k.k.k.k.k.k.k.k.k.k.k.k.k.l.w.  ",
"7 6.>.:.:.>.>.>.<.<.<.<.<.1.1.2.2.4.4.8.q.  ",
"  * O o o o o o o o o O O O + + + + + @ X   ",
"                                            "
};
