/* XPM */
static char *monocle[] = {
/* columns rows colors chars-per-pixel */
"16 16 95 2 ",
"   c None",
".  c #63636D",
"X  c #6D6D7C",
"o  c #71717E",
"O  c #73727F",
"+  c #727281",
"@  c #747481",
"#  c #767682",
"$  c #777783",
"%  c #787884",
"&  c #7A7A85",
"*  c #7B7B85",
"=  c #787886",
"-  c #7B7B86",
";  c #7F7F8A",
":  c #9696A4",
">  c #9696AA",
",  c #9E9EB4",
"<  c #A1A1B8",
"1  c #A5A5B8",
"2  c #A7A7BA",
"3  c #A5A5BC",
"4  c #AAA9BC",
"5  c #ACABBD",
"6  c #ADADBE",
"7  c #AFAEC0",
"8  c #B0B0C1",
"9  c #B1B1C1",
"0  c #B2B2C2",
"q  c #B6B6C6",
"w  c #B3B2D5",
"e  c #B3B3D5",
"r  c #B7B7D5",
"t  c #B4B4D6",
"y  c #B8B8D5",
"u  c #B9B9D6",
"i  c #C5C5DF",
"p  c #C9C9DF",
"a  c #CAC9DF",
"s  c #CACAE0",
"d  c #CBCBE0",
"f  c #CCCCE1",
"g  c #CDCCE1",
"h  c #CACAE7",
"j  c #CECEE5",
"k  c #CFCFE5",
"l  c #CFCFE6",
"z  c #D5D5E2",
"x  c #D6D5E2",
"c  c #D6D6E2",
"v  c #D6D6E3",
"b  c #D7D7E3",
"n  c #D8D8E3",
"m  c #DDDDE1",
"M  c #DEDDE1",
"N  c #DEDEE1",
"B  c #DFDFE2",
"V  c #D8D8E4",
"C  c #D0D0E9",
"Z  c #D6D6E8",
"A  c #D7D7E9",
"S  c #D5D5EB",
"D  c #D6D5EC",
"F  c #DCDCE9",
"G  c #DEDEF0",
"H  c #E1E0E5",
"J  c #E2E2E9",
"K  c #E0E0ED",
"L  c gray92",
"P  c #EBECEB",
"I  c #ECECEB",
"U  c #EEEEEE",
"Y  c #F0F0EF",
"T  c #EFEFF2",
"R  c #F1F1F1",
"E  c #F2F2F1",
"W  c gray95",
"Q  c #F2F2F5",
"!  c #F4F4F4",
"~  c #F5F5F4",
"^  c gray96",
"/  c gray97",
"(  c #F8F8F7",
")  c #F5F5F8",
"_  c #F8F8F9",
"`  c gray98",
"'  c #FBFBFA",
"]  c #F8F8FC",
"[  c gray99",
"{  c #FDFDFD",
"}  c #FDFEFD",
"|  c #FEFEFD",
" . c #FCFCFF",
".. c #FEFEFE",
"X. c white",
/* pixels */
"> G S Z S Z Z Z Z Z a y y y C   ",
"3 S k k j j k k j j i e r e h = ",
"< k p p s s s s p p a a k a D + ",
", H m m m m m m m H m H m H J X ",
"1 U L L I L L L L L L L L I E o ",
"2 E U U U U U U U U U U I U Q o ",
"2 ^ E E E E E E Y E E E Y ! ) @ ",
"6 _ ^ ! ! ! E ! ! Q ! ~ ~ ^ ] @ ",
"6 ..( _ _ _ ^ ( ^ _ _ ( / ( ..$ ",
"6 .._ _ _ _ ' _ ' _ _ _ _ ' ..= ",
"9 ....' ............' [ ......= ",
"9 ......' .._ ................* ",
"9 ......................' ....* ",
"q ..........................~ : ",
": F b b b b b b b b b b n V V . ",
"                                "
};
