/* XPM */
static char *music[] = {
/* columns rows colors chars-per-pixel */
"22 22 184 2 ",
"   c None",
".  c #0E0A11",
"X  c #101011",
"o  c #18111B",
"O  c #1A1B1A",
"+  c #062402",
"@  c #062B01",
"#  c #092E02",
"$  c #15250E",
"%  c #0C3104",
"&  c #063C00",
"*  c #083E01",
"=  c #153A0E",
"-  c #1F381C",
";  c #1E1B20",
":  c #221C25",
">  c #2F3A2C",
",  c #323F2E",
"<  c #302C33",
"1  c #323133",
"2  c #353832",
"3  c #3D3D3D",
"4  c #0C4102",
"5  c #154B05",
"6  c #16480D",
"7  c #1B4C0D",
"8  c #124507",
"9  c #1B5007",
"0  c #1B4415",
"q  c #244F0A",
"w  c #28560F",
"e  c #285E0D",
"r  c #244D13",
"t  c #244D1D",
"y  c #29451C",
"u  c #205210",
"i  c #2A5516",
"p  c #2F511C",
"a  c #0B6B00",
"s  c #106E04",
"d  c #1B6F06",
"f  c #0E7101",
"g  c #147203",
"h  c #197605",
"j  c #167902",
"k  c #1C7D04",
"l  c #1C740F",
"z  c #1D7B0E",
"x  c #1E7812",
"c  c #1F7614",
"v  c #26690A",
"b  c #2A7909",
"n  c #247A0A",
"m  c #30760C",
"M  c #3C6F1A",
"N  c #247C15",
"B  c #287F17",
"V  c #264023",
"C  c #2C4626",
"Z  c #2E472B",
"A  c #304721",
"S  c #324C2B",
"D  c #2A5025",
"F  c #345A25",
"G  c #355128",
"H  c #3B562F",
"J  c #335A2B",
"K  c #3D433A",
"L  c #364F33",
"P  c #3B5533",
"I  c #3B5831",
"U  c #3F573A",
"Y  c #3F5938",
"T  c #355B30",
"R  c #37652B",
"E  c #39672C",
"W  c #3F6E28",
"Q  c #3B6D24",
"!  c #3D742A",
"~  c #44732A",
"^  c #48653E",
"/  c #476D3E",
"(  c #447237",
")  c #527E34",
"_  c #3F3A41",
"`  c #413E43",
"'  c #444045",
"]  c #464F41",
"[  c #49474B",
"{  c #585858",
"}  c #496146",
"|  c #4D6B42",
" . c #546D4F",
".. c #56764A",
"X. c #5E6F58",
"o. c #5E6D54",
"O. c #587550",
"+. c #6A696A",
"@. c #7C7C7C",
"#. c #228305",
"$. c #258A03",
"%. c #258409",
"&. c #278808",
"*. c #2A8B09",
"=. c #2D840A",
"-. c #368F08",
";. c #37870D",
":. c #2E9209",
">. c #359607",
",. c #369907",
"<. c #34950B",
"1. c #3A990B",
"2. c #2B8416",
"3. c #278118",
"4. c #2C8418",
"5. c #298514",
"6. c #3E841D",
"7. c #338B1A",
"8. c #348918",
"9. c #349110",
"0. c #3C9112",
"q. c #379B10",
"w. c #389A12",
"e. c #36901A",
"r. c #3C941B",
"t. c #3D9A1D",
"y. c #348D20",
"u. c #40930F",
"i. c #40861E",
"p. c #429E11",
"a. c #429B1D",
"s. c #4A9D12",
"d. c #42A60D",
"f. c #4EB10F",
"g. c #45A413",
"h. c #4CA613",
"j. c #47A810",
"k. c #4BAC11",
"l. c #46A11F",
"z. c #4BA61E",
"x. c #50AE12",
"c. c #4EB211",
"v. c #54B413",
"b. c #58B616",
"n. c #57B814",
"m. c #498527",
"M. c #468823",
"N. c #4D9C22",
"B. c #539329",
"V. c #4DA421",
"C. c #54A324",
"Z. c #53AD22",
"A. c #5BAE25",
"S. c #5CB425",
"D. c #5FBB21",
"F. c #61B327",
"G. c #61BD25",
"H. c #65B928",
"J. c #6ABD2A",
"K. c #62B72D",
"L. c #6EC12A",
"P. c #62C023",
"I. c #70C32A",
"U. c #578141",
"Y. c #6D885C",
"T. c #7F857D",
"R. c #808180",
"E. c #8A868C",
"W. c #8C898E",
"Q. c #979499",
"!. c #9A949D",
"~. c #AEA7B0",
"^. c #B1ACB4",
"/. c #BFBEBF",
"(. c #B3B9B1",
"). c #A1CA8B",
"_. c #CCE4B9",
"`. c #C1BFC1",
"'. c #CCCBCC",
"]. c #CCD6C5",
"[. c gray86",
"{. c #DFDDE0",
"}. c #E6E6E7",
"|. c #EBE7ED",
/* pixels */
"    M C.A.F.H.J.L.I.I.I.I.J.J.H.S.A.C.M     ",
"  6.l.a.V.V.Z.S.G.G.G.A.A.C.N.N.V.V.a.V.i.  ",
"  t.r.t.a.z.Z.C.B.m.Y.o.] K 1 F V.a.N.r.t.  ",
"u 7.7.r.a.l.W K _ _ [ ` 1 1 < G V.t.r.r.t.u ",
"7 7.8.7.r.a.H _ 3 3 3 3 ` K ` P t.t.e.7.y.7 ",
"6 3.3.4.7.7.^ ' ' ` _ ` ` 3 ` P t.7.7.8.7.7 ",
"6 B N B 4.8.O.' K H ~ m.M.6./ Y 7.7.4.3.4.6 ",
"& z N N N N  .L 8.z.G.G.Z.g...U 4.4.3.N %.4 ",
"& a s l c c } J 8.a.S.S.N.7./ P N N v g f * ",
"& a a a a a L D l N t.a.N x T Z s a a a f * ",
"& f a a a a > 6 g h <.9.g f 0 - a a a a a * ",
"4 g a g g j C r #.<.v.k.*.j D - a a a a a & ",
"4 j g h h k S r q.j.v.v.1.$.F - g h g h h = ",
"4 k k k #.$.H i d.x.v.h.U.O.> y l.<.<.>.( [ ",
"4 #.#.%.! E Z i k.v.x.A !.^., N.w.<.>.E Q.+.",
"5 &.#.Z ~.!.: w f.v.s.O ` _ p q.*.>.R W.'.@.",
"5 :.v ; X.{ o u n.v.v.r X . 7 <.>.R E.`.}.R.",
"9 <.=.$ . . $ u.v.v.n.k.;.m b ,.R E.`.[.|.X.",
"q g.<.=.e v 0.f.v.v.v.n.n.k.b E E./.[.|._.u ",
"  0.g.g.g.k.S.H.v.b.b.v.v.j.Q T.(.].].).N.  ",
"    0.d h k 4.y.&.&.*.*.&.#.n N N l n -.    ",
"      + @ @ # % % % % % % % % # @ + +       "
};
