/* XPM */
static char *music[] = {
/* columns rows colors chars-per-pixel */
"16 16 135 2 ",
"   c None",
".  c #DE503D",
"X  c #D34645",
"o  c #D54945",
"O  c #D44847",
"+  c #D84E47",
"@  c #D44948",
"#  c #D44B4A",
"$  c #D64E4B",
"%  c #D54D4C",
"&  c #D44C4D",
"*  c #D54E4D",
"=  c #D74F4C",
"-  c #DF5644",
";  c #DF5947",
":  c #D7504C",
">  c #D7504D",
",  c #D7514D",
"<  c #DA5348",
"1  c #DB544A",
"2  c #D9524C",
"3  c #D9534D",
"4  c #DB564C",
"5  c #DB574D",
"6  c #DD5849",
"7  c #DD594B",
"8  c #DE5A4C",
"9  c #DA5751",
"0  c #DA5D59",
"q  c #E25C46",
"w  c #E05A48",
"e  c #E05B49",
"r  c #E35F49",
"t  c #E05D4B",
"y  c #E05D4C",
"u  c #E05E4C",
"i  c #DE6359",
"p  c #E56046",
"a  c #E86446",
"s  c #E86547",
"d  c #ED6A43",
"f  c #EF6E43",
"g  c #EA6846",
"h  c #EB6946",
"j  c #EA6947",
"k  c #ED6B44",
"l  c #ED6C45",
"z  c #EF6E44",
"x  c #E3604A",
"c  c #E3604B",
"v  c #E56349",
"b  c #E5634A",
"n  c #E6644B",
"m  c #E3614C",
"M  c #E3624C",
"N  c #E6654C",
"B  c #E86649",
"V  c #EB6A48",
"C  c #E8684A",
"Z  c #EB6C4B",
"A  c #ED6E48",
"S  c #E8694C",
"D  c #EB6D4C",
"F  c #EB6F4F",
"G  c #EE704B",
"H  c #F37241",
"J  c #F17043",
"K  c #F27245",
"L  c #F37445",
"P  c #F27447",
"I  c #F47546",
"U  c #F07148",
"Y  c #F0734A",
"T  c #F0734B",
"R  c #F0744B",
"E  c #F2764A",
"W  c #F2764B",
"Q  c #F2774B",
"!  c #F4794B",
"~  c #F57B4B",
"^  c #E06355",
"/  c #E06457",
"(  c #E76E56",
")  c #E26958",
"_  c #E56D59",
"`  c #E1685C",
"'  c #F07850",
"]  c #DE726F",
"[  c #E47162",
"{  c #E67461",
"}  c #E97861",
"|  c #EB7A60",
" . c #E47A6E",
".. c #EE8266",
"X. c #EC8168",
"o. c #F08363",
"O. c #F19073",
"+. c #F49778",
"@. c #F69A7A",
"#. c #F69C7B",
"$. c #E58E8C",
"%. c #E6918F",
"&. c #EA958C",
"*. c #F59F83",
"=. c #E89A96",
"-. c #F5A489",
";. c #EDA297",
":. c #EFA79A",
">. c #F1A99B",
",. c #F2AB9B",
"<. c #F5AE98",
"1. c #F4AD9B",
"2. c #F0B5AE",
"3. c #F7BAA9",
"4. c #F1B8B2",
"5. c #F2BBB3",
"6. c #F3BDB3",
"7. c #F4BEB3",
"8. c #F1BFBD",
"9. c #F6C1B5",
"0. c #F7C4B7",
"q. c #FAC4B1",
"w. c #F3C6C3",
"e. c #FAD1C3",
"r. c #F9D6CD",
"t. c #FAD7CD",
"y. c #F6D4D3",
"u. c #F7D8D5",
"i. c #F7DAD9",
"p. c #F9E0DE",
"a. c #FCF0EF",
"s. c #FCF1F1",
"d. c #FEF4F2",
"f. c #FEFBFB",
"g. c white",
/* pixels */
"    * & & & & & & & & & & &     ",
"  * * * * * * * * # # X X * *   ",
", , * 2 , , o o $ 0 ] %.$.* 2 * ",
"2 2 2 2 2 9 =.8.i.s.g.g.y.+ 2 2 ",
"9 5 5 5 1 i f.g.g.g.a.p.w.1 5 5 ",
"8 8 8 8 6 ` u.2.&. .^ / 4.6 8 8 ",
"u u u u e [ ;.. - ; e ) 4.u u u ",
"M M M M r { :.q M M c _ 7.r M M ",
"N N N N v } >.p N N c ( 9.v v N ",
"S S S S B | >.s S C s X.9.C S S ",
"D D D V h ..<.j Z F 0.g.t.j D D ",
"G G A o.t.d.3.d l O.g.g.<.l G G ",
"W W f e.g.g.*.l G Q -.+.U W G W ",
"W W K @.q.#.P W Q W J K W W Q W ",
"  ~ Q I J I ~ ~ ~ Q Q ~ ~ ~ Q   ",
"    ~ ~ ~ ~ ~ ~ ~ ~ ~ ~ ~ ~     "
};
