/* XPM */
static char *ok[] = {
/* columns rows colors chars-per-pixel */
"16 16 197 2 ",
"   c None",
".  c #012101",
"X  c #062406",
"o  c #062706",
"O  c #092D09",
"+  c #092F09",
"@  c #023103",
"#  c #053306",
"$  c #073407",
"%  c #043A05",
"&  c #053A05",
"*  c #073D07",
"=  c #083508",
"-  c #034303",
";  c #014F01",
":  c #0A400A",
">  c #0C4F0C",
",  c #015201",
"<  c #005400",
"1  c #005500",
"2  c #035403",
"3  c #015801",
"4  c #015F01",
"5  c #065906",
"6  c #0B520B",
"7  c #0A590A",
"8  c #114311",
"9  c #184618",
"0  c #1B481B",
"q  c #1C581C",
"w  c #076107",
"e  c #076407",
"r  c #006900",
"t  c #016801",
"y  c #006B00",
"u  c #006A01",
"i  c #016B01",
"p  c #006E00",
"a  c #006F00",
"s  c #096E09",
"d  c #0C6B0C",
"f  c #007100",
"g  c #037103",
"h  c #007400",
"j  c #007800",
"k  c #007A00",
"l  c #007B00",
"z  c #017C01",
"x  c #007E00",
"c  c #007F00",
"v  c #186319",
"b  c #1B601B",
"n  c #1D6D1D",
"m  c #1B7E1B",
"M  c #265126",
"N  c #285128",
"B  c #335133",
"V  c #216221",
"C  c #236624",
"Z  c #206E20",
"A  c #217A21",
"S  c #436443",
"D  c #477347",
"F  c #516951",
"G  c #556F55",
"H  c #008200",
"J  c #008400",
"K  c #008500",
"L  c #008501",
"P  c #018601",
"I  c #008C00",
"U  c #008E00",
"Y  c #009100",
"T  c #009400",
"R  c #009600",
"E  c #069606",
"W  c #009900",
"Q  c #009D00",
"!  c #009E00",
"~  c #009F00",
"^  c #0C980C",
"/  c #1F8A1F",
"(  c #1B921B",
")  c #1C911C",
"_  c #00A200",
"`  c #00A500",
"'  c #00A700",
"]  c #03A503",
"[  c #00A800",
"{  c #00AB00",
"}  c #03A803",
"|  c #19A219",
" . c #2D9F2D",
".. c #398739",
"X. c #3F903F",
"o. c #3C9D3C",
"O. c #20A920",
"+. c #21A921",
"@. c #33A733",
"#. c #3BA13B",
"$. c #38A738",
"%. c #488B48",
"&. c #409741",
"*. c #499E49",
"=. c #4D9A4D",
"-. c #509B50",
";. c #529853",
":. c #509C50",
">. c #5F935F",
",. c #5B9E5B",
"<. c #5C9E5C",
"1. c #41A041",
"2. c #4BA04B",
"3. c #4BA34B",
"4. c #54A054",
"5. c #56A157",
"6. c #52A952",
"7. c #5DA85D",
"8. c #5CAA5C",
"9. c #5FA85F",
"0. c #5BB05B",
"q. c #609B60",
"w. c #699D69",
"e. c #63A463",
"r. c #66A266",
"t. c #64A564",
"y. c #65A466",
"u. c #65AB65",
"i. c #64AD64",
"p. c #6FA56F",
"a. c #6CAB6C",
"s. c #6EA86E",
"d. c #68B068",
"f. c #6CB36C",
"g. c #76A776",
"h. c #77AF77",
"j. c #79AD79",
"k. c #78AF78",
"l. c #73B073",
"z. c #70BE70",
"x. c #78B478",
"c. c #79B679",
"v. c #7BB57B",
"b. c #7DB57D",
"n. c #73C373",
"m. c #85A185",
"M. c #81AB81",
"N. c #80AE80",
"B. c #88A588",
"V. c #81B181",
"C. c #80B480",
"Z. c #83B483",
"A. c #84B084",
"S. c #84B884",
"D. c #86B886",
"F. c #8CB28D",
"G. c #89BA89",
"H. c #8ABB8A",
"J. c #8DBA8D",
"K. c #8DBB8D",
"L. c #94B694",
"P. c #96B496",
"I. c #90BB90",
"U. c #93BB93",
"Y. c #93BE93",
"T. c #94BF94",
"R. c #96BF96",
"E. c #93C193",
"W. c #97C097",
"Q. c #99C099",
"!. c #9AC19A",
"~. c #9FC09F",
"^. c #9FC59F",
"/. c #A0C1A0",
"(. c #A0C6A0",
"). c #A3C9A3",
"_. c #A3C9A4",
"`. c #ABCEAB",
"'. c #AED2AE",
"]. c #BECFBE",
"[. c #B0D2B0",
"{. c #B1D2B1",
"}. c #B2D2B2",
"|. c #B3D2B3",
" X c #C2CFC2",
".X c #C4D8C5",
"XX c #CBDECB",
"oX c #D3DBD3",
"OX c #D8DCD8",
"+X c #CAE0CA",
"@X c #EBF1EB",
"#X c #EDF3ED",
"$X c #ECF4EC",
"%X c #F1F0F1",
"&X c #F8FAF8",
"*X c gray99",
"=X c white",
/* pixels */
"          G B././.m.F           ",
"      S !.'.{.{.{.{.`.F.B       ",
"    D E.J.W.^.)._.(.!.U.A.N     ",
"  M h.j.Z.J.E.W.R.R.J.V.N.>.O   ",
"  %.r.s.j.b.D.G.G.S.M.P.p.w.q   ",
"0 ..,.e.a.l.x.v.v.g.OX.X<.q.C . ",
"V A :.5.e.i.d.f.e. X=XXX;.;.v @ ",
"Z s &.2.3.4.8.6.L.=X$Xv.2.X.5 % ",
"n u / o.r.oX'.*.%X$X8.#.1.m 1 % ",
"v a z ( u.@X*X].&X0.@.$.) a 1 $ ",
"9 g H U E  .XX=Xz.| +.^ H u ; X ",
"  d j U W Q | n.] } ] Y z 4 -   ",
"  8 f P T ] ] ] } ] W P u , o   ",
"    > f P T Q ] ] T P f 3 =     ",
"      : u j H P H h u 2 O       ",
"          * 7 e w 6 =           "
};
