/* XPM */
static char *ok[] = {
/* columns rows colors chars-per-pixel */
"22 22 128 2 ",
"   c None",
".  c #042104",
"X  c #072907",
"o  c #082108",
"O  c #0A2B0A",
"+  c #063606",
"@  c #043A04",
"#  c #093609",
"$  c #073E08",
"%  c #0D3F0D",
"&  c #014601",
"*  c #014C01",
"=  c #0C440C",
"-  c #0B4A0B",
";  c #015401",
":  c #025C02",
">  c #0E5B0E",
",  c #174117",
"<  c #184118",
"1  c #0F5F10",
"2  c #125912",
"3  c #016401",
"4  c #016C01",
"5  c #0F670F",
"6  c #0E6E0E",
"7  c #007300",
"8  c #007D00",
"9  c #196819",
"0  c #177017",
"q  c #157A15",
"w  c #2C472C",
"e  c #215621",
"r  c #265826",
"t  c #2A5E2B",
"y  c #335333",
"u  c #296729",
"i  c #286C28",
"p  c #2B732B",
"a  c #2D7C2D",
"s  c #3C683C",
"d  c #347734",
"f  c #387038",
"g  c #3D7C3D",
"h  c #018302",
"j  c #008B01",
"k  c #009400",
"l  c #019D01",
"z  c #0D9C0D",
"x  c #179817",
"c  c #00A300",
"v  c #00AA00",
"b  c #0BA60B",
"n  c #09AA0A",
"m  c #268526",
"M  c #2F862F",
"N  c #219A21",
"B  c #2B922B",
"V  c #2B992C",
"C  c #3E8C3F",
"Z  c #3E9D3E",
"A  c #22A722",
"S  c #20A820",
"D  c #2DAC2E",
"F  c #34A834",
"G  c #3BA33B",
"H  c #3BAB3B",
"J  c #458145",
"K  c #468E46",
"L  c #439443",
"P  c #439B43",
"I  c #4F974F",
"U  c #4C9D4C",
"Y  c #578B57",
"T  c #598659",
"R  c #549554",
"E  c #559A55",
"W  c #5D9C5D",
"Q  c #43A443",
"!  c #4CA44C",
"~  c #54A554",
"^  c #54AA55",
"/  c #5BA25B",
"(  c #5DAC5D",
")  c #658265",
"_  c #629562",
"`  c #6A9E6A",
"'  c #709F70",
"]  c #62A162",
"[  c #64AA64",
"{  c #6BA46B",
"}  c #6BAA6B",
"|  c #66B166",
" . c #6EB26E",
".. c #74A774",
"X. c #71AB71",
"o. c #7BA27B",
"O. c #7AAB7A",
"+. c #74B274",
"@. c #7CB57C",
"#. c #7EC07E",
"$. c #81AA81",
"%. c #8BAB8B",
"&. c #82B482",
"*. c #85BA85",
"=. c #8BB58B",
"-. c #8DBB8D",
";. c #93BD93",
":. c #9EBF9E",
">. c #96C096",
",. c #9CC29C",
"<. c #A0C7A0",
"1. c #A3C9A3",
"2. c #AACCAA",
"3. c #B3C3B3",
"4. c #BDC7BD",
"5. c #B6D5B6",
"6. c #B1DAB1",
"7. c #B8D5B8",
"8. c #C5D0C5",
"9. c #D4D7D4",
"0. c #DCDFDC",
"q. c #DFEBDF",
"w. c #E6ECE6",
"e. c #EAEBEA",
"r. c #E8F2E8",
"t. c #F1F5F1",
"y. c #F4F8F4",
"u. c #FEFEFE",
/* pixels */
"                ) %.:.,.%.)                 ",
"          y =.5.7.7.7.7.7.5.2.o.w           ",
"        T 1.<.,.1.2.2.2.2.1.<.:.=.s         ",
"      Y >.=.-.>.,.1.1.1.<.<.;.;.=.$.t       ",
"    f &.O.@.=.-.>.>.,.,.:.;.;.=.&.$._ %     ",
"  , W { X.O.@.&.*.-.;.;.-.-.&.O.O...' u .   ",
"  d R ] { X.@.@.*.&.*.*.=.&.o.4.O.{ ` g @   ",
"  a K W ] [ } O.@.@.@.@.+.' 0.y.{ _ W J &   ",
"r 0 C E / / [ }  . . . .{ 9.u.t.` ~ R C & . ",
"p 3 M U U ~ ( ( ( | | W 3.u.u.u.} U R p & # ",
"p 3 q L U ! ! U ] ^ ^ $.u.u.w.X.! P L 5 * + ",
"p 3 7 B Z Z E 3.w.~ U 0.u.w.~ G Q P m : * + ",
"i 4 7 h V P 8.u.u.>.$.u.r.~ F G G B 7 3 * # ",
"e 4 7 8 h N Z 2.u.t.e.u.( D H F N h 4 : & X ",
"  6 7 h j k z x *.u.u.@.A D S z j 8 4 ; &   ",
"  9 4 8 j k l c k >.6.b n v l k h 8 3 * $   ",
"  < 4 7 j k l c v l b v v c c k h 4 : & o   ",
"    2 4 8 j k l v v v v v l k h 7 3 * +     ",
"      2 4 8 j k l l c c l k h 7 3 ; $       ",
"        > 4 7 h j k j j h 8 7 3 ; %         ",
"          + : 4 7 7 8 7 4 3 : - O           ",
"                - 1 : : > =                 "
};
