/* XPM */
static char *onebig[] = {
/* columns rows colors chars-per-pixel */
"22 22 180 2 ",
"   c None",
".  c #60606A",
"X  c #6B6B73",
"o  c #6A6A75",
"O  c #9696A3",
"+  c #9898A5",
"@  c #9898A6",
"#  c #9999A6",
"$  c #9595A8",
"%  c #9999A8",
"&  c #9B9BAF",
"*  c #9E9EAC",
"=  c #9F9FAC",
"-  c #9E9DB4",
";  c #A4A4AF",
":  c #A1A1B4",
">  c #A2A2B4",
",  c #A4A3BA",
"<  c #A7A6B9",
"1  c #A4A4BB",
"2  c #A8A8BA",
"3  c #AAAABC",
"4  c #AAAABF",
"5  c #ACACBD",
"6  c #AEADBE",
"7  c #AFAFBF",
"8  c #B0B0B7",
"9  c #B1B1B8",
"0  c #B3B3BA",
"q  c #B5B5BC",
"w  c #B7B7BE",
"e  c #B8B8BF",
"r  c #ABABC1",
"t  c #A3A3CA",
"y  c #A5A5CB",
"u  c #A8A8CD",
"i  c #A9A9CF",
"p  c #B0B0C0",
"a  c #B1B1C1",
"s  c #B3B3C3",
"d  c #B4B4C3",
"f  c #B5B4C4",
"g  c #B5B5C4",
"h  c #B6B6C4",
"j  c #B7B7C5",
"k  c #B6B6C7",
"l  c #BABAC1",
"z  c #BBBBC2",
"x  c #BDBDC4",
"c  c #BCBCC5",
"v  c #BFBFC5",
"b  c #BFBFC6",
"n  c #B6B6CA",
"m  c #B7B7D5",
"M  c #BFBFD0",
"N  c #BDBDD5",
"B  c #BEBED6",
"V  c #BBBBDA",
"C  c #C0C0C6",
"Z  c #C1C1C7",
"A  c #C1C0D1",
"S  c #C3C3D3",
"D  c #C5C4D4",
"F  c #C7C6D6",
"G  c #C8C8D7",
"H  c #C2C2DB",
"J  c #C2C2DC",
"K  c #C3C3DC",
"L  c #C6C6DD",
"P  c #C7C7DF",
"I  c #C8C7DF",
"U  c #CAC9D9",
"Y  c #CBCBDA",
"T  c #CDCDDB",
"R  c #C8C8DD",
"E  c #C8C8DF",
"W  c #CECEDC",
"Q  c #CFCFDD",
"!  c #D0CFDD",
"~  c #D2D2D9",
"^  c #D4D4DB",
"/  c #D5D4DB",
"(  c #D3D3DC",
")  c #D0D0DE",
"_  c #D2D2DF",
"`  c #D5D5DC",
"'  c #D6D5DC",
"]  c #D6D6DC",
"[  c #D7D7DD",
"{  c #D8D8DF",
"}  c #C5C4E0",
"|  c #C5C5E1",
" . c #C8C8E0",
".. c #C9C8E0",
"X. c #C9C9E0",
"o. c #CACAE0",
"O. c #CBCAE1",
"+. c #CBCBE1",
"@. c #C9C9E2",
"#. c #CACAE3",
"$. c #CCCBE2",
"%. c #CCCBE3",
"&. c #CCCCE1",
"*. c #CECEE3",
"=. c #CBCBE7",
"-. c #CDCDE5",
";. c #CECEE4",
":. c #CFCFE5",
">. c #D2D1E1",
",. c #D0D0E5",
"<. c #D0D0E6",
"1. c #D1D1E6",
"2. c #DDDDE3",
"3. c #D1D1E8",
"4. c #D5D6EB",
"5. c #D6D6EC",
"6. c #D8D8E8",
"7. c #D8D8E9",
"8. c #D9D9E9",
"9. c #D9D9EA",
"0. c #DADAEA",
"q. c #E8E8E7",
"w. c #E6E6E9",
"e. c #E6E6EA",
"r. c gray91",
"t. c #EBEBEA",
"y. c gray92",
"u. c #ECECEB",
"i. c #E9E9ED",
"p. c #EBEBEF",
"a. c gray93",
"s. c #EEEEEE",
"d. c #F0F0EF",
"f. c #E1E1F2",
"g. c #EFEFF0",
"h. c #EEEEF1",
"j. c #EDEDF6",
"k. c gray94",
"l. c #F1F1F1",
"z. c #F2F2F1",
"x. c #F0F0F3",
"c. c gray95",
"v. c #F3F3F2",
"b. c #F3F3F3",
"n. c #F3F3F4",
"m. c #F2F2F6",
"M. c #F4F4F4",
"N. c #F5F5F4",
"B. c gray96",
"V. c #F4F4F7",
"C. c #F6F6F6",
"Z. c gray97",
"A. c #F8F8F7",
"S. c #F0F0F9",
"D. c #F1F0F9",
"F. c #F1F1F9",
"G. c #F1F1FA",
"H. c #F2F2FA",
"J. c #F3F3FA",
"K. c #F3F3FB",
"L. c #F4F4FB",
"P. c #F7F7FA",
"I. c #F3F3FC",
"U. c #F7F6FF",
"Y. c #F8F8F8",
"T. c #F9F9F9",
"R. c #FAFAF9",
"E. c gray98",
"W. c #FBFBFB",
"Q. c #FCFCFB",
"!. c #F9F9FC",
"~. c #FAFAFC",
"^. c gray99",
"/. c #FCFCFD",
"(. c #FDFDFD",
"). c #FEFEFD",
"_. c #FCFCFF",
"`. c #FEFEFE",
"'. c #FFFFFE",
"]. c white",
/* pixels */
"$ f.8.8.8.8.8.8.9.7.J K H &.r 6.9.8.0.*.#.% ",
"4 4.:.:.:.:.:.:.<.%.u y t m R ;.:.:.1.V i & ",
"1 5.,.,.,.,.,.,.,.:.| | } @.B *.<.,.<.#.=.: ",
", -.P I E  . .....X.O.+.+.$.N L E  ...o.3.> ",
"- { ^ ^ / ` ` ` ' ' ] ] [ ( n ~ ` ` ` ] 2.; ",
"< d.t.t.t.t.t.t.t.t.t.t.t.w.M q.t.t.t.t.z.8 ",
"2 k.y.y.y.y.y.y.y.y.y.y.u.e.A r.y.y.y.y.v.9 ",
"3 v.s.a.a.a.a.a.a.a.a.a.s.i.S y.s.a.a.a.B.0 ",
"5 B.k.k.k.k.k.k.k.k.k.k.k.p.D a.k.k.k.k.Z.q ",
"6 A.c.c.c.c.c.c.c.c.c.c.v.h.F g.b.c.c.c.E.w ",
"7 R.M.M.M.M.M.M.M.M.M.M.N.x.G l.N.M.M.M.^.e ",
"p ^.Z.C.C.C.C.C.C.C.C.C.Z.m.U n.Z.C.C.C.'.l ",
"a `.Y.Y.Y.Y.Y.Y.Y.Y.Y.Y.T.V.Y B.T.Y.Y.Y.].z ",
"s ].W.W.W.W.W.W.W.W.W.W.^.P.T Y.^.W.W.W.].x ",
"d ].(.(.(.(.(.(.(.(.(.(.).!.W E.).(.(.(.].v ",
"f ].(.(.(.(.(.(.(.(.(.(.).~.Q E.).(.(.(.].v ",
"g ].(.(.(.(.(.(.(.(.(.(.).~.! E.).(.(.(.].b ",
"h ].(.(.(.(.(.(.(.(.(.(.).~.) E.).(.(.(.].C ",
"j ].'.'.'.'.'.'.'.'.'.'.'./._ Q.].'.'.'.].Z ",
"k U.S.D.F.G.H.H.H.J.K.K.L.I.>.j.F.H.H.J._.c ",
". * + + + + + + + # # # # + o O @ + + # = X ",
"                                            "
};
