/* XPM */
static char *onebig[] = {
/* columns rows colors chars-per-pixel */
"16 16 121 2 ",
"   c None",
".  c #9E9EB1",
"X  c #9F9FB7",
"o  c #A6A6B4",
"O  c #ADADB7",
"+  c #A7A7BA",
"@  c #AAAABC",
"#  c #ADACBD",
"$  c #B4B4BB",
"%  c #AAA9C0",
"&  c #AEAEC5",
"*  c #B6B6C3",
"=  c #BDBDC2",
"-  c #B8B8C5",
";  c #B8B8C7",
":  c #BBBAC7",
">  c #BFBFC4",
",  c #BDBDC9",
"<  c #BFBFCB",
"1  c #BABACF",
"2  c #B3B2D5",
"3  c #B7B7D5",
"4  c #B8B8D8",
"5  c #BBBADA",
"6  c #BEBED9",
"7  c #BEBDDF",
"8  c #C2C2C7",
"9  c #C5C5C9",
"0  c #C1C1CD",
"q  c #C3C3CF",
"w  c #C7C7CC",
"e  c #C4C4CF",
"r  c #C5C5CF",
"t  c #C9C9CE",
"y  c #C2C1D1",
"u  c #C0C0D7",
"i  c #C8C8D3",
"p  c #CCCCD0",
"a  c #CCCCD1",
"s  c #CDCDD1",
"d  c #CFCFD3",
"f  c #CACAD7",
"g  c #C0C0DB",
"h  c #C5C5DC",
"j  c #CDCCD9",
"k  c #C8C8DE",
"l  c #C9C9DF",
"z  c #CAC9DF",
"x  c #CFCFDC",
"c  c #D2D2DE",
"v  c #DBDBDF",
"b  c #C4C4E0",
"n  c #CACAE0",
"m  c #CCCBE1",
"M  c #CCCCE1",
"N  c #CDCDE2",
"B  c #CDCDE4",
"V  c #CECEE4",
"C  c #CECEE5",
"Z  c #CFCFE5",
"A  c #D3D3E0",
"S  c #D4D4E0",
"D  c #D6D5E2",
"F  c #D6D6E2",
"G  c #D7D7E2",
"H  c #D6D6E3",
"J  c #D7D7E3",
"K  c #D1D1E7",
"L  c #D4D4E6",
"P  c #D8D8E3",
"I  c #DDDDE1",
"U  c #DEDDE1",
"Y  c #DEDEE1",
"T  c #DDDDE2",
"R  c #D9D9E4",
"E  c #D9D9E5",
"W  c #DADAE5",
"Q  c #DBDBE6",
"!  c #D6D6E8",
"~  c #D6D7E8",
"^  c #D4D4EA",
"/  c #DCDCE8",
"(  c #DEDEEA",
")  c #DFDFEA",
"_  c #DCDCEF",
"`  c #E3E3E5",
"'  c #E4E4E7",
"]  c #EAEAE9",
"[  c #EAEAEB",
"{  c gray92",
"}  c #EBECEB",
"|  c #ECECEB",
" . c #EBEBEC",
".. c #EDEDEE",
"X. c #EEEEEE",
"o. c #EFEFEF",
"O. c #F0F0F1",
"+. c #F1F1F1",
"@. c #F2F2F0",
"#. c #F2F2F1",
"$. c #F1F1F2",
"%. c #F4F4F3",
"&. c #F3F3F4",
"*. c #F4F4F4",
"=. c #F4F4F5",
"-. c #F7F7F6",
";. c #F6F6F7",
":. c gray97",
">. c #F8F8F7",
",. c #F7F7F8",
"<. c #F9F9FA",
"1. c gray98",
"2. c #FBFBFA",
"3. c #FAFAFB",
"4. c #FBFBFB",
"5. c #FCFCFD",
"6. c #FDFDFD",
"7. c #FEFEFD",
"8. c #FDFDFE",
"9. c #FEFEFE",
"0. c white",
/* pixels */
"+ _ ^ J ^ J ^ g 3 6 1 J ^ ^ b . ",
"& ^ Z Z Z Z Z 5 2 5 h N Z Z 7 X ",
"% N n n n n n m n N 6 k n n K @ ",
"# ` T T Y Y Y Y Y Y y v Y Y ' $ ",
"* +.{ { { {  . .{  .f { | { +.= ",
"- %.X.X.X.X.X.X.X. .j  .X.X.-.> ",
": -.+.+.+.+.+.+.+.O.x o.+.+.-.8 ",
", 2.*.*.-.+.-.+.*.&.c +.-.+.2.9 ",
", 8.-.-.-.-.-.>.-.,.A &.,.-.8.w ",
"0 8.2.2.2.2.2.2.2.2.D ,.2.2.8.t ",
"w 8.8.8.8.8.8.7.5.5.R 2.8.8.8.s ",
"y 8.8.2.7.8.8.8.5.5.R 5.8.8.8.s ",
"w 8.8.8.8.8.8.8.8.8.R 5.8.8.8.s ",
"f 8.8.8.8.8.8.8.8.8.) 8.8.8.8.d ",
"o ) J D J J D R R R ; A J J ' O ",
"                                "
};
