/* XPM */
static char *updates[] = {
/* columns rows colors chars-per-pixel */
"16 16 44 1 ",
"  c None",
". c #8F5D00",
"X c #9C6500",
"o c #9D6600",
"O c #9E6700",
"+ c #9F6700",
"@ c #A26900",
"# c #A86D00",
"$ c #B07200",
"% c #B27401",
"& c #B67600",
"* c #C88100",
"= c #CA8300",
"- c #CD8500",
"; c #D08701",
": c #D18800",
"> c #D68B01",
", c #DA8D00",
"< c #DA8D01",
"1 c #DE9000",
"2 c #DE9001",
"3 c #E09100",
"4 c #E39300",
"5 c #E59400",
"6 c #ED9900",
"7 c #EE9A00",
"8 c #F19C00",
"9 c #F39E00",
"0 c #F69F01",
"q c #F9A100",
"w c #FDA400",
"e c orange",
"r c #FFA501",
"t c #FFA600",
"y c #FFA700",
"u c #FFA900",
"i c #FFAE00",
"p c #FFAF00",
"a c #FFB000",
"s c #FFB100",
"d c #FFB200",
"f c #FFB300",
"g c #FFB400",
"h c #FFB500",
/* pixels */
"                ",
"          <<    ",
"      &375wd    ",
"    Xdddpuwww   ",
"   Xd-. #qwwd:  ",
"   >     2dw%   ",
"         0@     ",
"                ",
"                ",
"      7         ",
"   @qd2     :   ",
"  =hww8X  =d    ",
"   wwwuddhp     ",
"    pw573$      ",
"    <<          ",
"                "
};
