/* XPM */
static char *updates[] = {
/* columns rows colors chars-per-pixel */
"22 22 47 1 ",
"  c None",
". c #A46A00",
"X c #AC6F00",
"o c #AD7000",
"O c #AF7100",
"+ c #B37400",
"@ c #B37501",
"# c #B87700",
"$ c #B87800",
"% c #C58001",
"& c #C88201",
"* c #D78B00",
"= c #DA8D01",
"- c #DA8E01",
"; c #DB8E01",
": c #E09101",
"> c #E79601",
", c #E89600",
"< c #EB9800",
"1 c #EC9900",
"2 c #F19C00",
"3 c #F29D00",
"4 c #F39E01",
"5 c #F9A100",
"6 c #FBA302",
"7 c #FCA300",
"8 c #FDA400",
"9 c #FEA500",
"0 c orange",
"q c #FFA600",
"w c #FFA700",
"e c #FFA800",
"r c #FFA900",
"t c #FFA801",
"y c #FFA901",
"u c #FFAA00",
"i c #FFAB00",
"p c #FFAA02",
"a c #FFAC00",
"s c #FFAD00",
"d c #FFAD01",
"f c #FFAE00",
"g c #FFAF00",
"h c #FFB200",
"j c #FFB400",
"k c #FFB601",
"l c #FFB701",
/* pixels */
"                      ",
"              =>      ",
"              9f      ",
"        #10ue7qqy     ",
"       raew0qq00u:    ",
"     +hsaqwau9000f    ",
"     l2.    $e00qst   ",
"    p        dws8@    ",
"            %j4       ",
"            *         ",
"                      ",
"                      ",
"         %            ",
"       ,j&            ",
"     4fed        6    ",
"   5gw00rO     3k     ",
"    f0009iiqqufhX     ",
"    ;u00qqqqrfw       ",
"     yqq7euw<o        ",
"      f9              ",
"      >-              ",
"                      "
};
