/* XPM */
static char *upspeed[] = {
/* columns rows colors chars-per-pixel */
"12 12 55 1 ",
"  c None",
". c #265D77",
"X c #235E7B",
"o c #296380",
"O c #2C6581",
"+ c #2E6885",
"@ c #2C6886",
"# c #2C6A88",
"$ c #2B6E8E",
"% c #296F91",
"& c #2A6E90",
"* c #2B7091",
"= c #2C779B",
"- c #3387B0",
"; c #3288B2",
": c #3588B1",
"> c #3589B2",
", c #3B91BC",
"< c #3BA2D3",
"1 c #3CA2D3",
"2 c #3EA7DB",
"3 c #3EA9DD",
"4 c #3EAADE",
"5 c #429AC5",
"6 c #429BC7",
"7 c #409FCE",
"8 c #43A6D6",
"9 c #44A6D7",
"0 c #40ABDF",
"q c #42ADE1",
"w c #44AFE3",
"e c #40AFE5",
"r c #42B0E6",
"t c #46B1E5",
"y c #47B1E5",
"u c #48B2E6",
"i c #49B2E6",
"p c #41B1E8",
"a c #43B2E9",
"s c #44B2E8",
"d c #45B4EB",
"f c #47B4EA",
"g c #48B3E8",
"h c #4BB4E8",
"j c #48B4EA",
"k c #4BB6EA",
"l c #4DB6EA",
"z c #48B7ED",
"x c #4BB9EF",
"c c #4CB8ED",
"v c #4CBAF1",
"b c #51BBF0",
"n c #52BCF1",
"m c #51BEF4",
"M c #51C0F7",
/* pixels */
"     O@     ",
"     bn     ",
"    6mm6    ",
"   @mllM#   ",
"   cllulc   ",
"  9vuuuuv9  ",
"  .,jtug7X  ",
"   $zwwf>   ",
"   *fqqp>   ",
"   &pq0r>   ",
"   &p33e;   ",
"   X31<3=   "
};
