/* XPM */
static char *upspeed[] = {
/* columns rows colors chars-per-pixel */
"15 15 66 1 ",
"  c None",
". c #2A7092",
"X c #3286AF",
"o c #3A86AB",
"O c #3C89AF",
"+ c #3387B0",
"@ c #3288B2",
"# c #3589B2",
"$ c #338AB4",
"% c #3B8DB5",
"& c #398DB6",
"* c #3A8DB6",
"= c #3C8EB7",
"- c #3A91BC",
"; c #3B9ECF",
": c #3A9FD0",
"> c #3BA0D2",
", c #3CA0D0",
"< c #3EA1D1",
"1 c #3FA2D2",
"2 c #3CA4D6",
"3 c #3DA6D9",
"4 c #3EA9DE",
"5 c #3FAADE",
"6 c #3FACE1",
"7 c #469EC9",
"8 c #42A6D7",
"9 c #41ABDF",
"0 c #40ACE1",
"q c #43ADE1",
"w c #42AEE3",
"e c #44AEE2",
"r c #44AEE3",
"t c #40AFE5",
"y c #41AFE5",
"u c #44AFE4",
"i c #43B1E7",
"p c #46B0E4",
"a c #47B0E4",
"s c #47B1E5",
"d c #45B1E6",
"f c #47B2E7",
"g c #48B1E5",
"h c #48B1E6",
"j c #48B2E6",
"k c #49B3E7",
"l c #4CB2E4",
"z c #4CB3E5",
"x c #45B2E8",
"c c #46B4EA",
"v c #49B3E8",
"b c #4AB4E9",
"n c #4BB4E9",
"m c #4BB5E9",
"M c #48B5EA",
"N c #4AB5EA",
"B c #4CB6EA",
"V c #4EB7EB",
"C c #4AB6EC",
"Z c #4FBAEF",
"A c #50B9EE",
"S c #4FBEF5",
"D c #50BDF4",
"F c #53C2F8",
"G c #54C2F8",
"H c #59CBFF",
/* pixels */
"       7       ",
"      oHO      ",
"      FAG      ",
"     lZVZz     ",
"    %DBBBD=    ",
"    SnnnnmS    ",
"   vNkkkkkNk   ",
"  &bajgghhsC*  ",
"    -Mpppf8    ",
"    #ceerd1    ",
"    #xqqqu<    ",
"    +i999w,    ",
"    Xy5550;    ",
"    @t4446:    ",
"    .3>>>2$    "
};
