/* XPM */
static char *volume4[] = {
/* columns rows colors chars-per-pixel */
"16 16 112 2 ",
"   c None",
".  c #202020",
"X  c #252525",
"o  c gray16",
"O  c #2F2F2F",
"+  c #373737",
"@  c gray23",
"#  c gray24",
"$  c #3F3F3F",
"%  c #177700",
"&  c #337D00",
"*  c gray25",
"=  c #494B45",
"-  c #4C4D47",
";  c #565848",
":  c #585B4A",
">  c #4D4E55",
",  c #616160",
"<  c #616163",
"1  c #646464",
"2  c #6D6D6D",
"3  c #73716C",
"4  c gray44",
"5  c gray47",
"6  c gray48",
"7  c #7B7B7B",
"8  c #7C7C7C",
"9  c #817F7C",
"0  c #158A00",
"q  c #158E00",
"w  c #1A8900",
"e  c #0E9300",
"r  c #37A300",
"t  c #508800",
"y  c #509700",
"u  c #618A00",
"i  c #54A400",
"p  c #54A500",
"a  c #5CB600",
"s  c #B08216",
"d  c #B1931B",
"f  c #9D8D2B",
"g  c #EDAB09",
"h  c #FFD308",
"j  c #E7CD1A",
"k  c #8C867C",
"l  c #C09741",
"z  c #CDAD70",
"x  c #F3C35B",
"c  c #838383",
"v  c #868686",
"b  c gray53",
"n  c gray54",
"m  c #8B8B8B",
"M  c gray56",
"N  c #8F9092",
"B  c #909090",
"V  c gray57",
"C  c gray58",
"Z  c gray59",
"A  c #9B9C9F",
"S  c #9D9D9D",
"D  c #9F9F9F",
"F  c #AAA696",
"G  c #ADAB9C",
"H  c #A0A1A3",
"J  c gray64",
"K  c #A7A7A7",
"L  c gray66",
"P  c #A9A9A9",
"I  c #B9B3A6",
"U  c #ACADB0",
"Y  c #B2B2B2",
"T  c #B6B6B6",
"R  c #B9B9B9",
"E  c gray73",
"W  c gray75",
"Q  c #D1BB88",
"!  c #C3C3C3",
"~  c gray77",
"^  c #C5C4C7",
"/  c gray78",
"(  c #C8C8C8",
")  c #CBCBCB",
"_  c #CBCACD",
"`  c gray80",
"'  c #CDCDCE",
"]  c gray81",
"[  c #DBD8CF",
"{  c #D0D0D0",
"}  c #D5D5D5",
"|  c #D8D8D8",
" . c #DADADB",
".. c gray87",
"X. c #DFDEDF",
"o. c #FFF6DF",
"O. c gray88",
"+. c gray89",
"@. c gray91",
"#. c gray92",
"$. c #EEEEEE",
"%. c #FFFFEE",
"&. c #F3F3F3",
"*. c #F7F5F3",
"=. c #F4F4F4",
"-. c gray96",
";. c gray97",
":. c #F8F7F5",
">. c gray98",
",. c #FCFDFD",
"<. c #FDFDFE",
"1. c white",
/* pixels */
"            o 5 V               ",
"          . 8 @.=.#     u t     ",
"          S { >.;.#       y &   ",
"        m <.*.-.&.*         r   ",
"      3 <.<.] O.#.      a     % ",
"  z o.*.<.#.K ! O.-           q ",
"k Q %.:.' W m K _ : p     w   e ",
"9 l x [ H C 2 m E         0   e ",
", s g I N m 1 m T         0   e ",
"> d h F A C 4 P ^ ; p     w   e ",
"  f j G P K 7 /  .=           q ",
"      , E Y v ..#.      a     % ",
"        5 ~ V | +.$         r   ",
"          V S ' } @       y &   ",
"          X c ( _ +     u t     ",
"            O 5 c               "
};
