/* XPM */
static char *volume4[] = {
/* columns rows colors chars-per-pixel */
"22 22 168 2 ",
"   c None",
".  c #272727",
"X  c #2A2A2A",
"o  c gray19",
"O  c gray20",
"+  c gray22",
"@  c gray24",
"#  c #3E3E3E",
"$  c #403F36",
"%  c #1D7A00",
"&  c #795612",
"*  c #454236",
"=  c #44433B",
"-  c #65583B",
";  c gray26",
":  c #5E5640",
">  c #4C4C50",
",  c gray33",
"<  c #5B5B5B",
"1  c #595A5D",
"2  c #5E5E5C",
"3  c #776540",
"4  c #726B5C",
"5  c #646464",
"6  c #656565",
"7  c #676767",
"8  c #67696D",
"9  c DimGray",
"0  c gray42",
"q  c #6F6F6F",
"w  c #717171",
"e  c #747474",
"r  c gray46",
"t  c gray47",
"y  c #787A7C",
"u  c #7E7E7E",
"i  c gray50",
"p  c #8C5F08",
"a  c #8E6109",
"s  c #8F794D",
"d  c #987C44",
"f  c #149500",
"g  c #2C9400",
"h  c #239A00",
"j  c #3D9A00",
"k  c #11AA00",
"l  c #1BAF01",
"z  c #1EB100",
"x  c #10B900",
"c  c #11BB00",
"v  c #20A200",
"b  c #22A800",
"n  c #618B00",
"m  c #5FAA00",
"M  c #41B000",
"N  c #5ABC00",
"B  c #35C700",
"V  c #57CA00",
"C  c #5CD500",
"Z  c #7EDC00",
"A  c #81BA00",
"S  c #DD9A00",
"D  c #E9A200",
"F  c #E6B305",
"G  c #F5BE01",
"H  c #E0A62F",
"J  c #ECB23A",
"K  c #8BDA00",
"L  c #F1CC05",
"P  c #EFD20E",
"I  c #FFDB00",
"U  c #E1C718",
"Y  c #A9915F",
"T  c #7A7C80",
"R  c #808080",
"E  c gray52",
"W  c gray53",
"Q  c #888888",
"!  c gray54",
"~  c #8B8B8B",
"^  c gray55",
"/  c gray56",
"(  c #909090",
")  c gray57",
"_  c #939393",
"`  c #909296",
"'  c gray58",
"]  c #959595",
"[  c gray59",
"{  c #979797",
"}  c #96949C",
"|  c #989898",
" . c gray60",
".. c #9B9B9B",
"X. c #9A999D",
"o. c #989A9F",
"O. c gray61",
"+. c #9F9F9F",
"@. c #B2AB89",
"#. c #B3AE8F",
"$. c #B9B092",
"%. c #9E9CA4",
"&. c #9E9FA5",
"*. c #9FA1A5",
"=. c #A0A0A0",
"-. c #A2A2A1",
";. c #A2A2A2",
":. c #A3A3A2",
">. c gray64",
",. c #A1A0A4",
"<. c #A4A4A4",
"1. c gray65",
"2. c gray66",
"3. c #A9A9A9",
"4. c gray67",
"5. c #ACACAC",
"6. c #AEAEAE",
"7. c #ABACB1",
"8. c gray70",
"9. c #B7B9BC",
"0. c #B9B9B9",
"q. c gray73",
"w. c #BCBCBC",
"e. c gray75",
"r. c #C8BDA3",
"t. c #EED794",
"y. c #FDECB1",
"u. c #C0C0C0",
"i. c gray78",
"p. c gray79",
"a. c #CDCDCD",
"s. c #CECECE",
"d. c #D0D1D2",
"f. c #D2D2D2",
"g. c LightGray",
"h. c gray83",
"j. c gray84",
"k. c #D7D7D7",
"l. c #D8D8D8",
"z. c gray85",
"x. c #DADADA",
"c. c gray86",
"v. c gray87",
"b. c #DFDFDF",
"n. c #E1D7C4",
"m. c #FEECC9",
"M. c #F8F0D9",
"N. c #E2E2E2",
"B. c gray89",
"V. c gray91",
"C. c #E8E9EC",
"Z. c #ECECEC",
"A. c gray93",
"S. c #FFF7E5",
"D. c #FAF7ED",
"F. c gray94",
"G. c #F1F1F1",
"H. c gray95",
"J. c #F3F3F3",
"K. c #F6F4F1",
"L. c #F4F4F4",
"P. c gray96",
"I. c #F9F9F9",
"U. c gray98",
"Y. c #FBFBFB",
"T. c #FDFDFD",
"R. c #FFFFFE",
"E. c white",
/* pixels */
"                  @ 6 r <                   ",
"                o ! x.Z.[         n         ",
"              O Q q.U.E.[         A Z       ",
"            . 1.s.j.E.E. .            C     ",
"            ( E.J.I.P.E.O.            j g   ",
"          e Y.E.F.c.F.T.+.      K       B   ",
"    a p 4 C.E.E.k.q.B.H.-.        V     h   ",
"  & m.S.K.E.U.L.w.;.s.N.>.        M       f ",
"y d M.R.E.V.z.g.;.( 0.f.%.  m       v     k ",
"` Y t.y.D.d.8.8.! u <.u.,.  N %     z     c ",
"T s H J n.9._ ' w 0 / 6.:.    b     l     x ",
"8 3 S D r.*.! ! 9 7 ( 4.=.    b     l     x ",
"1 - F G $.o.{ ] w e 2.w.X.  N %     z     c ",
"> : L I @.&.;.+.t i e.a.}   m       v     k ",
"  * U P #.7.5.3.R ~ j.b...        M       f ",
"    = $ 2 5.0.8.W { Z.G.O.        V     h   ",
"          9 u.e./ ..A.H. .      K       B   ",
"            i a.| ..N.V._             j g   ",
"            X { 3...l.v.^             C     ",
"              + / =.s.h.E         A Z       ",
"                # ) i.p.u         n         ",
"                  ; 5 q ,                   "
};
