/* XPM */
static char *volume3[] = {
/* columns rows colors chars-per-pixel */
"16 16 110 2 ",
"   c None",
".  c #272727",
"X  c #292828",
"o  c gray17",
"O  c #2C2C2C",
"+  c #2D2D2D",
"@  c gray18",
"#  c #2F2F2F",
"$  c #323232",
"%  c #343433",
"&  c #4A3D23",
"*  c #766C35",
"=  c #4E5057",
"-  c gray35",
";  c #606060",
":  c #616267",
">  c #646464",
",  c DimGray",
"<  c gray42",
"1  c gray45",
"2  c gray46",
"3  c gray48",
"4  c #7E7E7E",
"5  c gray50",
"6  c #8B772D",
"7  c #93732A",
"8  c #1E9E00",
"9  c #328300",
"0  c #15A100",
"q  c #30A000",
"w  c #47A100",
"e  c #59B700",
"r  c #F0A600",
"t  c #EFD10B",
"y  c #FFD600",
"u  c #AB8A46",
"i  c #AC8944",
"p  c #BBA16A",
"a  c #C1B45F",
"s  c #D0BB5A",
"d  c #F1BB45",
"f  c #D3B466",
"g  c #808182",
"h  c #838383",
"j  c gray52",
"k  c #868686",
"l  c gray53",
"z  c #8B8986",
"x  c #888888",
"c  c gray55",
"v  c gray56",
"b  c #8E8A94",
"n  c #909090",
"m  c #929292",
"M  c #939393",
"N  c #939294",
"B  c #959595",
"V  c #959596",
"C  c #979797",
"Z  c #95919B",
"A  c #989899",
"S  c gray60",
"D  c #9A9A9A",
"F  c #9A9A9C",
"G  c #9D9D9D",
"H  c gray62",
"J  c #9A9CA6",
"K  c #A0A0A0",
"L  c #A2A2A2",
"P  c gray64",
"I  c #A4A4A4",
"U  c #A2A6AE",
"Y  c #AAAAAA",
"T  c #ACACAC",
"R  c #AEAEAE",
"E  c #A9ABB4",
"W  c gray70",
"Q  c #B2B3B6",
"!  c #BCBCBC",
"~  c gray",
"^  c #EAD3A1",
"/  c #C0C0C0",
"(  c #C1C1C1",
")  c #C3C3C3",
"_  c gray77",
"`  c #C6C6C6",
"'  c #C3C6CB",
"]  c gray79",
"[  c #CBCBCB",
"{  c gray80",
"}  c gray82",
"|  c gray84",
" . c #D7D7D7",
".. c gainsboro",
"X. c #DFDFDF",
"o. c #FFF7DA",
"O. c gray88",
"+. c #E5E5E6",
"@. c #E7E7E7",
"#. c #EEEEEE",
"$. c #F4EDE1",
"%. c #FFFEE2",
"&. c #F3F3F3",
"*. c gray96",
"=. c #F6F6F6",
"-. c #FFFFF5",
";. c #F9F9F9",
":. c #FDFDFD",
">. c #FDFDFF",
",. c white",
/* pixels */
"              . 1 m >           ",
"            + 3 X.,.m           ",
"          + W ] *.,.m           ",
"        X ~ ,.*.&.,.C           ",
"      & Q ,.,.] X.*.A       e   ",
"  i o.$.,.;.+.P ~ X.G       9   ",
"z p %.-.+.] ! k P ` Z   w     8 ",
"g u d ^ ' A m , l Y A   q     0 ",
": 7 r f U v k ; l Y C   q     0 ",
"= 6 y s J G M , P ` b   w     8 ",
"  * t a E Y P 1 ( O.N       9   ",
"      % v / R 4  .*.C       e   ",
"        o G ` x } #.v           ",
"          # P C ` X.k           ",
"            % g (  .4           ",
"              + 2 k -           "
};
