/* XPM */
static char *volume2[] = {
/* columns rows colors chars-per-pixel */
"16 16 120 2 ",
"   c None",
".  c #2C2C2C",
"X  c #2F2F2F",
"o  c #795714",
"O  c #454238",
"+  c #4D473C",
"@  c #5F553F",
"#  c #424241",
"$  c #434343",
"%  c #4C4C4C",
"&  c #545558",
"*  c #585858",
"=  c #716140",
"-  c #646464",
";  c gray40",
":  c #646669",
">  c DimGray",
",  c gray42",
"<  c #6F6F6F",
"1  c #727272",
"2  c #797979",
"3  c gray48",
"4  c #7B7B7B",
"5  c #7E7E7E",
"6  c #957F54",
"7  c #6BBF00",
"8  c #2EC700",
"9  c #DD9C00",
"0  c #D8BF1D",
"q  c #ECA600",
"w  c #ECC205",
"e  c #FFD300",
"r  c #E8CC10",
"t  c #A38954",
"y  c #E1AF42",
"u  c #F0BD4F",
"i  c #818181",
"p  c #808286",
"a  c #848484",
"s  c gray52",
"d  c gray53",
"f  c #8B8B8B",
"g  c #8B8C8F",
"h  c gray55",
"j  c #8D8D8D",
"k  c #8E8E8E",
"l  c gray56",
"z  c gray57",
"x  c #929292",
"c  c #939393",
"v  c #959595",
"b  c gray59",
"n  c #979797",
"m  c #989898",
"M  c #9A9A9A",
"N  c #9B9B9B",
"B  c #9D9D9D",
"V  c #B0AA86",
"C  c #B8AF86",
"Z  c #9A9CA2",
"A  c gray64",
"S  c #A0A2A7",
"D  c gray65",
"F  c #A7A7A7",
"G  c #A9A9A9",
"H  c gray67",
"J  c #ACACAC",
"K  c gray68",
"L  c #AEAEAE",
"P  c #AFAFAF",
"I  c #ADACB0",
"U  c #ACADB2",
"Y  c #B1B1B1",
"T  c #B1B1B2",
"R  c gray70",
"E  c gray71",
"W  c #B6B6B6",
"Q  c #B7B6BA",
"!  c gray72",
"~  c #B9B9B9",
"^  c #BBBBBB",
"/  c #BBBBBC",
"(  c gray75",
")  c #C7BA98",
"_  c #FBE5BA",
"`  c #BEBFC0",
"'  c #C0C0C0",
"]  c gray76",
"[  c #C0C2C5",
"{  c #C6C6C6",
"}  c #C8C8C8",
"|  c #CBCBCB",
" . c gray80",
".. c #CDCDCD",
"X. c #CECECE",
"o. c gray82",
"O. c LightGray",
"+. c #D5D5D5",
"@. c gainsboro",
"#. c #DDDDDD",
"$. c #E7DDC7",
"%. c #F3E7C0",
"&. c #FFF3D9",
"*. c #E1E1E2",
"=. c #E4E4E4",
"-. c #E6E6E6",
";. c gray92",
":. c #ECECEC",
">. c #F0EDE8",
",. c #FFFFE6",
"<. c gray94",
"1. c gray95",
"2. c #F3F3F3",
"3. c #F4F4F4",
"4. c gray97",
"5. c #F8F8F8",
"6. c #FBFBFB",
"7. c #FFFFFC",
"8. c #FEFEFE",
"9. c white",
/* pixels */
"                  $ 5 j 2       ",
"                * B 1.6.E       ",
"              c ..o.9.9.E       ",
"          . J 9.4.1.2.9.~       ",
"        + ` 9.9.-.] -.2.~       ",
"  o _ &.>.9.5.2.] B | #./       ",
"g t %.,.9.*.} { B a J [ Q   7   ",
"p 6 y u $.[ n M 3 > c G E     8 ",
": = 9 q ) S f j < - c D Y     8 ",
"& @ w e C Z B B 3 1 R ' J   7   ",
"  O 0 r V U J G s i O.#.T       ",
"        $ v / ~ l j :.1.E       ",
"          X c ..B c =.;.J       ",
"              s J v +.#.D       ",
"                ; n ..+.M       ",
"                  % 2 s ,       "
};
