/* XPM */
static char *volume2[] = {
/* columns rows colors chars-per-pixel */
"22 22 204 2 ",
"   c None",
".  c gray14",
"X  c gray15",
"o  c #2A2A2A",
"O  c #2F2F2F",
"+  c #353534",
"@  c #353535",
"#  c gray22",
"$  c #327F00",
"%  c #744E02",
"&  c #7F5C1A",
"*  c #424037",
"=  c #434239",
"-  c #44433D",
";  c #7D6E39",
":  c gray26",
">  c #434343",
",  c #444446",
"<  c #464646",
"1  c #484848",
"2  c #4A4948",
"3  c #4C4C4C",
"4  c #4E4E4E",
"5  c gray31",
"6  c #525253",
"7  c gray33",
"8  c gray34",
"9  c #585858",
"0  c #5B5B5B",
"q  c #5D5D5D",
"w  c gray37",
"e  c #726A46",
"r  c #64625E",
"t  c gray38",
"y  c #616263",
"u  c #626262",
"i  c gray39",
"p  c #646464",
"a  c #686868",
"s  c DimGray",
"d  c gray42",
"f  c #6B6B6C",
"g  c #6C6C6C",
"h  c #6D6D6D",
"j  c #6F6F6F",
"k  c #727272",
"l  c #707174",
"z  c #747474",
"x  c gray46",
"c  c #767676",
"v  c #767779",
"b  c gray47",
"n  c #797979",
"m  c #7A7A7B",
"M  c #7C7C7C",
"N  c gray49",
"B  c #7E7E7E",
"V  c gray50",
"C  c #8A5F0B",
"Z  c #916207",
"A  c #8D6D29",
"S  c #9A752C",
"D  c #846D31",
"F  c #807869",
"G  c #1B8600",
"H  c #438D00",
"J  c #77B200",
"K  c #24D000",
"L  c #62E101",
"P  c #BD8C2C",
"I  c #A98539",
"U  c #B0893A",
"Y  c #E6A000",
"T  c #EAA000",
"R  c #F2BC00",
"E  c #F6BE00",
"W  c #DDA931",
"Q  c #E1B92F",
"!  c #ECAF31",
"~  c #E9AF36",
"^  c #EDD00F",
"/  c #F2D307",
"(  c #FFD800",
")  c #FFDC00",
"_  c #D9C335",
"`  c #E8CB2B",
"'  c #87837C",
"]  c #E6BC63",
"[  c gray51",
"{  c #838383",
"}  c #848484",
"|  c gray52",
" . c #848587",
".. c #868686",
"X. c gray53",
"o. c #898989",
"O. c gray54",
"+. c #8B8B8B",
"@. c gray55",
"#. c #8E8E8E",
"$. c gray56",
"%. c #909090",
"&. c gray57",
"*. c #929292",
"=. c #929293",
"-. c #939393",
";. c gray58",
":. c #959595",
">. c gray59",
",. c #979797",
"<. c #989799",
"1. c gray60",
"2. c #9A9A9A",
"3. c #9A9A9B",
"4. c gray61",
"5. c #9F9F9F",
"6. c #ADA79C",
"7. c #A0A0A0",
"8. c #A0A0A1",
"9. c gray63",
"0. c gray64",
"q. c #A0A1A7",
"w. c #A4A4A4",
"e. c gray65",
"r. c #A6A6A7",
"t. c #A7A8AE",
"y. c gray66",
"u. c #A9A9A9",
"i. c #A9A9AA",
"p. c #AAAAAA",
"a. c gray67",
"s. c #ACACAC",
"d. c gray68",
"f. c #AEAEAE",
"g. c #ABADB2",
"h. c gray69",
"j. c #B1B1B1",
"k. c #B2B2B2",
"l. c gray70",
"z. c #B4B4B4",
"x. c #B6B6B6",
"c. c #B7B7B7",
"v. c gray72",
"b. c gray73",
"n. c #BCBCBC",
"m. c gray74",
"M. c #F9E7A9",
"N. c #FCE9AB",
"B. c #C1C1C1",
"V. c gray76",
"C. c #C3C3C3",
"Z. c #C5C5C5",
"A. c gray78",
"S. c #C1C3C8",
"D. c gray79",
"F. c #CACACA",
"G. c gray80",
"H. c #CDCDCD",
"J. c #D0D0D0",
"K. c gray82",
"L. c #D2D2D2",
"P. c LightGray",
"I. c #D5D5D5",
"U. c #D7D7D7",
"Y. c #D8D8D8",
"T. c gray85",
"R. c gray86",
"E. c gainsboro",
"W. c #DDDDDD",
"Q. c gray87",
"!. c #DFDFDF",
"~. c #FAEDC1",
"^. c #FEF4DF",
"/. c #DDDFE2",
"(. c #E2E2E2",
"). c gray89",
"_. c #E4E4E4",
"`. c gray90",
"'. c #E7E7E7",
"]. c gray91",
"[. c #E9E9E9",
"{. c #EAEAEA",
"}. c #EEEEEE",
"|. c #EFEFEF",
" X c #F9F1E2",
".X c #FFF7E3",
"XX c gray94",
"oX c gray95",
"OX c #F4F4F4",
"+X c gray96",
"@X c #F5F6F6",
"#X c #F6F6F6",
"$X c gray97",
"%X c #FFFFF5",
"&X c #F8F8F8",
"*X c #F9F9F9",
"=X c #F9F9FB",
"-X c gray98",
";X c #FBFBFB",
":X c #FFFFFA",
">X c #FDFDFD",
",X c #FFFFFC",
"<X c #FEFEFE",
"1X c white",
/* pixels */
"                        . 1 p g n 9         ",
"                      o < p.R.I.*X[         ",
"                    @ M 2.F.;X#X1X{         ",
"                  : j.R.v.].1X>X1XX.        ",
"                4 D.1X}.*X$X+X#X1X+.        ",
"              w Y.1X1X-XQ.!.oXXX<X$.        ",
"    % C Z & l `.1X1X1X[.c.C.`.(.&X-.        ",
"    P ^..X X@X1X;X*XOXJ.2.f.K.G.XX>.        ",
"m F U %X:X,X1X{.E.Y.P.l...4.n.v.`.<.  J H   ",
" .6.I M.N.~.=XY.k.x.l.1.k o.y.0.Y.3.    L G ",
"v ' S ~ ! ] /.V.-.>.;.B w c -.#.D.4.    $ K ",
"f r A Y T W S.r.o.@.O.x 8 z ;.$.Z.2.    $ K ",
"y 2 D R E Q g.2.>.,.:.V q } a.e.H.>.    L G ",
"6 , ; ( ) ` q.8.9.9.5.X.i -.B.n.U.=.  J H   ",
"    e ^ / _ t.f.a.s.u.%.s 0.Y.L.).&.        ",
"    + = * - a i.b.x.l.1.j k.}.].XX$.        ",
"              0 p.A.m.9.c z.|.[.XX+.        ",
"                5 y.J.p.N h._.Q.'.|         ",
"                  > 7.n.| d.T.I.W.V         ",
"                    # o.*.u.J.G.P.b         ",
"                      O t w.A.C.A.k         ",
"                        X 3 u d h 7         "
};
