/* XPM */
static char *volume3[] = {
/* columns rows colors chars-per-pixel */
"22 22 183 2 ",
"   c None",
".  c gray14",
"X  c gray15",
"o  c #272727",
"O  c #27272D",
"+  c #282828",
"@  c gray16",
"#  c #2A2A2A",
"$  c gray17",
"%  c #2C2C2C",
"&  c #2D2D2D",
"*  c #4F3400",
"=  c #7E5B18",
"-  c #424137",
";  c #41403B",
":  c #44433C",
">  c #494646",
",  c #514B43",
"<  c #4F5051",
"1  c #515151",
"2  c gray33",
"3  c #555555",
"4  c #565656",
"5  c gray34",
"6  c #585858",
"7  c #5D5E5F",
"8  c gray37",
"9  c #5F5F5F",
"0  c #686050",
"q  c gray40",
"w  c DimGray",
"e  c gray42",
"r  c #696B6D",
"t  c #6D6D6D",
"y  c #6F6F6F",
"u  c #727272",
"i  c gray45",
"p  c #747474",
"a  c #767676",
"s  c #777777",
"d  c gray47",
"f  c gray48",
"g  c #797B7E",
"h  c #7A7B7F",
"j  c #7E7E7E",
"k  c gray50",
"l  c #895D07",
"z  c #8F6108",
"x  c #887145",
"c  c #867960",
"v  c #178900",
"b  c #2D9800",
"n  c #3B9D00",
"m  c #17AE00",
"M  c #15BA00",
"N  c #579D00",
"B  c #70A100",
"V  c #6BBB00",
"C  c #72BE00",
"Z  c #3BC100",
"A  c #36CD01",
"S  c #49D801",
"D  c #69C700",
"F  c #BBA72B",
"G  c #C18A0E",
"H  c #C49A15",
"J  c #C7AA19",
"K  c #EEA200",
"L  c #C6942C",
"P  c #DEA92F",
"I  c #E2BA2D",
"U  c #F0B232",
"Y  c #FBC100",
"T  c #F7D805",
"R  c #FFE100",
"E  c #DAC433",
"W  c #E9CC29",
"Q  c #A59371",
"!  c #D4B76F",
"~  c #E7BB61",
"^  c #808080",
"/  c #818284",
"(  c #848484",
")  c gray52",
"_  c #868686",
"`  c gray53",
"'  c #888888",
"]  c #898989",
"[  c gray54",
"{  c #8B8B8B",
"}  c gray55",
"|  c #8D8D8D",
" . c #8E8E8E",
".. c gray56",
"X. c #8E8C92",
"o. c #8C8E92",
"O. c #909090",
"+. c #909091",
"@. c gray57",
"#. c #929292",
"$. c #939393",
"%. c #939295",
"&. c gray58",
"*. c #959595",
"=. c #979797",
"-. c #959399",
";. c #979798",
":. c #989898",
">. c #989899",
",. c gray60",
"<. c #99989A",
"1. c #9A9A9A",
"2. c #9B9B9B",
"3. c gray62",
"4. c #A0A0A1",
"5. c gray63",
"6. c #A2A2A2",
"7. c gray64",
"8. c #A0A1A6",
"9. c gray65",
"0. c gray67",
"q. c #A9A9AE",
"w. c #A9AAAF",
"e. c #ACACAC",
"r. c gray68",
"t. c gray70",
"y. c #B4B4B4",
"u. c gray71",
"i. c gray72",
"p. c #B9B9B9",
"a. c #BBBBBB",
"s. c #BCBCBC",
"d. c gray74",
"f. c gray",
"g. c gray75",
"h. c #DFCA9C",
"j. c #EBCC8F",
"k. c #FFEEB1",
"l. c #BFC1C5",
"z. c #C0C0C0",
"x. c #C1C1C1",
"c. c #C5C5C5",
"v. c #C6C6C6",
"b. c #C8C8C8",
"n. c gray80",
"m. c #CDCDCD",
"M. c #CECECE",
"N. c #D2D2D2",
"B. c LightGray",
"V. c gray83",
"C. c #D5D5D5",
"Z. c gray84",
"A. c #D7D7D7",
"S. c gray85",
"D. c gray86",
"F. c #DDDDDD",
"G. c #FAEDC0",
"H. c #DDDEE1",
"J. c #E1E1E1",
"K. c gray89",
"L. c gray90",
"P. c #E7E7E7",
"I. c gray91",
"U. c #E9E9E9",
"Y. c #EAEAEA",
"T. c gray92",
"R. c #ECECEC",
"E. c #FAF2E2",
"W. c #FFFBEB",
"Q. c #F1F1F1",
"!. c gray95",
"~. c gray96",
"^. c #F6F6F6",
"/. c gray97",
"(. c #F7F7F9",
"). c #F8F9F9",
"_. c #F9F9F9",
"`. c gray98",
"'. c #FAFBFB",
"]. c #FDFDFD",
"[. c #FFFFFC",
"{. c #FEFEFF",
"}. c white",
/* pixels */
"                    @ 3 w s 4               ",
"                  o 2 b.A.!._               ",
"                @ d 3.L._.}.`               ",
"              o $.S.g.^.].}.]               ",
"            X  .}.!._.^.~.}.|               ",
"          . ` }.}._.D.I.Q.].@.      B V     ",
"    l z = / '.}.}.Y.y.C.K.~.&.        D n   ",
"  * j.W.E.).}.`./.N.:.z.m.U.=.          S   ",
"h x h.}.[.{.K.S.Z.y.) r.i.D.-.  C       b v ",
"o.Q ! k.G.(.v.t.u.1.u ,.7.n.<.  N Z       m ",
"g c L U ~ H.r.$.*.k 8 _  .s.2.    A       M ",
"r 0 G K P l.>.[ { a 6 ) ..i.,.    A       M ",
"7 , H Y I w.;.=.=.k 9 ,.9.c.%.  N Z       m ",
"< > J R W 8.4.5.5.' q e.d.N.X.  C       b v ",
"  O F T E q.r.0.0.O.t z.V.J.+.          S   ",
"    ; - : u u.i.u.,.p B.T.Q.O.        D n   ",
"          + s x.x.6.f V.R.Q.}       B V     ",
"            @ j M.e.^ n.J.P._               ",
"              # ' a.` c.A.F.^               ",
"                $ ( #.f.M.B.f               ",
"                  & e p.c.b.i               ",
"                    % 5 w y 1               "
};
