/* XPM */
static char *volume1[] = {
/* columns rows colors chars-per-pixel */
"22 22 230 2 ",
"   c None",
".  c #222222",
"X  c gray16",
"o  c #2A2A2A",
"O  c #2F2F2F",
"+  c #313131",
"@  c gray22",
"#  c #3E3E3E",
"$  c #550601",
"%  c #5D0A07",
"&  c #6A110D",
"*  c #6F120D",
"=  c #70110D",
"-  c #74130F",
";  c #731912",
":  c #43201C",
">  c #492225",
",  c #5F2320",
"<  c #762620",
"1  c #712E26",
"2  c #613631",
"3  c #643838",
"4  c #7D3935",
"5  c #775718",
"6  c #4C473B",
"7  c #5D543F",
"8  c #634131",
"9  c #695B3E",
"0  c #58595C",
"q  c #5D5D5D",
"w  c #606060",
"e  c gray38",
"r  c #606164",
"t  c #6A6A6A",
"y  c #6D6D6D",
"u  c gray43",
"i  c #746464",
"p  c #727272",
"a  c gray45",
"s  c #727575",
"d  c gray46",
"f  c #737478",
"g  c gray47",
"h  c #787979",
"j  c #7A7A79",
"k  c #7B7B7B",
"l  c #851F1A",
"z  c #B90000",
"x  c #BD0C05",
"c  c #AA3219",
"v  c #9F3625",
"b  c #993734",
"n  c #993A39",
"m  c #B13F2E",
"M  c #AA3E37",
"N  c #AC3D39",
"B  c #CD0000",
"V  c #D10000",
"C  c #D31B10",
"Z  c #E60000",
"A  c #EA0000",
"S  c #FB0000",
"D  c #FD0000",
"F  c #CB2318",
"G  c #D1261A",
"H  c #DA281A",
"J  c #E5241C",
"K  c #E62C1F",
"L  c #D0372D",
"P  c #C53E34",
"I  c #C93936",
"U  c #C73B3D",
"Y  c #E83732",
"T  c #BF4328",
"R  c #B24A3B",
"E  c #8A7F3C",
"W  c #C3452F",
"Q  c #C84A34",
"!  c #C6403E",
"~  c #CD4C39",
"^  c #E4433D",
"/  c #894240",
"(  c #AF4D43",
")  c #82704A",
"_  c #AE6562",
"`  c #BE6B67",
"'  c #A4716B",
"]  c #BF7977",
"[  c #D24C4B",
"{  c #D04F4F",
"}  c #CF5F46",
"|  c #CD504D",
" . c #D45142",
".. c #D45749",
"X. c #D15753",
"o. c #E04C41",
"O. c #F05049",
"+. c #EE5852",
"@. c #F05751",
"#. c #CA6354",
"$. c #C86853",
"%. c #DB6150",
"&. c #E06658",
"*. c #E4685A",
"=. c #DD6161",
"-. c #C47A76",
";. c #E16563",
":. c #E06968",
">. c #E46D6A",
",. c #E57163",
"<. c #E87063",
"1. c #EF786C",
"2. c #8F8331",
"3. c #BC8D30",
"4. c #BF9036",
"5. c #D89711",
"6. c #DDA203",
"7. c #E9A10E",
"8. c #F0AE00",
"9. c #E5BB08",
"0. c #FECE00",
"q. c #F0D009",
"w. c #FFE800",
"e. c #9E885B",
"r. c #A38954",
"t. c #84826F",
"y. c #978B76",
"u. c #BAAF7F",
"i. c #E5C26B",
"p. c #818181",
"a. c gray51",
"s. c #838383",
"d. c gray52",
"f. c gray53",
"g. c #87898D",
"h. c #888888",
"j. c #898989",
"k. c gray54",
"l. c #8B8B8B",
"z. c #8D8D8D",
"x. c gray56",
"c. c #8E9093",
"v. c #909090",
"b. c #929292",
"n. c #959595",
"m. c #959696",
"M. c #969797",
"N. c #989898",
"B. c gray60",
"V. c #9B9B9B",
"C. c gray61",
"Z. c #9D9D9D",
"A. c #9A9BA2",
"S. c #A1A5A6",
"D. c #A5A5A5",
"F. c gray65",
"G. c #A7A7A7",
"H. c #A0A2A8",
"J. c #A4A5AD",
"K. c gray66",
"L. c #A9A9A9",
"P. c gray68",
"I. c #AEAEAE",
"U. c #BAA6A7",
"Y. c #AEAFB1",
"T. c #AEB4B4",
"R. c #B1B1B1",
"E. c gray70",
"W. c #B6B6B6",
"Q. c #B5B7BC",
"!. c #BBBBBB",
"~. c gray74",
"^. c gray75",
"/. c #F78583",
"(. c #F88785",
"). c #C1B881",
"_. c #C6B68D",
"`. c #C6B6B6",
"'. c #F8D782",
"]. c #D6C5A4",
"[. c #F0E4BD",
"{. c #C0C0C0",
"}. c gray76",
"|. c #C5C5C5",
" X c #C5CACB",
".X c #C4CCCC",
"XX c #C8C9C9",
"oX c #CBCBCB",
"OX c #CBCDCD",
"+X c #CACECE",
"@X c #CDCDCD",
"#X c gray81",
"$X c #CCD0D2",
"%X c #D0D0D0",
"&X c gray82",
"*X c #D2D2D2",
"=X c LightGray",
"-X c #D2D3D6",
";X c gray83",
":X c #D5D5D5",
">X c #D7D7D7",
",X c #D8D8D8",
"<X c gray85",
"1X c gray86",
"2X c gainsboro",
"3X c #DDDDDD",
"4X c #F2EAD6",
"5X c #FDF2DC",
"6X c #DFE4E4",
"7X c #E1E1E1",
"8X c gray89",
"9X c gray90",
"0X c #E6E6E6",
"qX c #E6E6E7",
"wX c #E4E9EA",
"eX c gray91",
"rX c #EAEAEA",
"tX c #EFEFEF",
"yX c #FFFFE8",
"uX c #ECEEF1",
"iX c #F2F3F3",
"pX c #F3F3F3",
"aX c #F4F4F4",
"sX c gray96",
"dX c gray97",
"fX c #F8F8F8",
"gX c #FBFBFB",
"hX c #FFFFFA",
"jX c gray99",
"kX c white",
/* pixels */
"                  + e p d                   ",
"                X y >X8X=X                  ",
"              o d.L.pXkX:X                  ",
"            . C.2X&XjXkX>X                  ",
"            l.kXfXdXaXgX,X                  ",
"          h gXkXaX*XrXsX<X                  ",
"    3.4.y.uXkXkX7XP.,X9X,X                  ",
"  5 5XkXkXgXpXtX|.n.}.%X;X                  ",
"c.r.[.yXhXqXoXoXK.a.I.!.#X                  ",
"g.e.i.'.4X-XF.L.z.u B.F.XX                  ",
"f ) 5.7.].Q.k.z.d q h.m.{.3                 ",
"r 9 6.8._.H.x.v.g w M.S.` &.-         *.l   ",
"0 7 9.0.u.A.C.C.p.t T._  ./.<.%     ..(.1.= ",
"  6 q.w.).J.G.G.j.a  X] ~ ;.:.#.$ R >.=.,.& ",
"    E 2.t.Y.E.R.b.k 1XwX-.Q [ | $.X.{ %.*   ",
"          j ^.~.V.s.0XiX$X< W I U ! } ;     ",
"          X j.@XD.f.3XeX.X> c F z x T       ",
"            O Z.W.l.=X6XU.v H B G V C m     ",
"              @ N.n.OX`.( K Z L 8 P A J M   ",
"                # d.+X' o.D Y 2   : ^ S O./ ",
"                  # s i b @.4       , +.N   ",
"                          1           n     "
};
