/* XPM */
static char *volume1[] = {
/* columns rows colors chars-per-pixel */
"16 16 133 2 ",
"   c None",
".  c gray11",
"X  c gray20",
"o  c #58110B",
"O  c #7E1F19",
"+  c #6D231C",
"@  c #702D27",
"#  c #7C3431",
"$  c #7A5A1C",
"%  c #686131",
"&  c #3B3B44",
"*  c #3F4040",
"=  c #414141",
"-  c #515151",
";  c #595A5F",
":  c DimGray",
">  c #6F6F6F",
",  c gray45",
"<  c gray46",
"1  c #767675",
"2  c #777777",
"3  c gray48",
"4  c #7B7E7E",
"5  c #7D7C7C",
"6  c gray49",
"7  c gray50",
"8  c #A42E1B",
"9  c #BB2211",
"0  c #8F352A",
"q  c #95332C",
"w  c #993028",
"e  c #9B352B",
"r  c #923C3A",
"t  c #B2322E",
"y  c #CD0804",
"u  c #CE0905",
"i  c #F00906",
"p  c #F00C0B",
"a  c #C72617",
"s  c #C52D2B",
"d  c #D82F26",
"f  c #CA302D",
"g  c #D33327",
"h  c #C23632",
"j  c #F32F2B",
"k  c #FC332F",
"l  c #B44336",
"z  c #B94731",
"x  c #BD5E56",
"c  c #866F6F",
"v  c #916762",
"b  c #9F6A64",
"n  c #8F7A7A",
"m  c #D44F4A",
"M  c #C25548",
"N  c #C9574E",
"B  c #C8594E",
"V  c #DA5C58",
"C  c #D86056",
"Z  c #E6655D",
"A  c #DC6960",
"S  c #E46861",
"D  c #EC736E",
"F  c #A98219",
"G  c #9A8C29",
"H  c #B5892E",
"J  c #AB9420",
"K  c #F3B600",
"L  c #EEAF2C",
"P  c #FFE401",
"I  c #868179",
"U  c #F7807A",
"Y  c #CBB176",
"T  c #CCB17A",
"R  c gray53",
"E  c #898989",
"W  c gray54",
"Q  c #8A8D8D",
"!  c #8E8E8E",
"~  c gray56",
"^  c #938F87",
"/  c #949286",
"(  c gray58",
")  c #959595",
"_  c gray59",
"`  c #929498",
"'  c #989898",
"]  c #9B9B9B",
"[  c #9B9C9F",
"{  c #9D9D9C",
"}  c #AB8C8B",
"|  c #B2AD92",
" . c #B6AE98",
".. c #9EA1A2",
"X. c #A0A0A0",
"o. c #A0A1A6",
"O. c #A6AAAB",
"+. c #A9A9A9",
"@. c #AAAFAF",
"#. c #AEAEAE",
"$. c gray69",
"%. c #B2B2B2",
"&. c #B5B5B7",
"*. c gray72",
"=. c #C09E9B",
"-. c #D4CDBD",
";. c #C1C2C2",
":. c #C0C3C3",
">. c #C3C3C3",
",. c #C2C5C5",
"<. c gray77",
"1. c #C4C4C5",
"2. c #CBCBCB",
"3. c gray81",
"4. c #DECCCB",
"5. c gray82",
"6. c #D5D5D5",
"7. c gray85",
"8. c gainsboro",
"9. c #FFF6C9",
"0. c #E2E8E9",
"q. c #E9E9E9",
"w. c #F6F5EF",
"e. c gray94",
"r. c gray95",
"t. c #F3F3F3",
"y. c #F4F4F4",
"u. c gray96",
"i. c #F3FAFA",
"p. c #FFFEFD",
"a. c #FDFEFF",
"s. c #FEFEFE",
"d. c white",
/* pixels */
"            . > _ -             ",
"            > 7.p.,             ",
"          ' 6.r.p.,             ",
"        W p.y.e.p.2             ",
"    $ I p.p.3.5.y.3             ",
"  T p.p.u.q.+.%.8.5             ",
"^ Y 9.w.,.*.R _ ,.4             ",
"1 H L -.[ ~ : 5 @.n             ",
"; F K  .` ~ : Q } A q     O C   ",
"& J P | o.X.1 O.x Z D + o S U w ",
"  % G / &.#.5 ,.4.M m N B V l   ",
"        { 1.E 2.i.c 8 f s z     ",
"        X %.' ;.0.v 9 y y a     ",
"          = _ :.=.g i e 0 p d   ",
"            = ..b j h     t k # ",
"                  @         r   "
};
