/* XPM */
static char *wifi[] = {
/* columns rows colors chars-per-pixel */
"16 16 83 1 ",
"  c None",
". c #245167",
"X c #235168",
"o c #2E5D75",
"O c #2D5E77",
"+ c #336078",
"@ c #2B6C8A",
"# c #2A6D8C",
"$ c #396A82",
"% c #386B83",
"& c #3B6E87",
"* c #3E6C84",
"= c #326C89",
"- c #326E8A",
"; c #3F7088",
": c #3F7897",
"> c #3E7C99",
", c #41728A",
"< c #40728B",
"1 c #47758E",
"2 c #407896",
"3 c #477B96",
"4 c #3C85AA",
"5 c #388AB2",
"6 c #3A8FB7",
"7 c #3F8FB6",
"8 c #3E8FB7",
"9 c #3990B8",
"0 c #4D829E",
"q c #4188AC",
"w c #4F8DAC",
"e c #4A8EB1",
"r c #4D8EB0",
"t c #4890B5",
"y c #4493B8",
"u c #4394B9",
"i c #4B94BB",
"p c #4E97B9",
"a c #4C94BA",
"s c #4896BE",
"d c #4897BF",
"f c #5199BC",
"g c #519ABE",
"h c #559CBF",
"j c #5D9BBC",
"k c #5D9CBD",
"l c #4497C0",
"z c #459BC5",
"x c #4F9CC4",
"c c #4E9DC6",
"v c #559CC0",
"b c #539DC5",
"n c #539DC6",
"m c #4CA1CA",
"M c #49A2CF",
"N c #5AA2C6",
"B c #5EA3C6",
"V c #54A2CB",
"C c #54A2CC",
"Z c #50A4CF",
"A c #5EA3C8",
"S c #5EA4C9",
"D c #5DA5CA",
"F c #50A5D0",
"G c #52A6D2",
"H c #57ABD6",
"J c #5DACD3",
"K c #51ABD8",
"L c #5BB0DC",
"P c #5BB0DD",
"I c #5CB1DD",
"U c #5CB0DE",
"Y c #5DB0DE",
"T c #6AA4C0",
"R c #66B4DD",
"E c #6AB4DB",
"W c #62B5E1",
"Q c #60B4E2",
"! c #61B4E2",
"~ c #62B5E2",
"^ c #63B7E5",
"/ c #69B7E0",
"( c #66B9E6",
/* pixels */
"     1kEEj*     ",
"   0/(^~!^(R3   ",
"  A~In2++2nI~B  ",
" DIV        CID ",
"rLa          iIw",
"tx   <NJJB<   xe",
"    vHFFZFHh    ",
"   gFso  OlFg   ",
"   Kq      4M   ",
"   =  %pp$  T   ",
"     >czzc@     ",
"     lyXXy5     ",
"     &    <     ",
"       uy       ",
"       96       ",
"       #@       "
};
