/* XPM */
static char *wifi[] = {
/* columns rows colors chars-per-pixel */
"22 22 250 2 ",
"   c None",
".  c #1D5C78",
"X  c #25637F",
"o  c #3E6478",
"O  c #276683",
"+  c #236D8F",
"@  c #3D738A",
"#  c #2B7191",
"$  c #2E799A",
"%  c #277DA3",
"&  c #247DA7",
"*  c #287CA1",
"=  c #287DA2",
"-  c #297FA5",
";  c #2B7EA4",
":  c #2C7FA5",
">  c #457C97",
",  c #2F81A6",
"<  c #2F82A7",
"1  c #2980A9",
"2  c #2B81A8",
"3  c #2F82A8",
"4  c #2E82A9",
"5  c #3081A6",
"6  c #3984A7",
"7  c #3084A9",
"8  c #3284A9",
"9  c #3184AA",
"0  c #3586AC",
"q  c #3587AE",
"w  c #3288AF",
"e  c #3788AE",
"r  c #3789AF",
"t  c #3889AF",
"y  c #3086B0",
"u  c #3388B1",
"i  c #358AB1",
"p  c #3789B2",
"a  c #368AB4",
"s  c #378DB4",
"d  c #388AB1",
"f  c #398BB1",
"g  c #3A8BB2",
"h  c #3B8CB2",
"j  c #3A8CB3",
"k  c #3B8DB4",
"l  c #388EB6",
"z  c #3B8EB7",
"x  c #3C8DB4",
"c  c #3D8DB5",
"v  c #3D8EB4",
"b  c #3D8EB5",
"n  c #3E8FB7",
"m  c #368FBC",
"M  c #3A8FBA",
"N  c #388FBC",
"B  c #3F90B7",
"V  c #3B90B8",
"C  c #3A90BA",
"Z  c #3C91BA",
"A  c #3D91BB",
"S  c #3D92BB",
"D  c #3F92BA",
"F  c #3991BE",
"G  c #3A92BF",
"H  c #3E92BF",
"J  c #658C9F",
"K  c #4486A4",
"L  c #478EAD",
"P  c #5789A4",
"I  c #558BA6",
"U  c #438EB0",
"Y  c #4090B7",
"T  c #4B94B5",
"R  c #4E94B4",
"E  c #4091B8",
"W  c #4192BA",
"Q  c #4293BA",
"!  c #4293BC",
"~  c #4193BF",
"^  c #4593BC",
"/  c #4394BC",
"(  c #4295BE",
")  c #4495BD",
"_  c #4495BE",
"`  c #4A94B8",
"'  c #4895BA",
"]  c #4E95B9",
"[  c #4D98BD",
"{  c #5592B0",
"}  c #5792B1",
"|  c #5295B6",
" . c #5D98B7",
".. c #539ABE",
"X. c #549CBF",
"o. c #5B9DBC",
"O. c #5D9CBC",
"+. c #5E9CBE",
"@. c #3F95C0",
"#. c #4095C1",
"$. c #4697C0",
"%. c #4896C1",
"&. c #4A97C1",
"*. c #479AC4",
"=. c #469AC5",
"-. c #4999C1",
";. c #499CC7",
":. c #4D9DC4",
">. c #479DC8",
",. c #499EC9",
"<. c #4B9EC9",
"1. c #4B9ECB",
"2. c #4C9CC8",
"3. c #539CC1",
"4. c #559CC2",
"5. c #579FC3",
"6. c #4EA0CB",
"7. c #4CA0CC",
"8. c #4EA0CD",
"9. c #4DA0CE",
"0. c #4DA1CE",
"q. c #4FA1CE",
"w. c #55A0C5",
"e. c #56A1C6",
"r. c #5DA0C1",
"t. c #58A2C6",
"y. c #52A0C8",
"u. c #52A0CB",
"i. c #55A0CA",
"p. c #51A1CE",
"a. c #52A1CE",
"s. c #50A3CF",
"d. c #53A3CE",
"f. c #53A4CE",
"g. c #53A5CF",
"h. c #54A4CE",
"j. c #54A4CF",
"k. c #59A1C8",
"l. c #5AA5CA",
"z. c #5AA3CD",
"x. c #51A4D0",
"c. c #54A6D0",
"v. c #55A6D1",
"b. c #56A6D0",
"n. c #57A7D1",
"m. c #58A7D1",
"M. c #58A8D3",
"N. c #5AA9D4",
"B. c #5AAAD4",
"V. c #5BABD6",
"C. c #5BABD7",
"Z. c #5CABD7",
"A. c #5CACD7",
"S. c #5DADD9",
"D. c #5EAFDA",
"F. c #61A3C2",
"G. c #62A4C6",
"H. c #68A5C6",
"J. c #60A5CA",
"K. c #68A5C8",
"L. c #64A9CC",
"P. c #6DACCA",
"I. c #6EADCC",
"U. c #71A6C4",
"Y. c #70AAC5",
"T. c #73ABC5",
"R. c #79A9C3",
"E. c #71ADCF",
"W. c #60AFDA",
"Q. c #6EB2D5",
"!. c #60B1DC",
"~. c #62B3DD",
"^. c #63B3DF",
"/. c #77B6D5",
"(. c #7DB6D1",
"). c #7FB5D3",
"_. c #78B2D5",
"`. c #7AB7D6",
"'. c #76BADD",
"]. c #64B4E0",
"[. c #68B7E1",
"{. c #69B9E4",
"}. c #6FBEE8",
"|. c #74BAE0",
" X c #71BFE8",
".X c #72C0E9",
"XX c #90B6CB",
"oX c #80B7D3",
"OX c #82B9D4",
"+X c #81BAD7",
"@X c #84BAD6",
"#X c #8BB8D2",
"$X c #86B9D9",
"%X c #87BEDA",
"&X c #89BAD8",
"*X c #95BBD1",
"=X c #92BDD1",
"-X c #92BFD4",
";X c #9CBFD4",
":X c #8EC2DC",
">X c #95C1D6",
",X c #97C1D7",
"<X c #99C2D6",
"1X c #94C2D8",
"2X c #9CC2D9",
"3X c #9AC5DA",
"4X c #9FC7DA",
"5X c #9AC7DF",
"6X c #ADC9DA",
"7X c #A8CCDD",
"8X c #ADCCDF",
"9X c #AECCDE",
"0X c #A3C8E0",
"qX c #A6CBE3",
"wX c #AAD0E4",
"eX c #B1D1E6",
"rX c #B5D5E5",
"tX c #B7D7E7",
"yX c #B7D8E8",
"uX c #BEDBE9",
"iX c #C6DBE7",
"pX c #C6DCEA",
"aX c #C7DDEC",
"sX c #D1DFE9",
"dX c #CAE1EC",
"fX c #CDE1EE",
"gX c #CDE3EE",
"hX c #D0E0EC",
"jX c #D9E6EF",
"kX c #D7E6F1",
"lX c #D9E7F2",
"zX c #DDE9F2",
"xX c #DDECF4",
"cX c #E1EBF3",
"vX c #E3EDF4",
"bX c #E0EEF5",
"nX c #E7EFF4",
"mX c #E6F0F5",
"MX c #E6F1F6",
"NX c #EAF0F5",
"BX c #EDF3F8",
"VX c #EBF4F9",
"CX c #F2F5F8",
"ZX c #F2F7FA",
"AX c #F5F9FC",
"SX c #FBFBFC",
"DX c #FCFEFE",
"FX c #FFFFFE",
"GX c #FEFFFF",
"HX c white",
/* pixels */
"                P H.|.|.H.P                 ",
"          o Q..X{.^.W.W.^.{. X'.J           ",
"         .}.D.V.Z.A.A.A.A.Z.C.S.[.}         ",
"      G.].M.N.N.B.B.B.B.B.N.N.N.M.].G.      ",
"    { !.b.m.v.s.9.q.a.p.8.0.x.n.m.b.!.{     ",
"    ~.h.f.1.z.$XeXfXlXkXaXqX_.u.7.j.d.~.    ",
"  ..g.<.i.0XBXHXHXHXHXHXHXHXHXzX&X2.6.g...  ",
"  c.=.E.vXHXHXxXwX%X/.`.:XyXVXHXHXpXk.;.c.  ",
"I >.).SXHXbX+X*.F ~ &.%.H G y.5XAXHXcXJ.,.I ",
"r.@.tXHXuX:.N K.8XjXNXnXhX2X4.m L.bXHX@X#.r.",
"l.( w.OX$.^ 9XFXHXHXGXHXHXHXCX#XM t.oX-._ l.",
"e.! / Z ! iXHXHXrXI.3.5.(.gXHXHX,XC A ) ! e.",
"| D Q W W dXZXP.p U.;X*X+.a 1XHX3Xz Q Q D | ",
"> S B Y n ' [ ] sXHXHXHXHX6Xc X.E B B B S > ",
"  V b v b k y >XHXMX<X7XDXHXF.u x b v b V   ",
"  6 j g g g d ` 4XO.XXR.Y.-Xh f g g g j 6   ",
"    l r r r t q & =XHXHXo.1 e t r r r l     ",
"    O s 0 0 0 0 4 T.GXmXT 9 0 0 0 0 s O     ",
"      # i 8 8 8 8 3 R U < 8 8 8 8 i #       ",
"        X w 7 5 5 , ; : 5 5 5 3 2 .         ",
"            + - - = * * = - % $             ",
"                @ K L L K @                 "
};
