/* XPM */
static char *workspace[] = {
/* columns rows colors chars-per-pixel */
"16 16 174 2 ",
"   c None",
".  c #000E35",
"X  c #00163D",
"o  c #00183F",
"O  c #001A42",
"+  c #001B42",
"@  c #001B43",
"#  c #021E46",
"$  c #021F48",
"%  c #032149",
"&  c #03214A",
"*  c #072248",
"=  c #04214B",
"-  c #04224B",
";  c #05224B",
":  c #05234E",
">  c #0A264D",
",  c #0B274E",
"<  c #0D2952",
"1  c #0C2A53",
"2  c #082854",
"3  c #0F2C55",
"4  c #0F2C56",
"5  c #0B2C59",
"6  c #0F2E59",
"7  c #112F58",
"8  c #12305A",
"9  c #13325C",
"0  c #13325D",
"q  c #10315F",
"w  c #13335E",
"e  c #14345F",
"r  c #123463",
"t  c #173660",
"y  c #163662",
"u  c #163663",
"i  c #173763",
"p  c #103467",
"a  c #143666",
"s  c #173864",
"d  c #183865",
"f  c #193965",
"g  c #183967",
"h  c #163A6A",
"j  c #1A3B68",
"k  c #1A3C6A",
"l  c #1B3C6A",
"z  c #1E3E68",
"x  c #1C3E6C",
"c  c #1D3E6C",
"v  c #1D3F6D",
"b  c #1E406E",
"n  c #22426E",
"m  c #204270",
"M  c #204372",
"N  c #234470",
"B  c #214474",
"V  c #224575",
"C  c #234677",
"Z  c #254674",
"A  c #244776",
"S  c #254877",
"D  c #23497B",
"F  c #244879",
"G  c #264979",
"H  c #264B7C",
"J  c #274B7C",
"K  c #274C7E",
"L  c #284A78",
"P  c #2A4D7C",
"I  c #284C7E",
"U  c #2C4F7F",
"Y  c #5B5B5B",
"T  c gray36",
"R  c #5F5F5F",
"E  c #4E5A6B",
"W  c #4C5A6E",
"Q  c #535F70",
"!  c #526073",
"~  c #566477",
"^  c #586475",
"/  c #5A687C",
"(  c #5F6B7C",
")  c #626262",
"_  c #626C7C",
"`  c #294F81",
"'  c #2B5082",
"]  c #2D5081",
"[  c #2B5184",
"{  c #2C5285",
"}  c #2F5384",
"|  c #2E5387",
" . c #2E5486",
".. c #2C5489",
"X. c #315688",
"o. c #325688",
"O. c #30578B",
"+. c #33598D",
"@. c #335A8F",
"#. c #345A8F",
"$. c #365B8F",
"%. c #345B90",
"&. c #375D91",
"*. c #365D92",
"=. c #345E96",
"-. c #395F94",
";. c #386096",
":. c #396197",
">. c #3A6197",
",. c #376098",
"<. c #3B6398",
"1. c #3B649A",
"2. c #3C649A",
"3. c #3D659D",
"4. c #3E679E",
"5. c #3E679F",
"6. c #3F689F",
"7. c #3C67A2",
"8. c #3E69A3",
"9. c #5E6D81",
"0. c #637081",
"q. c #627187",
"w. c #677486",
"e. c #677487",
"r. c #687280",
"t. c #6B7584",
"y. c #6D7887",
"u. c #66768C",
"i. c #697688",
"p. c #6B798B",
"a. c #6F7A89",
"s. c #6F7C8F",
"d. c #747F8E",
"f. c #6A7A90",
"g. c #6F7D90",
"h. c #6D7E94",
"j. c #707E91",
"k. c #416BA3",
"l. c #426BA3",
"z. c #426CA6",
"x. c #436DA6",
"c. c #426FAC",
"v. c #4671AB",
"b. c #4771AB",
"n. c #4470AC",
"m. c #4775B3",
"M. c #4875B3",
"N. c #728093",
"B. c #778291",
"V. c #728195",
"C. c #748296",
"Z. c #748396",
"A. c #708198",
"S. c #76869A",
"D. c #76869B",
"F. c #72839C",
"G. c #77879C",
"H. c #7A8AA0",
"J. c #7D8EA4",
"K. c #7D8EA5",
"L. c #7F90A8",
"P. c #7F91A8",
"I. c #81868C",
"U. c #81868D",
"Y. c #8E8C8B",
"T. c #969593",
"R. c #92979F",
"E. c #989898",
"W. c #9097A0",
"Q. c #A0A0A0",
"!. c #C6C6C6",
"~. c gray78",
"^. c #C8C6C5",
"/. c #C9C7C5",
/* pixels */
"W.e.g.V.S.G.K.P.P.K.G.G.Z.j.t.W.",
"F.p D ..=.7.n.m.m.n.8.:.@.I h S.",
"A.a G  .*.3.z.v.b.x.3.;.o.P l Z.",
"h.r A ' @.:.6.k.l.8.<.$.} G l j.",
"f.q n G ..#.;.1.2.:.*.o.U Z i s.",
"u.5 c B I { O.@.#.@.o.] L n q p.",
"q.2 i c V G ' [ ] ' G S n z 7 w.",
"9.: q f x B V D D V B c f i < 0.",
"/ % 3 q f j c b b c j i q 3 * ( ",
"~ + , 3 8 q i i i i w 7 3 , + ^ ",
"! X * > < 3 7 q 8 7 3 < > * X ! ",
"E . X + # - - * - - - # + o . E ",
"I._ r.t.y.a.d.B.B.d.d.y.t.r._ I.",
"            Y.^.!.T.            ",
"            E.^.!.Q.            ",
"            ) Y Y R             "
};
