/* XPM */
static char *workspace[] = {
/* columns rows colors chars-per-pixel */
"14 14 140 2 ",
"   c None",
".  c #001239",
"X  c #001B43",
"o  c #011D44",
"O  c #03204A",
"+  c #052149",
"@  c #05224B",
"#  c #07254E",
"$  c #0B284F",
"%  c #072651",
"&  c #092751",
"*  c #0A2853",
"=  c #0A2B57",
"-  c #0E2C56",
";  c #0F2D56",
":  c #102E57",
">  c #0E305E",
",  c #12315B",
"<  c #13315B",
"1  c #12315D",
"2  c #15345F",
"3  c #233958",
"4  c #153560",
"5  c #163661",
"6  c #153663",
"7  c #133564",
"8  c #193862",
"9  c #193966",
"0  c #12376A",
"q  c #163868",
"w  c #193A68",
"e  c #1A3B68",
"r  c #1A3C69",
"t  c #1B3C69",
"y  c #1C3D6B",
"u  c #183C6D",
"i  c #1B3D6C",
"p  c #1D3F6D",
"a  c #1F4270",
"s  c #1F4271",
"d  c #2D4260",
"f  c #2C4363",
"g  c #2F4666",
"h  c #21416D",
"j  c #304564",
"k  c #304666",
"l  c #334968",
"z  c #204373",
"x  c #234676",
"c  c #234677",
"v  c #254674",
"b  c #264876",
"n  c #254878",
"m  c #25497A",
"M  c #264A7C",
"N  c #274B7C",
"B  c #294B7A",
"V  c #284C7D",
"C  c #294C7D",
"Z  c #2C4F7F",
"A  c gray37",
"S  c #455367",
"D  c #445369",
"F  c #4C5A6E",
"G  c #4B5A70",
"H  c #4F5F76",
"J  c #546276",
"K  c #54657C",
"L  c #59687C",
"P  c #626262",
"I  c gray40",
"U  c #676767",
"Y  c #6A6A6A",
"T  c #616C7B",
"R  c #606C7D",
"E  c #757474",
"W  c #264C80",
"Q  c #2A4F82",
"!  c #2A5083",
"~  c #2B5083",
"^  c #2D5285",
"/  c #2C5286",
"(  c #2D5286",
")  c #2D5386",
"_  c #315586",
"`  c #325789",
"'  c #31578B",
"]  c #30588F",
"[  c #33598E",
"{  c #355A8C",
"}  c #335B91",
"|  c #355B91",
" . c #365C90",
".. c #375D92",
"X. c #365D93",
"o. c #375E93",
"O. c #3A6198",
"+. c #3B6399",
"@. c #3B639A",
"#. c #3C649A",
"$. c #39639D",
"%. c #3B659F",
"&. c #3E679F",
"*. c #3F679F",
"=. c #596A82",
"-. c #5C6C83",
";. c #5E6D82",
":. c #5E6E84",
">. c #5D6F87",
",. c #627287",
"<. c #61738D",
"1. c #65778D",
"2. c #66768C",
"3. c #67788F",
"4. c #647791",
"5. c #667A95",
"6. c #697A90",
"7. c #6B7C94",
"8. c #6A7D95",
"9. c #6C7E96",
"0. c #4069A2",
"q. c #416AA2",
"w. c #416DAA",
"e. c #426EAA",
"r. c #446FA8",
"t. c #456FA8",
"y. c #4674B2",
"u. c #4774B2",
"i. c #6F829C",
"p. c #70839C",
"a. c #7387A2",
"s. c #7487A2",
"d. c #768BA7",
"f. c #838384",
"g. c #888989",
"h. c #858E9A",
"j. c #878F9A",
"k. c gray74",
"l. c #CDCDCC",
"z. c #CDCDCD",
/* pixels */
"h.-.1.8.i.a.d.d.s.p.9.3.>.h.",
"5.0 W ] $.w.u.u.w.%.} ~ u 8.",
"4.q V ' @.0.r.r.0.@.{ Z u 6.",
"<.7 n ^ | @.*.*.#.X._ B e 1.",
">.> s M ^ ] X.X.X.' Z v 4 ,.",
"=.= e z M Q ^ ^ ~ V b h 1 -.",
"K % 4 r s c n n c s r 8 ; L ",
"H O : 2 9 y p p y 9 2 : + J ",
"G X $ ; , 2 4 4 2 , ; $ X F ",
"D . o + # & * * & # + o . S ",
"R 3 d j l j d d g l j d 3 T ",
"          f.k.k.g.          ",
"          Y z.z.E           ",
"          P U U A           "
};
