/* XPM */
static char *workspace[] = {
/* columns rows colors chars-per-pixel */
"22 22 82 1 ",
"  c None",
". c #001137",
"X c #00163C",
"o c #00193F",
"O c #031E43",
"+ c #062249",
"@ c #0A264D",
"# c #0E284C",
"$ c #122B4E",
"% c #082752",
"& c #0D2A53",
"* c #0D2D5A",
"= c #132E55",
"- c #112F59",
"; c #0F305D",
": c #13325C",
"> c #18365F",
", c #153562",
"< c #193A66",
"1 c #1C3D6B",
"2 c #203F6A",
"3 c #1F406F",
"4 c #1F4170",
"5 c #21426E",
"6 c #224573",
"7 c #264876",
"8 c #294A77",
"9 c #244778",
"0 c #26497A",
"q c #294D7D",
"w c #6E757F",
"e c #2A4F80",
"r c #2D5284",
"t c #2F568A",
"y c #305586",
"u c #315689",
"i c #33598D",
"p c #365C91",
"a c #385F93",
"s c #396196",
"d c #3D649B",
"f c #3F689E",
"g c #6C7582",
"h c #727984",
"j c #757E8B",
"k c #426BA4",
"l c #456FA8",
"z c #4771AB",
"x c #4A75B0",
"c c #4D79B4",
"v c #7B828C",
"b c #7B8592",
"n c #7F8997",
"m c #868686",
"M c #8B8B8B",
"N c #808792",
"B c #838B96",
"V c #888E97",
"C c #858E9A",
"Z c #898F98",
"A c #8E9095",
"S c #86909F",
"D c #8C939D",
"F c #939497",
"G c #949699",
"H c #96999D",
"J c #8C95A2",
"K c #8E99A8",
"L c #9097A0",
"P c #929AA5",
"I c #9A9DA1",
"U c #959EAA",
"Y c #98A0AC",
"T c #9AA4B2",
"R c #A2A4A9",
"E c #AAABAC",
"W c #AAADB1",
"Q c gray69",
"! c #B9B8B7",
"~ c #BABAB9",
"^ c gray78",
"/ c #CDCDCD",
/* pixels */
"ECDDJJPPUUUYYUUPHHGDZE",
"T,6qtpdkzxccxzkdaur8<T",
"K,60ttddllxxzlfdayq8<U",
"K,60riadklzzlkdsiyq6,U",
"K,40etpafkllkfsaiy86,P",
"K;14eriaaddffdaiyq75,P",
"J*<49eriaadssaiuy862:J",
"S%,140eruiipiiuyq761-D",
"S%><199errrrreee062<=Z",
"N+-,111eeeeeeee162<>&B",
"b+*-,1111e9ee111<,,:#N",
"jO&*;,<21111111<,-=&@v",
"jO%%&->,<<<<<<<;--&#Ov",
"jOO%&=--:>,>,;;;&&@OXj",
"gOOO%&&-------*&###OXw",
"g.OOO@OO%%&&%%%O+Ooo.w",
"hO###$==========$$##oh",
"GAFHHHIIREQWEEIIHHGFFG",
"         ~~~!         ",
"         /^^/         ",
"        MQEQQM        ",
"                      "
};
